SplineFontDB: 3.2
FontName: Neanes
FullName: Neanes
FamilyName: Neanes
Weight: Regular
Copyright: Copyright (c) 2022, Daniel
UComments: "2022-3-8: Created with FontForge (http://fontforge.org)"
Version: 001.000
ItalicAngle: 0
UnderlinePosition: 0
UnderlineWidth: 0
Ascent: 800
Descent: 200
InvalidEm: 0
LayerCount: 2
Layer: 0 0 "Back" 1
Layer: 1 0 "Fore" 0
XUID: [1021 151 880831689 20337]
FSType: 0
OS2Version: 0
OS2_WeightWidthSlopeOnly: 0
OS2_UseTypoMetrics: 0
CreationTime: 1646795337
ModificationTime: 1647142092
PfmFamily: 17
TTFWeight: 400
TTFWidth: 5
LineGap: 0
VLineGap: 0
OS2TypoAscent: 1400
OS2TypoAOffset: 0
OS2TypoDescent: 40
OS2TypoDOffset: 0
OS2TypoLinegap: 0
OS2WinAscent: 1400
OS2WinAOffset: 0
OS2WinDescent: -40
OS2WinDOffset: 0
HheadAscent: 1400
HheadAOffset: 0
HheadDescent: 40
HheadDOffset: 0
OS2Vendor: 'PfEd'
Lookup: 4 0 0 "'ccmp' Glyph Composition/Decomposition lookup 2" { "'ccmp' Glyph Composition/Decomposition lookup 2-1"  } ['ccmp' ('DFLT' <'dflt' > 'byzm' <'dflt' > 'latn' <'dflt' > ) ]
Lookup: 1 0 0 "subs" { "subs-1"  } []
Lookup: 5 0 0 "'rclt' Required Contextual Alternates lookup 1" { "'rclt' Required Contextual Alternates lookup 1-1"  } ['rclt' ('DFLT' <'dflt' > 'byzm' <'dflt' > 'latn' <'dflt' > ) ]
Lookup: 260 0 0 "'mark' Mark Positioning lookup 0" { "'mark' Mark Positioning lookup 0-1"  } ['mark' ('DFLT' <'dflt' > 'byzm' <'dflt' > 'latn' <'dflt' > ) ]
MarkAttachClasses: 1
DEI: 91125
ContextSub2: glyph "'rclt' Required Contextual Alternates lookup 1-1" 0 0 0 1
 String: 30 oligon_kentimataKato psifiston
 BString: 0 
 FString: 0 
 1
  SeqLookup: 0 "subs"
EndFPST
LangName: 1033
Encoding: UnicodeFull
UnicodeInterp: none
NameList: AGL For New Fonts
DisplaySize: -128
AntiAlias: 1
FitToEm: 1
WinInfo: 57680 7 5
BeginPrivate: 0
EndPrivate
TeXData: 1 0 0 346030 173015 115343 0 -1048576 115343 783286 444596 497025 792723 393216 433062 380633 303038 157286 324010 404750 52429 2506097 1059062 262144

StartChar: ison.uni
Encoding: 118854 118854 0
Width: 1524
VWidth: 345
Flags: W
HStem: 246 123<1036.67 1330.87>
LayerCount: 2
Fore
SplineSet
108 443 m 1
 82.6666666667 489 75.8333333333 528.5 87.5 561.5 c 0
 99.1666666667 594.5 120 612 150 614 c 0
 169.333333333 615.333333333 184.166666667 613.833333333 194.5 609.5 c 0
 204.833333333 605.166666667 213.833333333 600.833333333 221.5 596.5 c 0
 229.166666667 592.166666667 236.5 587.5 243.5 582.5 c 0
 250.5 577.5 257.166666667 572.333333333 263.5 567 c 0
 269.833333333 561.666666667 274.166666667 556.833333333 276.5 552.5 c 0
 278.833333333 548.166666667 279.833333333 544.166666667 279.5 540.5 c 0
 279.166666667 536.833333333 277.833333333 534.333333333 275.5 533 c 0
 273.166666667 531.666666667 266.166666667 528.666666667 254.5 524 c 0
 242.833333333 519.333333333 227.666666667 511.833333333 209 501.5 c 0
 190.333333333 491.166666667 181.333333333 473.666666667 182 449 c 0
 182 423.666666667 208.333333333 399.833333333 261 377.5 c 0
 313.666666667 355.166666667 392 346 496 350 c 1
 1230 369 l 2
 1252 369 1269.66666667 367.5 1283 364.5 c 0
 1296.33333333 361.5 1308.16666667 357.666666667 1318.5 353 c 0
 1328.83333333 348.333333333 1337.83333333 343.833333333 1345.5 339.5 c 0
 1353.16666667 335.166666667 1362 328.5 1372 319.5 c 0
 1382 310.5 1393.5 299 1406.5 285 c 0
 1419.5 271 1428 260.666666667 1432 254 c 0
 1436 247.333333333 1438 240.833333333 1438 234.5 c 0
 1438 228.166666667 1436 224 1432 222 c 0
 1428 220 1423.66666667 219 1419 219 c 0
 1414.33333333 219 1409.33333333 220 1404 222 c 0
 1398.66666667 224 1392.16666667 226.333333333 1384.5 229 c 0
 1376.83333333 231.666666667 1368.33333333 234.333333333 1359 237 c 0
 1349.66666667 239.666666667 1341 241.666666667 1333 243 c 0
 1325 244.333333333 1314 245.333333333 1300 246 c 2
 905 252 l 2
 843.666666667 252 779.166666667 254.5 711.5 259.5 c 0
 643.833333333 264.5 580 271 520 279 c 0
 460 287 407.333333333 295.666666667 362 305 c 0
 316.666666667 314.333333333 285.666666667 322 269 328 c 0
 240.333333333 340 214.833333333 351.833333333 192.5 363.5 c 0
 170.166666667 375.166666667 142 401.666666667 108 443 c 1
EndSplineSet
Validated: 524321
EndChar

StartChar: oligon.uni
Encoding: 118855 118855 1
Width: 1515
VWidth: 345
Flags: W
HStem: 246 121<182.719 1326.04>
LayerCount: 2
Fore
SplineSet
85 384 m 0
 88.3333333333 389.333333333 92.1666666667 392.166666667 96.5 392.5 c 0
 100.833333333 392.833333333 105.333333333 391.666666667 110 389 c 0
 114.666666667 386.333333333 120.666666667 383.166666667 128 379.5 c 0
 135.333333333 375.833333333 144.666666667 372.833333333 156 370.5 c 0
 167.333333333 368.166666667 183.333333333 367 204 367 c 2
 1228 367 l 2
 1246.66666667 367 1263.66666667 365.5 1279 362.5 c 0
 1294.33333333 359.5 1308.33333333 354.666666667 1321 348 c 0
 1333.66666667 341.333333333 1343.5 335.333333333 1350.5 330 c 0
 1357.5 324.666666667 1367 315.5 1379 302.5 c 0
 1391 289.5 1401.5 277 1410.5 265 c 0
 1419.5 253 1421.33333333 241.333333333 1416 230 c 1
 1410.66666667 222 1404.5 220.333333333 1397.5 225 c 0
 1390.5 229.666666667 1382.33333333 233.666666667 1373 237 c 0
 1363.66666667 240.333333333 1353.5 242.666666667 1342.5 244 c 0
 1331.5 245.333333333 1314.33333333 246 1291 246 c 2
 282 246 l 2
 266.666666667 246 252.666666667 247 240 249 c 0
 227.333333333 251 217.5 253.166666667 210.5 255.5 c 0
 203.5 257.833333333 196 261 188 265 c 0
 180 269 171.5 273.833333333 162.5 279.5 c 0
 153.5 285.166666667 144 293.166666667 134 303.5 c 0
 124 313.833333333 113.833333333 325.833333333 103.5 339.5 c 0
 93.1666666667 353.166666667 86.6666666667 362.666666667 84 368 c 0
 81.3333333333 373.333333333 81.6666666667 378.666666667 85 384 c 0
EndSplineSet
Validated: 524321
EndChar

StartChar: petasti.uni
Encoding: 118857 118857 2
Width: 1243
VWidth: 345
Flags: W
HStem: 133.5 38<688.719 920.029> 469.5 28.5<333.041 373.656 876.611 981.738>
VStem: 1030.5 149.5<261.308 407.941>
LayerCount: 2
Fore
SplineSet
885 498 m 5
 910.333333333 507.333333333 953.333333333 506.666666667 1014 496 c 5
 1049.33333333 486.666666667 1080.5 474.833333333 1107.5 460.5 c 4
 1134.5 446.166666667 1155.33333333 420.666666667 1170 384 c 5
 1180 348.666666667 1183.33333333 320.333333333 1180 299 c 4
 1176.66666667 277.666666667 1165 253.333333333 1145 226 c 5
 1125.66666667 202.666666667 1103.16666667 185.166666667 1077.5 173.5 c 4
 1051.83333333 161.833333333 1020 152 982 144 c 4
 944.666666667 136.666666667 914.333333333 133.166666667 891 133.5 c 4
 867.666666667 133.833333333 842.666666667 134.333333333 816 135 c 4
 789.333333333 136.333333333 764.5 138.5 741.5 141.5 c 4
 718.5 144.5 690.666666667 151 658 161 c 4
 604 175.666666667 550.666666667 196 498 222 c 4
 468.666666667 236.666666667 437.333333333 252.5 404 269.5 c 4
 370.666666667 286.5 333.666666667 306.666666667 293 330 c 4
 274.333333333 341.333333333 254 353.5 232 366.5 c 4
 210 379.5 186.333333333 392.666666667 161 406 c 5
 141.666666667 418 122.5 430.166666667 103.5 442.5 c 4
 84.5 454.833333333 76.5 467.166666667 79.5 479.5 c 4
 82.5 491.833333333 89.6666666667 497.666666667 101 497 c 4
 112.333333333 496.333333333 148 496.5 208 497.5 c 4
 268 498.5 320.666666667 498.666666667 366 498 c 5
 384 484.666666667 383.666666667 475.166666667 365 469.5 c 4
 346.333333333 463.833333333 332.666666667 456.666666667 324 448 c 4
 307.333333333 430.666666667 300 416.833333333 302 406.5 c 4
 304 396.166666667 306.666666667 388.166666667 310 382.5 c 4
 313.333333333 376.833333333 318.666666667 370.833333333 326 364.5 c 4
 333.333333333 358.166666667 351.5 345 380.5 325 c 4
 409.5 305 445.666666667 284 489 262 c 5
 527.666666667 245.333333333 558 231.666666667 580 221 c 4
 602 210.333333333 637.666666667 198.333333333 687 185 c 5
 723.666666667 177.666666667 761 173.166666667 799 171.5 c 4
 837 169.833333333 875.666666667 175.333333333 915 188 c 5
 942.333333333 200 961.5 210.333333333 972.5 219 c 4
 983.5 227.666666667 996 242.333333333 1010 263 c 4
 1022 283 1028.83333333 300 1030.5 314 c 4
 1032.16666667 328 1032.33333333 344 1031 362 c 4
 1030.33333333 380.666666667 1028.16666667 394.166666667 1024.5 402.5 c 4
 1020.83333333 410.833333333 1016 419.333333333 1010 428 c 4
 1004 436.666666667 996.666666667 444.5 988 451.5 c 4
 979.333333333 458.5 965.666666667 463.333333333 947 466 c 4
 928.333333333 468.666666667 910 471 892 473 c 4
 884 474.333333333 878.833333333 477.666666667 876.5 483 c 4
 874.166666667 488.333333333 877 493.333333333 885 498 c 5
EndSplineSet
Validated: 33
EndChar

StartChar: gorgonAno.uni
Encoding: 118927 118927 3
Width: 0
Flags: W
HStem: 1149.5 38<-84.5 162.174>
VStem: -148.5 66.5<1000.5 1149.5>
LayerCount: 2
Fore
SplineSet
-137.5 1187.5 m 0
 -88.1669921875 1187.5 -38.6669921875 1187.66699219 11 1188 c 0
 60.6669921875 1188.33300781 109.833007812 1188.83300781 158.5 1189.5 c 1
 161.833007812 1184.83300781 163.166992188 1178.83300781 162.5 1171.5 c 0
 161.833007812 1164.16699219 160.833007812 1157.83300781 159.5 1152.5 c 1
 149.5 1150.5 116.666992188 1149.5 61 1149.5 c 0
 -22.5 1149.5 -22.5 1149.5 -84.5 1149.5 c 1
 -84.5 1114.83300781 -83.6669921875 1079.5 -82 1043.5 c 0
 -80.3330078125 1007.5 -81.5 989.166992188 -85.5 988.5 c 0
 -95.5 988.5 -106.333007812 987.666992188 -118 986 c 0
 -129.666992188 984.333007812 -139.833007812 985.166992188 -148.5 988.5 c 0
 -149.166992188 988.5 -149.833007812 991.833007812 -150.5 998.5 c 0
 -150.5 998.5 -150.5 998.5 -149.5 999.5 c 0
 -148.5 1000.5 -148.5 1000.5 -148.5 1000.5 c 0
 -148.5 1035.83300781 -148.333007812 1064.5 -148 1086.5 c 0
 -147.666992188 1108.5 -147.5 1136.83300781 -147.5 1171.5 c 0
 -147.5 1181.5 -144.166992188 1186.83300781 -137.5 1187.5 c 0
EndSplineSet
Validated: 524321
EndChar

StartChar: kentimataAno
Encoding: 118862 118862 5
Width: 738
VWidth: 345
Flags: W
HStem: 423 29<85.7838 128.574 394.26 436.917>
LayerCount: 2
Fore
SplineSet
107 452 m 4
 129.666666667 452 153.666666667 451.666666667 179 451 c 4
 204.333333333 450.333333333 227 448.333333333 247 445 c 5
 261 445 276.5 417.5 293.5 362.5 c 4
 310.5 307.5 330.666666667 259.333333333 354 218 c 4
 362 204 369.333333333 196 376 194 c 4
 382 192 386.666666667 188.5 390 183.5 c 4
 393.333333333 178.5 390 174 380 170 c 5
 356.666666667 166 333.166666667 164.333333333 309.5 165 c 4
 285.833333333 165.666666667 263.333333333 167.333333333 242 170 c 5
 222 178 205.5 203.666666667 192.5 247 c 4
 179.5 290.333333333 161.333333333 340.666666667 138 398 c 4
 136 401.333333333 131.833333333 405.833333333 125.5 411.5 c 4
 119.166666667 417.166666667 112 421 104 423 c 4
 93.3333333333 425 87.1666666667 430.166666667 85.5 438.5 c 4
 83.8333333333 446.833333333 91 451.333333333 107 452 c 4
416 452 m 4
 438.666666667 452 462.5 451.666666667 487.5 451 c 4
 512.5 450.333333333 535.333333333 448.333333333 556 445 c 5
 570 445 585.333333333 417.5 602 362.5 c 4
 618.666666667 307.5 639 259.333333333 663 218 c 4
 671 204 678.333333333 196 685 194 c 4
 691 192 695.5 188.5 698.5 183.5 c 4
 701.5 178.5 698 174 688 170 c 5
 664.666666667 166 641.333333333 164.333333333 618 165 c 4
 594.666666667 165.666666667 572.333333333 167.333333333 551 170 c 5
 531 178 514.333333333 203.666666667 501 247 c 4
 487.666666667 290.333333333 469.333333333 340.666666667 446 398 c 4
 444 401.333333333 440 405.833333333 434 411.5 c 4
 428 417.166666667 420.666666667 421 412 423 c 4
 401.333333333 425 395.333333333 430.166666667 394 438.5 c 4
 392.666666667 446.833333333 400 451.333333333 416 452 c 4
EndSplineSet
Validated: 33
EndChar

StartChar: kentimaAno
Encoding: 118863 118863 6
Width: 279
VWidth: 345
Flags: W
HStem: 418 29<-41.6787 0.88916>
VStem: -42 303
LayerCount: 2
Fore
SplineSet
-21 447 m 0
 1.66666666667 447 25.5 446.666666667 50.5 446 c 0
 75.5 445.333333333 98 443.666666667 118 441 c 1
 132 441 147.5 413.333333333 164.5 358 c 0
 181.5 302.666666667 201.666666667 254.333333333 225 213 c 0
 233 199 240.333333333 191 247 189 c 0
 253 187 257.666666667 183.666666667 261 179 c 0
 264.333333333 174.333333333 261 170 251 166 c 1
 227.666666667 162 204.333333333 160.166666667 181 160.5 c 0
 157.666666667 160.833333333 135 162.666666667 113 166 c 1
 93 174 76.5 199.5 63.5 242.5 c 0
 50.5 285.5 32.3333333333 336 9 394 c 0
 7 397.333333333 3 401.833333333 -3 407.5 c 0
 -9 413.166666667 -16 416.666666667 -24 418 c 0
 -34.6666666667 420 -40.6666666667 425.333333333 -42 434 c 0
 -43.3333333333 442.666666667 -36.3333333333 447 -21 447 c 0
EndSplineSet
Validated: 33
EndChar

StartChar: ypsili
Encoding: 118864 118864 7
Width: 1515
VWidth: 345
Flags: W
HStem: 595 22<627.535 706.586> 1132 31<1043.3 1080.93>
LayerCount: 2
Fore
SplineSet
1067 1163 m 5
 1077.66699219 1161 1082.33300781 1155.5 1081 1146.5 c 4
 1079.66699219 1137.5 1073 1132.66699219 1061 1132 c 5
 1047 1127.33300781 1035.83300781 1109.66699219 1027.5 1079 c 4
 1019.16699219 1048.33300781 1010 1016 1000 982 c 4
 977.333007812 902.666992188 956.666992188 838.333007812 938 789 c 4
 919.333007812 739.666992188 901.666992188 705.166992188 885 685.5 c 4
 868.333007812 665.833007812 848.333007812 650.666992188 825 640 c 4
 789 624.666992188 753.333007812 613.333007812 718 606 c 4
 682.666992188 598.666992188 652.333007812 595 627 595 c 5
 639.666992188 565 661 544 691 532 c 4
 721 520 729.666992188 507.333007812 717 494 c 4
 709.666992188 486.666992188 686.5 496.333007812 647.5 523 c 4
 608.5 549.666992188 582 576 568 602 c 5
 568 618.666992188 574.666992188 625.666992188 588 623 c 4
 601.333007812 620.333007812 616 618.333007812 632 617 c 260
 647.333007812 616.333007812 663.166992188 617.333007812 679.5 620 c 4
 695.833007812 622.666992188 717.666992188 631 745 645 c 4
 758.333007812 651.666992188 771 666.833007812 783 690.5 c 4
 795 714.166992188 805.666992188 740.333007812 815 769 c 4
 824.333007812 797.666992188 832.333007812 826.166992188 839 854.5 c 4
 845.666992188 882.833007812 854.5 923.666992188 865.5 977 c 4
 876.5 1030.33300781 886 1066 894 1084 c 4
 902 1102 913.166992188 1116.66699219 927.5 1128 c 4
 941.833007812 1139.33300781 955.5 1146.66699219 968.5 1150 c 4
 981.5 1153.33300781 995.833007812 1155.66699219 1011.5 1157 c 4
 1027.16699219 1158.33300781 1045.66699219 1160.33300781 1067 1163 c 5
EndSplineSet
Validated: 33
EndChar

StartChar: elafron.uni
Encoding: 118869 118869 8
Width: 1243
VWidth: 345
Flags: W
HStem: 140 25<292.995 383.389> 466.5 38.5<340.132 569.561>
VStem: 80 149<230.031 375.995>
LayerCount: 2
Fore
SplineSet
375 140 m 1
 349.666666667 130.666666667 306.666666667 131.333333333 246 142 c 1
 210.666666667 150.666666667 179.5 162.333333333 152.5 177 c 0
 125.5 191.666666667 104.666666667 217.333333333 90 254 c 1
 80 289.333333333 76.6666666667 317.5 80 338.5 c 0
 83.3333333333 359.5 95 384 115 412 c 1
 134.333333333 435.333333333 156.833333333 453 182.5 465 c 0
 208.166666667 477 239.666666667 486.666666667 277 494 c 0
 314.333333333 501.333333333 344.666666667 505 368 505 c 0
 391.333333333 505 416.666666667 504.333333333 444 503 c 0
 470.666666667 501.666666667 495.5 499.5 518.5 496.5 c 0
 541.5 493.5 569.333333333 487 602 477 c 0
 656 462.333333333 709.333333333 442 762 416 c 0
 791.333333333 401.333333333 822.5 385.5 855.5 368.5 c 0
 888.5 351.5 925.333333333 331.333333333 966 308 c 0
 984.666666667 296.666666667 1005.16666667 284.666666667 1027.5 272 c 0
 1049.83333333 259.333333333 1073.66666667 246.333333333 1099 233 c 1
 1118.33333333 221 1137.5 208.833333333 1156.5 196.5 c 0
 1175.5 184.166666667 1183.5 171.833333333 1180.5 159.5 c 0
 1177.5 147.166666667 1170.33333333 141.333333333 1159 142 c 0
 1147.66666667 142.666666667 1111.83333333 142.333333333 1051.5 141 c 0
 991.166666667 139.666666667 938.666666667 139.333333333 894 140 c 1
 876 153.333333333 876.166666667 163 894.5 169 c 0
 912.833333333 175 926.666666667 182.333333333 936 191 c 0
 952.666666667 208.333333333 960 222 958 232 c 0
 956 242 953.166666667 249.833333333 949.5 255.5 c 0
 945.833333333 261.166666667 940.333333333 267.166666667 933 273.5 c 0
 925.666666667 279.833333333 907.5 293 878.5 313 c 0
 849.5 333 813.666666667 354 771 376 c 1
 732.333333333 392.666666667 702 406.333333333 680 417 c 0
 658 427.666666667 622.333333333 439.666666667 573 453 c 1
 536.333333333 460.333333333 499 464.833333333 461 466.5 c 0
 423 468.166666667 384.333333333 462.666666667 345 450 c 1
 317.666666667 438 298.5 427.833333333 287.5 419.5 c 0
 276.5 411.166666667 264 396.333333333 250 375 c 0
 238 355 231.166666667 338 229.5 324 c 0
 227.833333333 310 227.666666667 294 229 276 c 0
 229.666666667 257.333333333 231.833333333 243.833333333 235.5 235.5 c 0
 239.166666667 227.166666667 243.833333333 218.833333333 249.5 210.5 c 0
 255.166666667 202.166666667 262.5 194.5 271.5 187.5 c 0
 280.5 180.5 294.333333333 175.5 313 172.5 c 0
 331.666666667 169.5 350 167 368 165 c 0
 376 163.666666667 381.166666667 160.333333333 383.5 155 c 0
 385.833333333 149.666666667 383 144.666666667 375 140 c 1
EndSplineSet
Validated: 524321
EndChar

StartChar: chamili.uni
Encoding: 118870 118870 9
Width: 1113
VWidth: 345
Flags: W
HStem: 290 30<594.953 788 905 1044.16>
LayerCount: 2
Fore
SplineSet
905 290 m 5
 914 252 l 6
 914.666666667 249.333333333 918.333333333 242.833333333 925 232.5 c 4
 931.666666667 222.166666667 935 215.666666667 935 213 c 260
 935 210.333333333 929.5 208 918.5 206 c 4
 907.5 204 900 203 896 203 c 6
 835 203 l 6
 827 203 819.5 208.666666667 812.5 220 c 4
 805.5 231.333333333 801 242 799 252 c 6
 791 290 l 5
 713 290 641.5 293.166666667 576.5 299.5 c 4
 512.166666667 305.833333333 466 311.333333333 438 316 c 4
 335.333333333 332 271.333333333 368.666666667 246 426 c 4
 240 438.666666667 230 464 216 502 c 4
 202 540 187.166666667 579.333333333 171.5 620 c 4
 155.833333333 660.666666667 141 697.5 127 730.5 c 4
 113 763.5 103.333333333 781.333333333 98 784 c 4
 70.6666666667 793.333333333 64.6666666667 803.666666667 80 815 c 5
 114 817.666666667 146.166666667 819.333333333 176.5 820 c 4
 206.833333333 820.666666667 238.333333333 819.666666667 271 817 c 4
 287 816.333333333 300.5 804.666666667 311.5 782 c 4
 322.5 759.333333333 332.166666667 732 340.5 700 c 4
 348.833333333 668 356.333333333 634 363 598 c 4
 369.666666667 562 376.333333333 530 383 502 c 4
 397 446 414.333333333 407.833333333 435 387.5 c 4
 455.666666667 367.166666667 491 350.333333333 541 337 c 4
 591.666666667 323.666666667 674 318 788 320 c 5
 775 389 l 6
 774.333333333 392.333333333 771 396.666666667 765 402 c 4
 759 407.333333333 756 411.666666667 756 415 c 4
 756 419 761.5 421.666666667 772.5 423 c 4
 783.5 424.333333333 791 425 795 425 c 6
 856 425 l 6
 863.333333333 425 870.5 419.833333333 877.5 409.5 c 4
 884.5 399.166666667 889.333333333 388 892 376 c 6
 902 321 l 5
 946.666666667 321.666666667 977.166666667 323.166666667 993.5 325.5 c 4
 1009.83333333 327.833333333 1027 330.333333333 1045 333 c 5
 1052.33333333 332.333333333 1056.83333333 329 1058.5 323 c 4
 1060.16666667 317 1058.66666667 311.333333333 1054 306 c 4
 1047.33333333 300.666666667 1033.66666667 296.666666667 1013 294 c 4
 992.333333333 291.333333333 956.333333333 290 905 290 c 5
EndSplineSet
Validated: 33
EndChar

StartChar: apostrofos.uni
Encoding: 118865 118865 10
Width: 703
VWidth: 345
Flags: W
HStem: 145 32<416.995 469.781> 465 29.5<85.6115 279.594>
LayerCount: 2
Fore
SplineSet
416 153 m 1
 408.666666667 159 408.166666667 164.5 414.5 169.5 c 0
 420.833333333 174.5 429 177 439 177 c 0
 449.666666667 177 464.833333333 186.833333333 484.5 206.5 c 0
 504.166666667 226.166666667 517 250.333333333 523 279 c 0
 533 327.666666667 507.666666667 367.333333333 447 398 c 0
 381 430.666666667 296 452.333333333 192 463 c 0
 174 464.333333333 154.333333333 465 133 465 c 0
 111.666666667 465 99.3333333333 465.666666667 96 467 c 0
 86.6666666667 470.333333333 83.1666666667 475.833333333 85.5 483.5 c 0
 87.8333333333 491.166666667 93 495.333333333 101 496 c 0
 108.333333333 496.666666667 126.333333333 496.166666667 155 494.5 c 0
 183.666666667 492.833333333 215.333333333 489.666666667 250 485 c 0
 289.333333333 479 329.166666667 471.166666667 369.5 461.5 c 0
 409.833333333 451.833333333 447.333333333 440 482 426 c 0
 521.333333333 410.666666667 552.666666667 395.166666667 576 379.5 c 0
 599.333333333 363.833333333 621 343.333333333 641 318 c 0
 660.333333333 291.333333333 668.5 265 665.5 239 c 0
 662.5 213 651 192.666666667 631 178 c 0
 613 164.666666667 592.5 155.833333333 569.5 151.5 c 0
 546.5 147.166666667 524.333333333 145 503 145 c 256
 481.666666667 145 467.166666667 145.166666667 459.5 145.5 c 0
 451.833333333 145.833333333 437.333333333 148.333333333 416 153 c 1
EndSplineSet
Validated: 524321
EndChar

StartChar: yporroi.uni
Encoding: 118867 118867 11
Width: 400
VWidth: 345
Flags: W
HStem: 417 30<334.051 380.419>
VStem: 75 305.5
LayerCount: 2
Fore
SplineSet
358 447 m 0
 373.333333333 447 380.833333333 442.333333333 380.5 433 c 0
 380.166666667 423.666666667 374.666666667 418.333333333 364 417 c 0
 346 413 334 405.333333333 328 394 c 0
 304 336.666666667 285.5 286.333333333 272.5 243 c 0
 259.5 199.666666667 243 174 223 166 c 1
 201.666666667 163.333333333 179.166666667 161.666666667 155.5 161 c 0
 131.833333333 160.333333333 108.333333333 162 85 166 c 1
 75 170 71.6666666667 174.333333333 75 179 c 0
 78.3333333333 183.666666667 83.3333333333 187 90 189 c 0
 96.6666666667 190.333333333 103.666666667 198.333333333 111 213 c 0
 134.333333333 254.333333333 153.833333333 301.166666667 169.5 353.5 c 0
 185.166666667 405.833333333 201.666666667 435 219 441 c 0
 241.666666667 447.666666667 264.666666667 450.333333333 288 449 c 0
 311.333333333 447.666666667 334.666666667 447 358 447 c 0
EndSplineSet
Validated: 524321
EndChar

StartChar: vareia.uni
Encoding: 118872 118872 12
Width: 534
VWidth: 345
Flags: W
HStem: -72 15<533.252 579.418>
LayerCount: 2
Fore
SplineSet
74 697 m 1
 78 705 99.3333333333 704.166666667 138 694.5 c 0
 176.666666667 684.833333333 208.666666667 674.333333333 234 663 c 0
 246.666666667 657 254 647.5 256 634.5 c 0
 258 621.5 259.333333333 601 260 573 c 0
 260.666666667 493 263.5 429.666666667 268.5 383 c 0
 273.5 336.333333333 278.666666667 296.666666667 284 264 c 0
 292 212 302 168.5 314 133.5 c 0
 326 98.5 344.666666667 68 370 42 c 0
 395.333333333 16 418.833333333 -3.83333333333 440.5 -17.5 c 0
 462.166666667 -31.1666666667 504 -44.3333333333 566 -57 c 1
 576.666666667 -57 581.166666667 -59.5 579.5 -64.5 c 0
 577.833333333 -69.5 571.333333333 -72 560 -72 c 1
 522 -64 503.666666667 -60.6666666667 505 -62 c 0
 506.333333333 -63.3333333333 491 -59 459 -49 c 1
 401.666666667 -25.6666666667 356.666666667 7 324 49 c 0
 291.333333333 91 263.333333333 132 240 172 c 1
 206 235.333333333 178.333333333 301.333333333 157 370 c 0
 135.666666667 438.666666667 120.333333333 528 111 638 c 0
 107.666666667 668 100.333333333 682.333333333 89 681 c 0
 77.6666666667 679.666666667 72.6666666667 685 74 697 c 1
EndSplineSet
Validated: 33
EndChar

StartChar: omalon.uni
Encoding: 118875 118875 13
Width: 0
VWidth: 345
Flags: W
HStem: -88 45<-579.5 380> 38 29<569.591 612.201>
LayerCount: 2
Fore
SplineSet
397 -43 m 1
 407.666992188 -15 417.333007812 9.1669921875 426 29.5 c 0
 434.666992188 49.8330078125 443 60 451 60 c 0
 471 62.6669921875 493.666992188 64.5 519 65.5 c 0
 544.333007812 66.5 568.333007812 67 591 67 c 0
 606.333007812 67 613.5 62.6669921875 612.5 54 c 0
 611.5 45.3330078125 605.333007812 40 594 38 c 0
 586 36.6669921875 579 33 573 27 c 0
 567 21 563 16.3330078125 561 13 c 0
 537.666992188 -45 519.5 -95.5 506.5 -138.5 c 0
 493.5 -181.5 476.666992188 -207 456 -215 c 1
 434.666992188 -217.666992188 412.166992188 -219.333007812 388.5 -220 c 0
 364.833007812 -220.666992188 341.333007812 -219 318 -215 c 1
 308 -211 304.666992188 -206.5 308 -201.5 c 0
 311.333007812 -196.5 316.333007812 -193 323 -191 c 0
 329.666992188 -189.666992188 336.666992188 -182 344 -168 c 0
 350.666992188 -156 357 -143.166992188 363 -129.5 c 0
 369 -115.833007812 374.666992188 -102 380 -88 c 1
 -458 -88 l 1
 -510 -91 l 2
 -528 -91.6669921875 -544.333007812 -91 -559 -89 c 0
 -573 -87.6669921875 -579.833007812 -79.6669921875 -579.5 -65 c 0
 -579.166992188 -50.3330078125 -571.666992188 -43 -557 -43 c 2
 397 -43 l 1
EndSplineSet
Validated: 524321
EndChar

StartChar: antikenoma.uni
Encoding: 118876 118876 14
Width: 0
VWidth: 345
Flags: W
HStem: -205 14.5<378.546 399.316> 54 28<-352.079 -158.376 16.624 248.825>
LayerCount: 2
Fore
SplineSet
-649.375976562 64 m 0
 -549.375976562 68.6669921875 -431.708984375 74.6669921875 -296.375976562 82 c 0
 -161.041992188 89.3330078125 -43.708984375 91.3330078125 55.6240234375 88 c 0
 142.291015625 86 225.624023438 80.8330078125 305.624023438 72.5 c 0
 385.624023438 64.1669921875 446.624023438 55.3330078125 488.624023438 46 c 0
 531.291015625 36 570.458007812 19.5 606.124023438 -3.5 c 0
 641.791015625 -26.5 662.291015625 -49.6669921875 667.624023438 -73 c 256
 672.958007812 -96.3330078125 673.291015625 -116 668.624023438 -132 c 0
 663.958007812 -148 637.958007812 -166.666992188 590.624023438 -188 c 1
 557.291015625 -195.333007812 522.124023438 -200.166992188 485.124023438 -202.5 c 0
 448.124023438 -204.833007812 415.624023438 -205.666992188 387.624023438 -205 c 1
 376.291015625 -200.333007812 375.458007812 -195.5 385.124023438 -190.5 c 0
 394.791015625 -185.5 408.124023438 -178.833007812 425.124023438 -170.5 c 0
 442.124023438 -162.166992188 459.624023438 -151.5 477.624023438 -138.5 c 0
 495.624023438 -125.5 507.624023438 -109 513.624023438 -89 c 0
 524.291015625 -52.3330078125 508.124023438 -24.3330078125 465.124023438 -5 c 0
 422.124023438 14.3330078125 370.791015625 28.3330078125 311.124023438 37 c 0
 251.458007812 45.6669921875 192.458007812 50.5 134.124023438 51.5 c 0
 75.791015625 52.5 36.6240234375 53.6669921875 16.6240234375 55 c 0
 -25.3759765625 57 -83.708984375 56.6669921875 -158.375976562 54 c 0
 -233.041992188 51.3330078125 -306.708984375 47.8330078125 -379.375976562 43.5 c 0
 -452.041992188 39.1669921875 -515.208984375 35.3330078125 -568.875976562 32 c 0
 -649.375976562 27 -649.375976562 27 -649.375976562 27 c 1
 -660.041992188 29 -665.208984375 35.3330078125 -664.875976562 46 c 0
 -664.541992188 56.6669921875 -659.375976562 62.6669921875 -649.375976562 64 c 0
EndSplineSet
Validated: 524321
EndChar

StartChar: psifiston.uni
Encoding: 118874 118874 15
Width: 0
VWidth: 345
Flags: W
HStem: 101.5 48.5<-157.168 128.104> 426 31<664.058 728.401>
LayerCount: 2
Fore
SplineSet
497.950195312 449 m 1
 537.950195312 451.666992188 574.1171875 454 606.450195312 456 c 0
 638.783203125 458 675.6171875 458.333007812 716.950195312 457 c 1
 725.6171875 454.333007812 729.450195312 448.333007812 728.450195312 439 c 0
 727.450195312 429.666992188 722.950195312 425.333007812 714.950195312 426 c 0
 710.950195312 425.333007812 708.6171875 425.166992188 707.950195312 425.5 c 0
 707.283203125 425.833007812 704.283203125 426 698.950195312 426 c 0
 683.6171875 424.666992188 658.783203125 410.166992188 624.450195312 382.5 c 0
 590.1171875 354.833007812 552.6171875 324.166992188 511.950195312 290.5 c 0
 471.283203125 256.833007812 440.1171875 232.333007812 418.450195312 217 c 0
 396.783203125 201.666992188 378.450195312 189.166992188 363.450195312 179.5 c 0
 348.450195312 169.833007812 323.950195312 157 289.950195312 141 c 0
 251.283203125 122.333007812 200.283203125 110.333007812 136.950195312 105 c 0
 73.6171875 99.6669921875 19.4501953125 98.5 -25.5498046875 101.5 c 0
 -70.5498046875 104.5 -109.3828125 110.166992188 -142.049804688 118.5 c 0
 -174.716796875 126.833007812 -213.716796875 138.833007812 -259.049804688 154.5 c 0
 -304.3828125 170.166992188 -368.049804688 201.666992188 -450.049804688 249 c 0
 -550.716796875 307.666992188 -614.216796875 346.333007812 -640.549804688 365 c 0
 -666.8828125 383.666992188 -695.049804688 403.333007812 -725.049804688 424 c 1
 -730.3828125 434 -729.716796875 443.833007812 -723.049804688 453.5 c 0
 -716.3828125 463.166992188 -704.716796875 463.333007812 -688.049804688 454 c 0
 -671.3828125 444 -637.216796875 421 -585.549804688 385 c 0
 -533.8828125 349 -467.716796875 308.333007812 -387.049804688 263 c 0
 -329.049804688 229.666992188 -265.8828125 202.833007812 -197.549804688 182.5 c 0
 -129.216796875 162.166992188 -71.0498046875 151.333007812 -23.0498046875 150 c 0
 19.6171875 149.333007812 61.9501953125 154 103.950195312 164 c 0
 145.950195312 174 192.950195312 197.333007812 244.950195312 234 c 1
 304.950195312 288 354.6171875 335.833007812 393.950195312 377.5 c 0
 433.283203125 419.166992188 467.950195312 443 497.950195312 449 c 1
EndSplineSet
Validated: 524321
EndChar

StartChar: stavros.uni
Encoding: 118910 118910 16
Width: 457
VWidth: 345
Flags: W
HStem: 276 45<90 240 286 436>
VStem: 240 46<126.035 276 321 471>
LayerCount: 2
Fore
SplineSet
286 276 m 1
 286 140 l 2
 286 130 281 125.333333333 271 126 c 2
 254 126 l 2
 244.666666667 126 240 130.666666667 240 140 c 2
 240 276 l 1
 105 276 l 2
 95 276 90 280.666666667 90 290 c 2
 90 307 l 2
 90 316.333333333 95 321 105 321 c 2
 241 321 l 1
 240 456 l 2
 240 466 244.666666667 471 254 471 c 2
 271 471 l 2
 280.333333333 471 285.333333333 466 286 456 c 2
 286 321 l 1
 421 321 l 2
 431 321 436 316.333333333 436 307 c 2
 436 290 l 2
 436 280.666666667 431 276 421 276 c 2
 286 276 l 1
EndSplineSet
Validated: 1
EndChar

StartChar: klasmaAno.uni
Encoding: 118911 118911 17
Width: 0
VWidth: 345
Flags: W
LayerCount: 2
Fore
SplineSet
-206.377929688 768 m 0
 -200.377929688 765.333007812 -193.7109375 761.166992188 -186.377929688 755.5 c 0
 -179.044921875 749.833007812 -173.044921875 745.333007812 -168.377929688 742 c 0
 -140.377929688 722.666992188 -115.377929688 706.166992188 -93.3779296875 692.5 c 0
 -71.3779296875 678.833007812 -44.7109375 669 -13.3779296875 663 c 0
 1.955078125 660.333007812 18.6220703125 659.5 36.6220703125 660.5 c 0
 54.6220703125 661.5 66.955078125 663.666992188 73.6220703125 667 c 0
 92.955078125 673.666992188 103.455078125 685.5 105.122070312 702.5 c 0
 106.7890625 719.5 104.955078125 733.333007812 99.6220703125 744 c 0
 95.6220703125 751.333007812 94.1220703125 759.5 95.1220703125 768.5 c 0
 96.1220703125 777.5 100.622070312 782.666992188 108.622070312 784 c 1
 143.955078125 781.333007812 173.622070312 770.5 197.622070312 751.5 c 0
 221.622070312 732.5 234.2890625 715.666992188 235.622070312 701 c 1
 235.622070312 693 l 2
 235.622070312 681 229.2890625 666.333007812 216.622070312 649 c 0
 203.955078125 631.666992188 183.955078125 619.666992188 156.622070312 613 c 0
 91.955078125 598.333007812 28.6220703125 603 -33.3779296875 627 c 0
 -68.7109375 641 -103.044921875 657 -136.377929688 675 c 0
 -169.7109375 693 -200.044921875 713 -227.377929688 735 c 0
 -236.044921875 741.666992188 -237.877929688 750.333007812 -232.877929688 761 c 0
 -227.877929688 771.666992188 -219.044921875 774 -206.377929688 768 c 0
EndSplineSet
Validated: 524321
EndChar

StartChar: apli.uni
Encoding: 118917 118917 18
Width: 0
VWidth: 345
Flags: W
HStem: -109 108<-48.6037 48.9475> -108 30<-61.6676 -54.635>
VStem: -68.3418 135
AnchorPoint: "apli-bottom" 8 8 mark 0
LayerCount: 2
Fore
SplineSet
-22.341796875 -1 m 2xa0
 36.658203125 -1 l 2
 41.658203125 -1 41.658203125 -1 52.658203125 -1 c 0xa0
 59.9912109375 -1 64.658203125 -2 66.658203125 -4 c 0
 69.32421875 -6.6669921875 68.82421875 -8.1669921875 65.158203125 -8.5 c 0
 61.4912109375 -8.8330078125 58.658203125 -16.3330078125 56.658203125 -31 c 2
 50.658203125 -78 l 2x60
 48.658203125 -98 38.9912109375 -108.333007812 21.658203125 -109 c 2
 -37.341796875 -109 l 2xa0
 -40.0087890625 -109 -45.841796875 -108.666992188 -54.841796875 -108 c 0
 -63.841796875 -107.333007812 -68.341796875 -105.333007812 -68.341796875 -102 c 0
 -68.341796875 -98 -66.67578125 -95.3330078125 -63.341796875 -94 c 0
 -60.0087890625 -92.6669921875 -58.0087890625 -87.3330078125 -57.341796875 -78 c 2x60
 -56.67578125 -78 -54.341796875 -62.3330078125 -50.341796875 -31 c 2
 -47.67578125 -11 -38.341796875 -1 -22.341796875 -1 c 2xa0
EndSplineSet
Validated: 1
EndChar

StartChar: dipli.uni
Encoding: 118918 118918 19
Width: 8
VWidth: 345
Flags: W
HStem: -109 108<-157.561 -59.558 67.4638 165.727>
AnchorPoint: "apli-bottom" 12 14 basechar 0
LayerCount: 2
Fore
SplineSet
-131.5625 -1 m 2
 -71.5625 -1 l 2
 -66.5625 -1 -66.5625 -1 -55.5625 -1 c 0
 -48.2294921875 -1 -43.5625 -2 -41.5625 -4 c 0
 -38.8955078125 -6.6669921875 -39.3955078125 -8.1669921875 -43.0625 -8.5 c 0
 -46.7294921875 -8.8330078125 -49.5625 -16.3330078125 -51.5625 -31 c 2
 -57.5625 -78 l 2
 -60.2294921875 -98 -69.8955078125 -108.333007812 -86.5625 -109 c 2
 -145.5625 -109 l 2
 -148.895507812 -109 -154.729492188 -108.666992188 -163.0625 -108 c 0
 -171.395507812 -107.333007812 -175.895507812 -105.333007812 -176.5625 -102 c 0
 -176.5625 -98 -175.0625 -95.3330078125 -172.0625 -94 c 0
 -169.0625 -92.6669921875 -166.895507812 -87.3330078125 -165.5625 -78 c 2
 -159.5625 -31 l 2
 -156.229492188 -11 -146.895507812 -1 -131.5625 -1 c 2
94.4375 -1 m 2
 153.4375 -1 l 2
 158.4375 -1 158.4375 -1 168.9375 -1 c 0
 175.9375 -1 180.770507812 -2 183.4375 -4 c 0
 185.4375 -6.6669921875 184.770507812 -8.1669921875 181.4375 -8.5 c 0
 178.104492188 -8.8330078125 175.4375 -16.3330078125 173.4375 -31 c 2
 167.4375 -78 l 2
 165.4375 -98 155.770507812 -108.333007812 138.4375 -109 c 2
 79.4375 -109 l 2
 76.1044921875 -109 70.2705078125 -108.666992188 61.9375 -108 c 0
 53.6044921875 -107.333007812 49.1044921875 -105.333007812 48.4375 -102 c 0
 48.4375 -98 50.1044921875 -95.3330078125 53.4375 -94 c 0
 56.7705078125 -92.6669921875 58.7705078125 -87.3330078125 59.4375 -78 c 2
 65.4375 -31 l 2
 68.7705078125 -11 78.4375 -1 94.4375 -1 c 2
EndSplineSet
Validated: 1
EndChar

StartChar: martyriaAlliProtosIchos
Encoding: 118947 118947 20
Width: 0
VWidth: 345
Flags: W
VStem: -163 55.5<449.226 565.713> 38.5 60<150.096 415.891> 70 44<592 645.235>
LayerCount: 2
Fore
SplineSet
3 613 m 4x80
 -15 621 -33 618.5 -51 605.5 c 4
 -69 592.5 -84 572.666992188 -96 546 c 4
 -108 519.333007812 -111.833007812 494 -107.5 470 c 4
 -103.166992188 446 -92 430 -74 422 c 5
 -51.3330078125 414 -29.8330078125 414.666992188 -9.5 424 c 4
 10.8330078125 433.333007812 25.3330078125 455 34 489 c 4
 51.3330078125 555.666992188 41 597 3 613 c 4x80
65 592 m 5
 70 646 l 5
 84 650 98.6669921875 649 114 643 c 5xa0
 114.666992188 619 113.333007812 578.333007812 110 521 c 4
 106.666992188 463.666992188 103.666992188 354.333007812 101 193 c 4
 101 184.333007812 100.166992188 175.5 98.5 166.5 c 4
 96.8330078125 157.5 94.6669921875 152 92 150 c 4
 78.6669921875 140 64 139 48 147 c 4
 43.3330078125 149 40.1669921875 155.166992188 38.5 165.5 c 4xc0
 36.8330078125 175.833007812 36 185 36 193 c 4
 36 216.333007812 37.1669921875 232.166992188 39.5 240.5 c 4
 41.8330078125 248.833007812 43.3330078125 256 44 262 c 4
 48.6669921875 298 52 328.666992188 54 354 c 4
 56 379.333007812 58 410.333007812 60 447 c 5
 34 411.666992188 -4.6669921875 396.333007812 -56 401 c 4
 -92 404.333007812 -119.666992188 419.166992188 -139 445.5 c 4
 -158.333007812 471.833007812 -166.333007812 501.666992188 -163 535 c 260
 -159.666992188 568.333007812 -145.666992188 595.166992188 -121 615.5 c 4
 -96.3330078125 635.833007812 -66 644.666992188 -30 642 c 4
 14.6669921875 637.333007812 46.3330078125 620.666992188 65 592 c 5
EndSplineSet
Validated: 33
EndChar

StartChar: martyriaTrifonias
Encoding: 118951 118951 21
Width: 652
VWidth: 345
Flags: W
HStem: 170 34.5<304.556 352.757 587.419 634.938>
VStem: 195.945 93<239.048 514.724> 476.945 95<240.412 513.875>
LayerCount: 2
Fore
SplineSet
356.9453125 176 m 5
 354.278320312 170.666992188 343.4453125 168.666992188 324.4453125 170 c 4
 305.4453125 171.333007812 285.612304688 178.5 264.9453125 191.5 c 4
 244.278320312 204.5 226.278320312 223.833007812 210.9453125 249.5 c 4
 195.612304688 275.166992188 190.612304688 309.666992188 195.9453125 353 c 4
 203.9453125 423 205.112304688 480.5 199.4453125 525.5 c 4
 193.778320312 570.5 170.9453125 588.666992188 130.9453125 580 c 4
 105.612304688 574 98.9453125 559.666992188 110.9453125 537 c 4
 122.9453125 514.333007812 115.278320312 498.666992188 87.9453125 490 c 4
 75.9453125 486 64.7783203125 488.666992188 54.4453125 498 c 4
 44.1123046875 507.333007812 38.9453125 518.333007812 38.9453125 531 c 4
 38.9453125 561.666992188 52.2783203125 582 78.9453125 592 c 4
 93.6123046875 597.333007812 113.278320312 600 137.9453125 600 c 4
 162.612304688 600 183.9453125 594.333007812 201.9453125 583 c 4
 238.612304688 559 262.278320312 532.333007812 272.9453125 503 c 4
 283.612304688 473.666992188 288.9453125 405 288.9453125 297 c 4
 288.9453125 244.333007812 300.612304688 213.5 323.9453125 204.5 c 4
 347.278320312 195.5 358.278320312 186 356.9453125 176 c 5
638.9453125 176 m 5
 636.278320312 170.666992188 625.4453125 168.666992188 606.4453125 170 c 4
 587.4453125 171.333007812 567.4453125 178.5 546.4453125 191.5 c 4
 525.4453125 204.5 507.4453125 223.833007812 492.4453125 249.5 c 4
 477.4453125 275.166992188 472.278320312 309.666992188 476.9453125 353 c 4
 484.9453125 423 486.278320312 480.5 480.9453125 525.5 c 4
 475.612304688 570.5 452.9453125 588.666992188 412.9453125 580 c 4
 387.612304688 574 380.9453125 559.666992188 392.9453125 537 c 4
 404.9453125 514.333007812 397.278320312 498.666992188 369.9453125 490 c 4
 357.9453125 486 346.9453125 488.666992188 336.9453125 498 c 4
 326.9453125 507.333007812 321.9453125 518.333007812 321.9453125 531 c 4
 321.9453125 561.666992188 334.9453125 582 360.9453125 592 c 4
 375.612304688 597.333007812 395.278320312 600 419.9453125 600 c 4
 444.612304688 600 466.278320312 594.333007812 484.9453125 583 c 4
 520.9453125 559 544.278320312 532.333007812 554.9453125 503 c 4
 565.612304688 473.666992188 571.278320312 405 571.9453125 297 c 4
 571.9453125 244.333007812 583.4453125 213.5 606.4453125 204.5 c 4
 629.4453125 195.5 640.278320312 186 638.9453125 176 c 5
EndSplineSet
Validated: 33
EndChar

StartChar: martyriaAlliDeyterosIchos
Encoding: 118949 118949 22
Width: 826
VWidth: 345
Flags: W
VStem: 65 89<462.719 550.274>
LayerCount: 2
Fore
SplineSet
65 528 m 4
 73.666015625 551.333007812 98 559.333007812 138 552 c 4
 146.666015625 550.666992188 152 541.333007812 154 524 c 4
 156 506.666992188 150 488 136 468 c 4
 125.333007812 454 121.833007812 439.333007812 125.5 424 c 4
 129.166015625 408.666992188 149 398.666992188 185 394 c 5
 262.333007812 389.333007812 323 389.333007812 367 394 c 4
 411 398.666992188 470.333007812 404.666992188 545 412 c 4
 589 415.333007812 637.333007812 417.333007812 690 418 c 4
 724 417.333007812 747.5 404.666992188 760.5 380 c 4
 773.5 355.333007812 778.333007812 329.333007812 775 302 c 4
 769.666015625 256 749 234.666992188 713 238 c 4
 704.333007812 238.666992188 695.833007812 244.833007812 687.5 256.5 c 4
 679.166015625 268.166992188 678.666015625 281.666992188 686 297 c 4
 692.666015625 312.333007812 700.833007812 320.5 710.5 321.5 c 4
 720.166015625 322.5 727 331 731 347 c 4
 737.666015625 373 725 385 693 383 c 4
 595 377.666992188 520.666015625 371.666992188 470 365 c 4
 419.333007812 358.333007812 371.5 354.5 326.5 353.5 c 4
 281.5 352.5 239.666015625 354.666992188 201 360 c 4
 174.333007812 364 147.166015625 373.166992188 119.5 387.5 c 4
 91.8330078125 401.833007812 73.3330078125 424.333007812 64 455 c 4
 56 482.333007812 56.3330078125 506.666992188 65 528 c 4
EndSplineSet
Validated: 33
EndChar

StartChar: martyriaTetartosIchos
Encoding: 118952 118952 23
Width: 657
VWidth: 345
Flags: W
HStem: 530 71<278.845 366.527>
VStem: 235 30<317.573 514.232> 250 15<254.53 386.596> 366 80<383.659 526.176> 452 83<146.5 352.656>
LayerCount: 2
Fore
SplineSet
177 345 m 4xd8
 151.666992188 327 135 303 127 273 c 4
 121.666992188 249.666992188 121.333007812 227.666992188 126 207 c 4
 131.333007812 185.666992188 154 185.666992188 194 207 c 4
 216.666992188 218.333007812 231.166992188 230 237.5 242 c 4
 243.833007812 254 248 269.5 250 288.5 c 4xb8
 252 307.5 248.333007812 348.666992188 239 412 c 4
 237 424.666992188 235.666992188 446.666992188 235 478 c 4
 235 508 244 537.333007812 262 566 c 4
 272 582 287.666992188 592 309 596 c 4
 329.666992188 599.333007812 347.666992188 601 363 601 c 4
 398.333007812 601 424.333007812 584.333007812 441 551 c 5
 443.666992188 522.333007812 445 500.666992188 445 486 c 4
 444.333007812 468.666992188 444.666992188 452.666992188 446 438 c 5
 446 415.333007812 449.333007812 397 456 383 c 5
 462 375 476.333007812 369.666992188 499 367 c 5
 521.666992188 359 533.666992188 338.333007812 535 305 c 4
 535.666992188 283 535 261.166992188 533 239.5 c 4
 531 217.833007812 531.666992188 196 535 174 c 4
 535.666992188 167.333007812 538.333007812 156 543 140 c 4
 546.333007812 130 558 121.666992188 578 115 c 4
 582.666992188 113.666992188 585.666992188 112.666992188 587 112 c 5
 587 109.333007812 575.166992188 109.5 551.5 112.5 c 4
 527.833007812 115.5 513 118.333007812 507 121 c 4
 479.666992188 133 462.666992188 155 456 187 c 4
 452 207 450.666992188 227.333007812 452 248 c 4
 453.333007812 268.666992188 452 289.333007812 448 310 c 5
 448 336 440 351 424 355 c 5
 409.333007812 356.333007812 395 365.333007812 381 382 c 4
 367.666992188 399.333007812 362.666992188 427.666992188 366 467 c 5
 372.666992188 499 368 518.333007812 352 525 c 4
 346.666992188 527 335 528.666992188 317 530 c 4
 301 530 289 525.666992188 281 517 c 5
 271.666992188 503 267.333007812 487 268 469 c 4
 268 456.333007812 267 437.666992188 265 413 c 5
 267.666992188 355 269.5 310.5 270.5 279.5 c 4
 271.5 248.5 269.333007812 222.5 264 201.5 c 4
 258.666992188 180.5 243.333007812 163.666992188 218 151 c 4
 168.666992188 123.666992188 127.666992188 128.666992188 95 166 c 4
 87.6669921875 176 80 188 72 202 c 5
 65.3330078125 226 64.6669921875 251.666992188 70 279 c 4
 81.3330078125 323.666992188 104 353.666992188 138 369 c 5
 151.333007812 377.666992188 169 383.333007812 191 386 c 5
 202.333007812 385.333007812 212.666992188 383.666992188 222 381 c 5
 240.666992188 373 242.333007812 368.333007812 227 367 c 4
 212.333007812 365 195.666992188 357.666992188 177 345 c 4xd8
EndSplineSet
Validated: 33
EndChar

StartChar: martyriaTetartosLegetosIchos
Encoding: 118953 118953 24
Width: 564
VWidth: 345
Flags: W
VStem: 47 71<493.918 583.062>
LayerCount: 2
Fore
SplineSet
47 533 m 4
 45 559 53.333984375 580 72 596 c 4
 86 606.666992188 110.333984375 610 145 606 c 4
 179.666992188 602 210.333984375 580 237 540 c 5
 388 302 l 6
 388.666992188 301.333007812 394.5 316.5 405.5 347.5 c 4
 416.5 378.5 428.666992188 395.333007812 442 398 c 4
 472.666992188 402.666992188 491.666992188 398.333007812 499 385 c 4
 501.666992188 378.333007812 500.666992188 375.333007812 496 376 c 4
 491.333984375 376.666992188 483.666992188 369.666992188 473 355 c 5
 473 355 473 355 460.5 332.5 c 4
 452.166992188 317.5 446.5 300.666992188 443.5 282 c 4
 440.5 263.333007812 443.5 245.666992188 452.5 229 c 4
 461.5 212.333007812 483.333984375 202 518 198 c 5
 524 183.333007812 513.666992188 178.666992188 487 184 c 4
 468.333984375 188.666992188 448.166992188 199.333007812 426.5 216 c 4
 404.833984375 232.666992188 391 247.666992188 385 261 c 5
 297 395 l 5
 223 191 l 5
 152 192 l 5
 262 447 l 5
 239.333984375 504.333007812 208.833984375 546 170.5 572 c 4
 132.166992188 598 114.666992188 580 118 518 c 4
 118.666992188 505.333007812 108 496.166992188 86 490.5 c 4
 64 484.833007812 51 499 47 533 c 4
EndSplineSet
Validated: 33
EndChar

StartChar: yfesis2.uni
Encoding: 118996 118996 25
Width: 0
Flags: W
HStem: 286 25<-45.9977 44.8165> 492 24<-43.9577 43.7252>
VStem: -116 26<354.237 447.208> 89 25<355.538 446.897>
LayerCount: 2
Fore
SplineSet
-74 313 m 1
 -176 212 l 1
 -187 199 l 2
 -193.666992188 191.666992188 -200.333007812 191.333007812 -207 198 c 0
 -213.666992188 204.666992188 -213.666992188 212 -207 220 c 2
 -178 247 l 1
 -91 331 l 1
 -107 351.666992188 -115.333007812 375 -116 401 c 0
 -116 432.333007812 -104.5 459.333007812 -81.5 482 c 0
 -58.5 504.666992188 -31.3330078125 516 0 516 c 0
 31.3330078125 516 58.1669921875 504.833007812 80.5 482.5 c 0
 102.833007812 460.166992188 114 433 114 401 c 256
 114 369.666992188 102.833007812 342.666992188 80.5 320 c 0
 58.1669921875 297.333007812 31.3330078125 286 0 286 c 0
 -28 286 -52.6669921875 295 -74 313 c 1
0 492 m 256
 -24.6669921875 492 -45.8330078125 483 -63.5 465 c 0
 -81.1669921875 447 -90 425.666992188 -90 401 c 256
 -90 376.333007812 -81.3330078125 355.166992188 -64 337.5 c 0
 -46.6669921875 319.833007812 -25.3330078125 311 0 311 c 256
 24.6669921875 311 45.6669921875 319.833007812 63 337.5 c 0
 80.3330078125 355.166992188 89 376.333007812 89 401 c 256
 89 425.666992188 80.3330078125 447 63 465 c 0
 45.6669921875 483 24.6669921875 492 0 492 c 256
EndSplineSet
Validated: 524289
EndChar

StartChar: diesis2.uni
Encoding: 118992 118992 26
Width: 0
Flags: W
HStem: 290 24<-63.637 25.8165> 492 25<-64.3935 27.4842>
VStem: -132 25<357.169 448.582> 70 25<357.169 448.65>
LayerCount: 2
Fore
SplineSet
54 491 m 1
 154 591 l 1
 166 604 l 2
 172.666992188 610.666992188 179.333007812 610.666992188 186 604 c 0
 192.666992188 597.333007812 192.333007812 590.333007812 185 583 c 2
 157 556 l 1
 71 473 l 1
 86.3330078125 452.333007812 94.3330078125 429 95 403 c 0
 95 371.666992188 83.8330078125 345 61.5 323 c 0
 39.1669921875 301 12.3330078125 290 -19 290 c 0
 -50.3330078125 290 -77 301 -99 323 c 0
 -121 345 -132 371.666992188 -132 403 c 0
 -132 433.666992188 -120.833007812 460.333007812 -98.5 483 c 0
 -76.1669921875 505.666992188 -49.6669921875 517 -19 517 c 0
 8.3330078125 517 32.6669921875 508.333007812 54 491 c 1
-19 314 m 0
 5.6669921875 314 26.6669921875 322.666992188 44 340 c 0
 61.3330078125 357.333007812 70 378.333007812 70 403 c 0
 70 427.666992188 61.5 448.666992188 44.5 466 c 0
 27.5 483.333007812 6.3330078125 492 -19 492 c 0
 -43.6669921875 492 -64.5 483.333007812 -81.5 466 c 0
 -98.5 448.666992188 -107 427.666992188 -107 403 c 0
 -107 378.333007812 -98.5 357.333007812 -81.5 340 c 0
 -64.5 322.666992188 -43.6669921875 314 -19 314 c 0
EndSplineSet
Validated: 524289
EndChar

StartChar: kentimaMeso
Encoding: 119025 119025 27
Width: 279
VWidth: 345
Flags: W
HStem: 418 29<-41.6787 0.88916>
VStem: -42 303
LayerCount: 2
Fore
SplineSet
-21 447 m 0
 1.66666666667 447 25.5 446.666666667 50.5 446 c 0
 75.5 445.333333333 98 443.666666667 118 441 c 1
 132 441 147.5 413.333333333 164.5 358 c 0
 181.5 302.666666667 201.666666667 254.333333333 225 213 c 0
 233 199 240.333333333 191 247 189 c 0
 253 187 257.666666667 183.666666667 261 179 c 0
 264.333333333 174.333333333 261 170 251 166 c 1
 227.666666667 162 204.333333333 160.166666667 181 160.5 c 0
 157.666666667 160.833333333 135 162.666666667 113 166 c 1
 93 174 76.5 199.5 63.5 242.5 c 0
 50.5 285.5 32.3333333333 336 9 394 c 0
 7 397.333333333 3 401.833333333 -3 407.5 c 0
 -9 413.166666667 -16 416.666666667 -24 418 c 0
 -34.6666666667 420 -40.6666666667 425.333333333 -42 434 c 0
 -43.3333333333 442.666666667 -36.3333333333 447 -21 447 c 0
EndSplineSet
Validated: 33
EndChar

StartChar: kentimaKato
Encoding: 119027 119027 28
Width: 279
VWidth: 345
Flags: W
HStem: 418 29<-41.6787 0.88916>
VStem: -42 303
LayerCount: 2
Fore
SplineSet
-21 447 m 0
 1.66666666667 447 25.5 446.666666667 50.5 446 c 0
 75.5 445.333333333 98 443.666666667 118 441 c 1
 132 441 147.5 413.333333333 164.5 358 c 0
 181.5 302.666666667 201.666666667 254.333333333 225 213 c 0
 233 199 240.333333333 191 247 189 c 0
 253 187 257.666666667 183.666666667 261 179 c 0
 264.333333333 174.333333333 261 170 251 166 c 1
 227.666666667 162 204.333333333 160.166666667 181 160.5 c 0
 157.666666667 160.833333333 135 162.666666667 113 166 c 1
 93 174 76.5 199.5 63.5 242.5 c 0
 50.5 285.5 32.3333333333 336 9 394 c 0
 7 397.333333333 3 401.833333333 -3 407.5 c 0
 -9 413.166666667 -16 416.666666667 -24 418 c 0
 -34.6666666667 420 -40.6666666667 425.333333333 -42 434 c 0
 -43.3333333333 442.666666667 -36.3333333333 447 -21 447 c 0
EndSplineSet
Validated: 33
EndChar

StartChar: kentimataKato
Encoding: 119026 119026 29
Width: 738
VWidth: 345
Flags: W
HStem: 423 29<85.7838 128.574 394.26 436.917>
LayerCount: 2
Fore
SplineSet
107 452 m 4
 129.666666667 452 153.666666667 451.666666667 179 451 c 4
 204.333333333 450.333333333 227 448.333333333 247 445 c 5
 261 445 276.5 417.5 293.5 362.5 c 4
 310.5 307.5 330.666666667 259.333333333 354 218 c 4
 362 204 369.333333333 196 376 194 c 4
 382 192 386.666666667 188.5 390 183.5 c 4
 393.333333333 178.5 390 174 380 170 c 5
 356.666666667 166 333.166666667 164.333333333 309.5 165 c 4
 285.833333333 165.666666667 263.333333333 167.333333333 242 170 c 5
 222 178 205.5 203.666666667 192.5 247 c 4
 179.5 290.333333333 161.333333333 340.666666667 138 398 c 4
 136 401.333333333 131.833333333 405.833333333 125.5 411.5 c 4
 119.166666667 417.166666667 112 421 104 423 c 4
 93.3333333333 425 87.1666666667 430.166666667 85.5 438.5 c 4
 83.8333333333 446.833333333 91 451.333333333 107 452 c 4
416 452 m 4
 438.666666667 452 462.5 451.666666667 487.5 451 c 4
 512.5 450.333333333 535.333333333 448.333333333 556 445 c 5
 570 445 585.333333333 417.5 602 362.5 c 4
 618.666666667 307.5 639 259.333333333 663 218 c 4
 671 204 678.333333333 196 685 194 c 4
 691 192 695.5 188.5 698.5 183.5 c 4
 701.5 178.5 698 174 688 170 c 5
 664.666666667 166 641.333333333 164.333333333 618 165 c 4
 594.666666667 165.666666667 572.333333333 167.333333333 551 170 c 5
 531 178 514.333333333 203.666666667 501 247 c 4
 487.666666667 290.333333333 469.333333333 340.666666667 446 398 c 4
 444 401.333333333 440 405.833333333 434 411.5 c 4
 428 417.166666667 420.666666667 421 412 423 c 4
 401.333333333 425 395.333333333 430.166666667 394 438.5 c 4
 392.666666667 446.833333333 400 451.333333333 416 452 c 4
EndSplineSet
Validated: 33
EndChar

StartChar: klasmaKato.uni
Encoding: 119028 119028 30
Width: 4
VWidth: 345
Flags: W
LayerCount: 2
Fore
SplineSet
-204.377929688 768 m 0
 -198.377929688 765.333007812 -191.7109375 761.166992188 -184.377929688 755.5 c 0
 -177.044921875 749.833007812 -171.044921875 745.333007812 -166.377929688 742 c 0
 -138.377929688 722.666992188 -113.377929688 706.166992188 -91.3779296875 692.5 c 0
 -69.3779296875 678.833007812 -42.7109375 669 -11.3779296875 663 c 0
 3.955078125 660.333007812 20.6220703125 659.5 38.6220703125 660.5 c 0
 56.6220703125 661.5 68.955078125 663.666992188 75.6220703125 667 c 0
 94.955078125 673.666992188 105.455078125 685.5 107.122070312 702.5 c 0
 108.7890625 719.5 106.955078125 733.333007812 101.622070312 744 c 0
 97.6220703125 751.333007812 96.1220703125 759.5 97.1220703125 768.5 c 0
 98.1220703125 777.5 102.622070312 782.666992188 110.622070312 784 c 1
 145.955078125 781.333007812 175.622070312 770.5 199.622070312 751.5 c 0
 223.622070312 732.5 236.2890625 715.666992188 237.622070312 701 c 1
 237.622070312 693 l 2
 237.622070312 681 231.2890625 666.333007812 218.622070312 649 c 0
 205.955078125 631.666992188 185.955078125 619.666992188 158.622070312 613 c 0
 93.955078125 598.333007812 30.6220703125 603 -31.3779296875 627 c 0
 -66.7109375 641 -101.044921875 657 -134.377929688 675 c 0
 -167.7109375 693 -198.044921875 713 -225.377929688 735 c 0
 -234.044921875 741.666992188 -235.877929688 750.333007812 -230.877929688 761 c 0
 -225.877929688 771.666992188 -217.044921875 774 -204.377929688 768 c 0
EndSplineSet
Validated: 524321
EndChar

StartChar: gorgonKato.uni
Encoding: 119029 119029 31
Width: 0
Flags: W
HStem: 183.5 38<-90.5 156.174>
VStem: -154.5 66.5<34.5 183.5>
LayerCount: 2
Fore
SplineSet
-143.5 221.5 m 0
 -94.1669921875 221.5 -44.6669921875 221.666992188 5 222 c 0
 54.6669921875 222.333007812 103.833007812 222.833007812 152.5 223.5 c 1
 155.833007812 218.833007812 157.166992188 212.833007812 156.5 205.5 c 0
 155.833007812 198.166992188 154.833007812 191.833007812 153.5 186.5 c 1
 143.5 184.5 110.666992188 183.5 55 183.5 c 0
 -28.5 183.5 -28.5 183.5 -90.5 183.5 c 1
 -90.5 148.833007812 -89.6669921875 113.5 -88 77.5 c 0
 -86.3330078125 41.5 -87.5 23.1669921875 -91.5 22.5 c 0
 -101.5 22.5 -112.333007812 21.6669921875 -124 20 c 0
 -135.666992188 18.3330078125 -145.833007812 19.1669921875 -154.5 22.5 c 0
 -155.166992188 22.5 -155.833007812 25.8330078125 -156.5 32.5 c 0
 -156.5 32.5 -156.5 32.5 -155.5 33.5 c 0
 -154.5 34.5 -154.5 34.5 -154.5 34.5 c 0
 -154.5 69.8330078125 -154.333007812 98.5 -154 120.5 c 0
 -153.666992188 142.5 -153.5 170.833007812 -153.5 205.5 c 0
 -153.5 215.5 -150.166992188 220.833007812 -143.5 221.5 c 0
EndSplineSet
Validated: 524321
EndChar

StartChar: kentimataMeso
Encoding: 119024 119024 32
Width: 738
VWidth: 345
Flags: W
HStem: 423 29<85.7838 128.574 394.26 436.917>
LayerCount: 2
Fore
SplineSet
107 452 m 4
 129.666666667 452 153.666666667 451.666666667 179 451 c 4
 204.333333333 450.333333333 227 448.333333333 247 445 c 5
 261 445 276.5 417.5 293.5 362.5 c 4
 310.5 307.5 330.666666667 259.333333333 354 218 c 4
 362 204 369.333333333 196 376 194 c 4
 382 192 386.666666667 188.5 390 183.5 c 4
 393.333333333 178.5 390 174 380 170 c 5
 356.666666667 166 333.166666667 164.333333333 309.5 165 c 4
 285.833333333 165.666666667 263.333333333 167.333333333 242 170 c 5
 222 178 205.5 203.666666667 192.5 247 c 4
 179.5 290.333333333 161.333333333 340.666666667 138 398 c 4
 136 401.333333333 131.833333333 405.833333333 125.5 411.5 c 4
 119.166666667 417.166666667 112 421 104 423 c 4
 93.3333333333 425 87.1666666667 430.166666667 85.5 438.5 c 4
 83.8333333333 446.833333333 91 451.333333333 107 452 c 4
416 452 m 4
 438.666666667 452 462.5 451.666666667 487.5 451 c 4
 512.5 450.333333333 535.333333333 448.333333333 556 445 c 5
 570 445 585.333333333 417.5 602 362.5 c 4
 618.666666667 307.5 639 259.333333333 663 218 c 4
 671 204 678.333333333 196 685 194 c 4
 691 192 695.5 188.5 698.5 183.5 c 4
 701.5 178.5 698 174 688 170 c 5
 664.666666667 166 641.333333333 164.333333333 618 165 c 4
 594.666666667 165.666666667 572.333333333 167.333333333 551 170 c 5
 531 178 514.333333333 203.666666667 501 247 c 4
 487.666666667 290.333333333 469.333333333 340.666666667 446 398 c 4
 444 401.333333333 440 405.833333333 434 411.5 c 4
 428 417.166666667 420.666666667 421 412 423 c 4
 401.333333333 425 395.333333333 430.166666667 394 438.5 c 4
 392.666666667 446.833333333 400 451.333333333 416 452 c 4
EndSplineSet
Validated: 33
EndChar

StartChar: ison
Encoding: 57344 57344 33
Width: 1524
VWidth: 345
Flags: W
HStem: 246 123<1036.67 1330.87>
AnchorPoint: "diesis" 400 133 basechar 0
AnchorPoint: "yfesis" 1316 619 basechar 0
AnchorPoint: "psifiston" 840 113 basechar 0
AnchorPoint: "klasma-top" 793 487 basechar 0
AnchorPoint: "gorgon-top" 786 505 basechar 0
LayerCount: 2
Fore
SplineSet
108 443 m 1
 82.6666666667 489 75.8333333333 528.5 87.5 561.5 c 0
 99.1666666667 594.5 120 612 150 614 c 0
 169.333333333 615.333333333 184.166666667 613.833333333 194.5 609.5 c 0
 204.833333333 605.166666667 213.833333333 600.833333333 221.5 596.5 c 0
 229.166666667 592.166666667 236.5 587.5 243.5 582.5 c 0
 250.5 577.5 257.166666667 572.333333333 263.5 567 c 0
 269.833333333 561.666666667 274.166666667 556.833333333 276.5 552.5 c 0
 278.833333333 548.166666667 279.833333333 544.166666667 279.5 540.5 c 0
 279.166666667 536.833333333 277.833333333 534.333333333 275.5 533 c 0
 273.166666667 531.666666667 266.166666667 528.666666667 254.5 524 c 0
 242.833333333 519.333333333 227.666666667 511.833333333 209 501.5 c 0
 190.333333333 491.166666667 181.333333333 473.666666667 182 449 c 0
 182 423.666666667 208.333333333 399.833333333 261 377.5 c 0
 313.666666667 355.166666667 392 346 496 350 c 1
 1230 369 l 2
 1252 369 1269.66666667 367.5 1283 364.5 c 0
 1296.33333333 361.5 1308.16666667 357.666666667 1318.5 353 c 0
 1328.83333333 348.333333333 1337.83333333 343.833333333 1345.5 339.5 c 0
 1353.16666667 335.166666667 1362 328.5 1372 319.5 c 0
 1382 310.5 1393.5 299 1406.5 285 c 0
 1419.5 271 1428 260.666666667 1432 254 c 0
 1436 247.333333333 1438 240.833333333 1438 234.5 c 0
 1438 228.166666667 1436 224 1432 222 c 0
 1428 220 1423.66666667 219 1419 219 c 0
 1414.33333333 219 1409.33333333 220 1404 222 c 0
 1398.66666667 224 1392.16666667 226.333333333 1384.5 229 c 0
 1376.83333333 231.666666667 1368.33333333 234.333333333 1359 237 c 0
 1349.66666667 239.666666667 1341 241.666666667 1333 243 c 0
 1325 244.333333333 1314 245.333333333 1300 246 c 2
 905 252 l 2
 843.666666667 252 779.166666667 254.5 711.5 259.5 c 0
 643.833333333 264.5 580 271 520 279 c 0
 460 287 407.333333333 295.666666667 362 305 c 0
 316.666666667 314.333333333 285.666666667 322 269 328 c 0
 240.333333333 340 214.833333333 351.833333333 192.5 363.5 c 0
 170.166666667 375.166666667 142 401.666666667 108 443 c 1
EndSplineSet
Validated: 1572897
LCarets2: 1 0
EndChar

StartChar: oligon_kentimaKato
Encoding: 57347 57347 34
Width: 1515
VWidth: 345
Flags: W
HStem: -17 19<1105.37 1132.84> 157 23<841.865 886.411> 246 121<182.719 1326.04>
AnchorPoint: "diesis" 400 133 basechar 0
AnchorPoint: "yfesis" 1316 619 basechar 0
AnchorPoint: "klasma-top" 793 487 basechar 0
AnchorPoint: "gorgon-top" 780 459 basechar 0
AnchorPoint: "psifiston" 840 113 basechar 0
LayerCount: 2
Fore
SplineSet
863 180 m 0
 885.666666667 180 909.666666667 179.833333333 935 179.5 c 0
 960.333333333 179.166666667 983 177.666666667 1003 175 c 1
 1017 175 1030.33333333 158 1043 124 c 0
 1055.66666667 90 1073.66666667 56 1097 22 c 0
 1105 10 1112.33333333 3.33333333333 1119 2 c 0
 1125 0.666666666667 1129.66666667 -2 1133 -6 c 0
 1136.33333333 -10 1133 -13.6666666667 1123 -17 c 1
 1099.66666667 -20.3333333333 1076.16666667 -21.6666666667 1052.5 -21 c 0
 1028.83333333 -20.3333333333 1006.33333333 -19 985 -17 c 1
 965 -10.3333333333 950.666666667 5.16666666667 942 29.5 c 0
 933.333333333 53.8333333333 917.333333333 89.6666666667 894 137 c 1
 886.666666667 148.333333333 875.333333333 155 860 157 c 0
 849.333333333 158.333333333 843.166666667 162.5 841.5 169.5 c 0
 839.833333333 176.5 847 180 863 180 c 0
85 384 m 0
 88.3333333333 389.333333333 92.1666666667 392.166666667 96.5 392.5 c 0
 100.833333333 392.833333333 105.333333333 391.666666667 110 389 c 0
 114.666666667 386.333333333 120.666666667 383.166666667 128 379.5 c 0
 135.333333333 375.833333333 144.666666667 372.833333333 156 370.5 c 0
 167.333333333 368.166666667 183.333333333 367 204 367 c 2
 1228 367 l 2
 1246.66666667 367 1263.66666667 365.5 1279 362.5 c 0
 1294.33333333 359.5 1308.33333333 354.666666667 1321 348 c 0
 1333.66666667 341.333333333 1343.5 335.333333333 1350.5 330 c 0
 1357.5 324.666666667 1367 315.5 1379 302.5 c 0
 1391 289.5 1401.5 277 1410.5 265 c 0
 1419.5 253 1421.33333333 241.333333333 1416 230 c 1
 1410.66666667 222 1404.5 220.333333333 1397.5 225 c 0
 1390.5 229.666666667 1382.33333333 233.666666667 1373 237 c 0
 1363.66666667 240.333333333 1353.5 242.666666667 1342.5 244 c 0
 1331.5 245.333333333 1314.33333333 246 1291 246 c 2
 282 246 l 2
 266.666666667 246 252.666666667 247 240 249 c 0
 227.333333333 251 217.5 253.166666667 210.5 255.5 c 0
 203.5 257.833333333 196 261 188 265 c 0
 180 269 171.5 273.833333333 162.5 279.5 c 0
 153.5 285.166666667 144 293.166666667 134 303.5 c 0
 124 313.833333333 113.833333333 325.833333333 103.5 339.5 c 0
 93.1666666667 353.166666667 86.6666666667 362.666666667 84 368 c 0
 81.3333333333 373.333333333 81.6666666667 378.666666667 85 384 c 0
EndSplineSet
Validated: 1572897
EndChar

StartChar: oligon
Encoding: 57345 57345 35
Width: 1515
VWidth: 345
Flags: W
HStem: 246 121<182.719 1326.04>
AnchorPoint: "diesis" 400 133 basechar 0
AnchorPoint: "yfesis" 1316 619 basechar 0
AnchorPoint: "klasma-top" 793 487 basechar 0
AnchorPoint: "psifiston" 840 113 basechar 0
AnchorPoint: "gorgon-top" 780 459 basechar 0
LayerCount: 2
Fore
SplineSet
85 384 m 0
 88.3333333333 389.333333333 92.1666666667 392.166666667 96.5 392.5 c 0
 100.833333333 392.833333333 105.333333333 391.666666667 110 389 c 0
 114.666666667 386.333333333 120.666666667 383.166666667 128 379.5 c 0
 135.333333333 375.833333333 144.666666667 372.833333333 156 370.5 c 0
 167.333333333 368.166666667 183.333333333 367 204 367 c 2
 1228 367 l 2
 1246.66666667 367 1263.66666667 365.5 1279 362.5 c 0
 1294.33333333 359.5 1308.33333333 354.666666667 1321 348 c 0
 1333.66666667 341.333333333 1343.5 335.333333333 1350.5 330 c 0
 1357.5 324.666666667 1367 315.5 1379 302.5 c 0
 1391 289.5 1401.5 277 1410.5 265 c 0
 1419.5 253 1421.33333333 241.333333333 1416 230 c 1
 1410.66666667 222 1404.5 220.333333333 1397.5 225 c 0
 1390.5 229.666666667 1382.33333333 233.666666667 1373 237 c 0
 1363.66666667 240.333333333 1353.5 242.666666667 1342.5 244 c 0
 1331.5 245.333333333 1314.33333333 246 1291 246 c 2
 282 246 l 2
 266.666666667 246 252.666666667 247 240 249 c 0
 227.333333333 251 217.5 253.166666667 210.5 255.5 c 0
 203.5 257.833333333 196 261 188 265 c 0
 180 269 171.5 273.833333333 162.5 279.5 c 0
 153.5 285.166666667 144 293.166666667 134 303.5 c 0
 124 313.833333333 113.833333333 325.833333333 103.5 339.5 c 0
 93.1666666667 353.166666667 86.6666666667 362.666666667 84 368 c 0
 81.3333333333 373.333333333 81.6666666667 378.666666667 85 384 c 0
EndSplineSet
Validated: 1572897
EndChar

StartChar: uniE004
Encoding: 57348 57348 36
Width: 1515
VWidth: 345
Flags: W
HStem: 246 121<182.719 1326.04> 755 28<571.906 614.043>
AnchorPoint: "diesis" 400 133 basechar 0
AnchorPoint: "yfesis" 1316 619 basechar 0
AnchorPoint: "klasma-top" 383 487 basechar 0
AnchorPoint: "klasma-bottom" 785 160 basechar 0
AnchorPoint: "gorgon-top" 1138 471 basechar 0
AnchorPoint: "psifiston" 840 113 basechar 0
LayerCount: 2
Fore
SplineSet
593 783 m 0
 615.666666667 783 639.666666667 782.833333333 665 782.5 c 0
 690.333333333 782.166666667 713 780.333333333 733 777 c 1
 747 777 762.5 749.5 779.5 694.5 c 0
 796.5 639.5 816.666666667 591 840 549 c 0
 848 535 855.333333333 527.333333333 862 526 c 0
 868 524 872.5 520.5 875.5 515.5 c 0
 878.5 510.5 875.333333333 506 866 502 c 1
 842.666666667 498 819.166666667 496.333333333 795.5 497 c 0
 771.833333333 497.666666667 749.333333333 499.333333333 728 502 c 1
 708 510 691.5 535.5 678.5 578.5 c 0
 665.5 621.5 647.333333333 672 624 730 c 0
 622 733.333333333 617.833333333 737.833333333 611.5 743.5 c 0
 605.166666667 749.166666667 598 753 590 755 c 0
 579.333333333 757 573.166666667 762.166666667 571.5 770.5 c 0
 569.833333333 778.833333333 577 783 593 783 c 0
85 384 m 0
 88.3333333333 389.333333333 92.1666666667 392.166666667 96.5 392.5 c 0
 100.833333333 392.833333333 105.333333333 391.666666667 110 389 c 0
 114.666666667 386.333333333 120.666666667 383.166666667 128 379.5 c 0
 135.333333333 375.833333333 144.666666667 372.833333333 156 370.5 c 0
 167.333333333 368.166666667 183.333333333 367 204 367 c 2
 1228 367 l 2
 1246.66666667 367 1263.66666667 365.5 1279 362.5 c 0
 1294.33333333 359.5 1308.33333333 354.666666667 1321 348 c 0
 1333.66666667 341.333333333 1343.5 335.333333333 1350.5 330 c 0
 1357.5 324.666666667 1367 315.5 1379 302.5 c 0
 1391 289.5 1401.5 277 1410.5 265 c 0
 1419.5 253 1421.33333333 241.333333333 1416 230 c 1
 1410.66666667 222 1404.5 220.333333333 1397.5 225 c 0
 1390.5 229.666666667 1382.33333333 233.666666667 1373 237 c 0
 1363.66666667 240.333333333 1353.5 242.666666667 1342.5 244 c 0
 1331.5 245.333333333 1314.33333333 246 1291 246 c 2
 282 246 l 2
 266.666666667 246 252.666666667 247 240 249 c 0
 227.333333333 251 217.5 253.166666667 210.5 255.5 c 0
 203.5 257.833333333 196 261 188 265 c 0
 180 269 171.5 273.833333333 162.5 279.5 c 0
 153.5 285.166666667 144 293.166666667 134 303.5 c 0
 124 313.833333333 113.833333333 325.833333333 103.5 339.5 c 0
 93.1666666667 353.166666667 86.6666666667 362.666666667 84 368 c 0
 81.3333333333 373.333333333 81.6666666667 378.666666667 85 384 c 0
EndSplineSet
Validated: 1572897
EndChar

StartChar: uniE005
Encoding: 57349 57349 37
Width: 1515
VWidth: 345
Flags: W
HStem: 246 121<182.719 1326.04> 595 22<987.535 1066.59> 1132 31<1403.3 1440.93>
AnchorPoint: "diesis" 400 133 basechar 0
AnchorPoint: "yfesis" 1316 619 basechar 0
AnchorPoint: "klasma-top" 433 480 basechar 0
AnchorPoint: "klasma-bottom" 785 160 basechar 0
AnchorPoint: "gorgon-top" 708 459 basechar 0
AnchorPoint: "psifiston" 840 113 basechar 0
LayerCount: 2
Fore
SplineSet
1427 1163 m 1
 1437.66666667 1161 1442.33333333 1155.5 1441 1146.5 c 0
 1439.66666667 1137.5 1433 1132.66666667 1421 1132 c 1
 1407 1127.33333333 1395.83333333 1109.66666667 1387.5 1079 c 0
 1379.16666667 1048.33333333 1370 1016 1360 982 c 0
 1337.33333333 902.666666667 1316.66666667 838.333333333 1298 789 c 0
 1279.33333333 739.666666667 1261.66666667 705.166666667 1245 685.5 c 0
 1228.33333333 665.833333333 1208.33333333 650.666666667 1185 640 c 0
 1149 624.666666667 1113.33333333 613.333333333 1078 606 c 0
 1042.66666667 598.666666667 1012.33333333 595 987 595 c 1
 999.666666667 565 1021 544 1051 532 c 0
 1081 520 1089.66666667 507.333333333 1077 494 c 0
 1069.66666667 486.666666667 1046.5 496.333333333 1007.5 523 c 0
 968.5 549.666666667 942 576 928 602 c 1
 928 618.666666667 934.666666667 625.666666667 948 623 c 0
 961.333333333 620.333333333 976 618.333333333 992 617 c 256
 1007.33333333 616.333333333 1023.16666667 617.333333333 1039.5 620 c 0
 1055.83333333 622.666666667 1077.66666667 631 1105 645 c 0
 1118.33333333 651.666666667 1131 666.833333333 1143 690.5 c 0
 1155 714.166666667 1165.66666667 740.333333333 1175 769 c 0
 1184.33333333 797.666666667 1192.33333333 826.166666667 1199 854.5 c 0
 1205.66666667 882.833333333 1214.5 923.666666667 1225.5 977 c 0
 1236.5 1030.33333333 1246 1066 1254 1084 c 0
 1262 1102 1273.16666667 1116.66666667 1287.5 1128 c 0
 1301.83333333 1139.33333333 1315.5 1146.66666667 1328.5 1150 c 0
 1341.5 1153.33333333 1355.83333333 1155.66666667 1371.5 1157 c 0
 1387.16666667 1158.33333333 1405.66666667 1160.33333333 1427 1163 c 1
85 384 m 0
 88.3333333333 389.333333333 92.1666666667 392.166666667 96.5 392.5 c 0
 100.833333333 392.833333333 105.333333333 391.666666667 110 389 c 0
 114.666666667 386.333333333 120.666666667 383.166666667 128 379.5 c 0
 135.333333333 375.833333333 144.666666667 372.833333333 156 370.5 c 0
 167.333333333 368.166666667 183.333333333 367 204 367 c 2
 1228 367 l 2
 1246.66666667 367 1263.66666667 365.5 1279 362.5 c 0
 1294.33333333 359.5 1308.33333333 354.666666667 1321 348 c 0
 1333.66666667 341.333333333 1343.5 335.333333333 1350.5 330 c 0
 1357.5 324.666666667 1367 315.5 1379 302.5 c 0
 1391 289.5 1401.5 277 1410.5 265 c 0
 1419.5 253 1421.33333333 241.333333333 1416 230 c 1
 1410.66666667 222 1404.5 220.333333333 1397.5 225 c 0
 1390.5 229.666666667 1382.33333333 233.666666667 1373 237 c 0
 1363.66666667 240.333333333 1353.5 242.666666667 1342.5 244 c 0
 1331.5 245.333333333 1314.33333333 246 1291 246 c 2
 282 246 l 2
 266.666666667 246 252.666666667 247 240 249 c 0
 227.333333333 251 217.5 253.166666667 210.5 255.5 c 0
 203.5 257.833333333 196 261 188 265 c 0
 180 269 171.5 273.833333333 162.5 279.5 c 0
 153.5 285.166666667 144 293.166666667 134 303.5 c 0
 124 313.833333333 113.833333333 325.833333333 103.5 339.5 c 0
 93.1666666667 353.166666667 86.6666666667 362.666666667 84 368 c 0
 81.3333333333 373.333333333 81.6666666667 378.666666667 85 384 c 0
EndSplineSet
Validated: 1572897
EndChar

StartChar: uniE006
Encoding: 57350 57350 38
Width: 1515
VWidth: 345
Flags: W
HStem: 246 121<182.719 1326.04> 595 22<220.709 300.106> 1132 31<636.32 674.933>
AnchorPoint: "diesis" 400 133 basechar 0
AnchorPoint: "yfesis" 1316 619 basechar 0
AnchorPoint: "klasma-top" 1040 500 basechar 0
AnchorPoint: "klasma-bottom" 785 160 basechar 0
AnchorPoint: "gorgon-top" 1102 457 basechar 0
AnchorPoint: "psifiston" 840 113 basechar 0
LayerCount: 2
Fore
SplineSet
85 384 m 0
 88.3333333333 389.333333333 92.1666666667 392.166666667 96.5 392.5 c 0
 100.833333333 392.833333333 105.333333333 391.666666667 110 389 c 0
 114.666666667 386.333333333 120.666666667 383.166666667 128 379.5 c 0
 135.333333333 375.833333333 144.666666667 372.833333333 156 370.5 c 0
 167.333333333 368.166666667 183.333333333 367 204 367 c 2
 1228 367 l 2
 1246.66666667 367 1263.66666667 365.5 1279 362.5 c 0
 1294.33333333 359.5 1308.33333333 354.666666667 1321 348 c 0
 1333.66666667 341.333333333 1343.5 335.333333333 1350.5 330 c 0
 1357.5 324.666666667 1367 315.5 1379 302.5 c 0
 1391 289.5 1401.5 277 1410.5 265 c 0
 1419.5 253 1421.33333333 241.333333333 1416 230 c 1
 1410.66666667 222 1404.5 220.333333333 1397.5 225 c 0
 1390.5 229.666666667 1382.33333333 233.666666667 1373 237 c 0
 1363.66666667 240.333333333 1353.5 242.666666667 1342.5 244 c 0
 1331.5 245.333333333 1314.33333333 246 1291 246 c 2
 282 246 l 2
 266.666666667 246 252.666666667 247 240 249 c 0
 227.333333333 251 217.5 253.166666667 210.5 255.5 c 0
 203.5 257.833333333 196 261 188 265 c 0
 180 269 171.5 273.833333333 162.5 279.5 c 0
 153.5 285.166666667 144 293.166666667 134 303.5 c 0
 124 313.833333333 113.833333333 325.833333333 103.5 339.5 c 0
 93.1666666667 353.166666667 86.6666666667 362.666666667 84 368 c 0
 81.3333333333 373.333333333 81.6666666667 378.666666667 85 384 c 0
661 1163 m 1
 671.666666667 1161 676.333333333 1155.5 675 1146.5 c 0
 673.666666667 1137.5 666.666666667 1132.66666667 654 1132 c 1
 640 1127.33333333 628.833333333 1109.66666667 620.5 1079 c 0
 612.166666667 1048.33333333 603 1016 593 982 c 0
 570.333333333 902.666666667 549.666666667 838.333333333 531 789 c 0
 512.333333333 739.666666667 494.666666667 705.166666667 478 685.5 c 0
 461.333333333 665.833333333 441.333333333 650.666666667 418 640 c 0
 382 624.666666667 346.5 613.333333333 311.5 606 c 0
 276.5 598.666666667 246 595 220 595 c 1
 232.666666667 565 254 544 284 532 c 0
 314 520 322.666666667 507.333333333 310 494 c 0
 302.666666667 486.666666667 279.666666667 496.333333333 241 523 c 0
 202.333333333 549.666666667 175.666666667 576 161 602 c 1
 161 618.666666667 167.833333333 625.666666667 181.5 623 c 0
 195.166666667 620.333333333 209.666666667 618.333333333 225 617 c 256
 240.333333333 616.333333333 256.166666667 617.333333333 272.5 620 c 0
 288.833333333 622.666666667 310.666666667 631 338 645 c 0
 351.333333333 651.666666667 364 666.833333333 376 690.5 c 0
 388 714.166666667 398.833333333 740.333333333 408.5 769 c 0
 418.166666667 797.666666667 426.333333333 826.166666667 433 854.5 c 0
 439.666666667 882.833333333 448.5 923.666666667 459.5 977 c 0
 470.5 1030.33333333 479.833333333 1066 487.5 1084 c 0
 495.166666667 1102 506.166666667 1116.66666667 520.5 1128 c 0
 534.833333333 1139.33333333 548.5 1146.66666667 561.5 1150 c 0
 574.5 1153.33333333 589 1155.66666667 605 1157 c 0
 621 1158.33333333 639.666666667 1160.33333333 661 1163 c 1
EndSplineSet
Validated: 1572897
EndChar

StartChar: uniE007
Encoding: 57351 57351 39
Width: 1515
VWidth: 345
Flags: W
HStem: 246 121<182.719 1326.04> 595 22<987.535 1066.59> 755 28<571.906 614.043> 1132 31<1403.3 1440.93>
AnchorPoint: "diesis" 400 133 basechar 0
AnchorPoint: "yfesis" 1316 619 basechar 0
AnchorPoint: "klasma-top" 353 487 basechar 0
AnchorPoint: "klasma-bottom" 785 160 basechar 0
AnchorPoint: "gorgon-top" 708 839 basechar 0
AnchorPoint: "psifiston" 840 113 basechar 0
LayerCount: 2
Fore
SplineSet
593 783 m 0
 615.666666667 783 639.666666667 782.833333333 665 782.5 c 0
 690.333333333 782.166666667 713 780.333333333 733 777 c 1
 747 777 762.5 749.5 779.5 694.5 c 0
 796.5 639.5 816.666666667 591 840 549 c 0
 848 535 855.333333333 527.333333333 862 526 c 0
 868 524 872.5 520.5 875.5 515.5 c 0
 878.5 510.5 875.333333333 506 866 502 c 1
 842.666666667 498 819.166666667 496.333333333 795.5 497 c 0
 771.833333333 497.666666667 749.333333333 499.333333333 728 502 c 1
 708 510 691.5 535.5 678.5 578.5 c 0
 665.5 621.5 647.333333333 672 624 730 c 0
 622 733.333333333 617.833333333 737.833333333 611.5 743.5 c 0
 605.166666667 749.166666667 598 753 590 755 c 0
 579.333333333 757 573.166666667 762.166666667 571.5 770.5 c 0
 569.833333333 778.833333333 577 783 593 783 c 0
85 384 m 0
 88.3333333333 389.333333333 92.1666666667 392.166666667 96.5 392.5 c 0
 100.833333333 392.833333333 105.333333333 391.666666667 110 389 c 0
 114.666666667 386.333333333 120.666666667 383.166666667 128 379.5 c 0
 135.333333333 375.833333333 144.666666667 372.833333333 156 370.5 c 0
 167.333333333 368.166666667 183.333333333 367 204 367 c 2
 1228 367 l 2
 1246.66666667 367 1263.66666667 365.5 1279 362.5 c 0
 1294.33333333 359.5 1308.33333333 354.666666667 1321 348 c 0
 1333.66666667 341.333333333 1343.5 335.333333333 1350.5 330 c 0
 1357.5 324.666666667 1367 315.5 1379 302.5 c 0
 1391 289.5 1401.5 277 1410.5 265 c 0
 1419.5 253 1421.33333333 241.333333333 1416 230 c 1
 1410.66666667 222 1404.5 220.333333333 1397.5 225 c 0
 1390.5 229.666666667 1382.33333333 233.666666667 1373 237 c 0
 1363.66666667 240.333333333 1353.5 242.666666667 1342.5 244 c 0
 1331.5 245.333333333 1314.33333333 246 1291 246 c 2
 282 246 l 2
 266.666666667 246 252.666666667 247 240 249 c 0
 227.333333333 251 217.5 253.166666667 210.5 255.5 c 0
 203.5 257.833333333 196 261 188 265 c 0
 180 269 171.5 273.833333333 162.5 279.5 c 0
 153.5 285.166666667 144 293.166666667 134 303.5 c 0
 124 313.833333333 113.833333333 325.833333333 103.5 339.5 c 0
 93.1666666667 353.166666667 86.6666666667 362.666666667 84 368 c 0
 81.3333333333 373.333333333 81.6666666667 378.666666667 85 384 c 0
1427 1163 m 1
 1437.66666667 1161 1442.33333333 1155.5 1441 1146.5 c 0
 1439.66666667 1137.5 1433 1132.66666667 1421 1132 c 1
 1407 1127.33333333 1395.83333333 1109.66666667 1387.5 1079 c 0
 1379.16666667 1048.33333333 1370 1016 1360 982 c 0
 1337.33333333 902.666666667 1316.66666667 838.333333333 1298 789 c 0
 1279.33333333 739.666666667 1261.66666667 705.166666667 1245 685.5 c 0
 1228.33333333 665.833333333 1208.33333333 650.666666667 1185 640 c 0
 1149 624.666666667 1113.33333333 613.333333333 1078 606 c 0
 1042.66666667 598.666666667 1012.33333333 595 987 595 c 1
 999.666666667 565 1021 544 1051 532 c 0
 1081 520 1089.66666667 507.333333333 1077 494 c 0
 1069.66666667 486.666666667 1046.5 496.333333333 1007.5 523 c 0
 968.5 549.666666667 942 576 928 602 c 1
 928 618.666666667 934.666666667 625.666666667 948 623 c 0
 961.333333333 620.333333333 976 618.333333333 992 617 c 256
 1007.33333333 616.333333333 1023.16666667 617.333333333 1039.5 620 c 0
 1055.83333333 622.666666667 1077.66666667 631 1105 645 c 0
 1118.33333333 651.666666667 1131 666.833333333 1143 690.5 c 0
 1155 714.166666667 1165.66666667 740.333333333 1175 769 c 0
 1184.33333333 797.666666667 1192.33333333 826.166666667 1199 854.5 c 0
 1205.66666667 882.833333333 1214.5 923.666666667 1225.5 977 c 0
 1236.5 1030.33333333 1246 1066 1254 1084 c 0
 1262 1102 1273.16666667 1116.66666667 1287.5 1128 c 0
 1301.83333333 1139.33333333 1315.5 1146.66666667 1328.5 1150 c 0
 1341.5 1153.33333333 1355.83333333 1155.66666667 1371.5 1157 c 0
 1387.16666667 1158.33333333 1405.66666667 1160.33333333 1427 1163 c 1
EndSplineSet
Validated: 1572897
EndChar

StartChar: uniE008
Encoding: 57352 57352 40
Width: 1515
VWidth: 345
Flags: W
HStem: 246 121<182.719 1326.04> 645 22<619.619 656.909> 790 19<671.08 745.04> 1243 27<1055.51 1090.93>
AnchorPoint: "diesis" 400 133 basechar 0
AnchorPoint: "yfesis" 1316 619 basechar 0
AnchorPoint: "klasma-bottom" 785 160 basechar 0
AnchorPoint: "gorgon-top" 1138 459 basechar 0
AnchorPoint: "psifiston" 840 113 basechar 0
LayerCount: 2
Fore
SplineSet
640 667 m 0
 660.666666667 667 682 666.833333333 704 666.5 c 0
 726 666.166666667 746 664.666666667 764 662 c 1
 776.666666667 662 789.5 640.5 802.5 597.5 c 0
 815.5 554.5 831.666666667 516.333333333 851 483 c 0
 857 471.666666667 863 465.666666667 869 465 c 0
 874.333333333 463.666666667 878.333333333 460.833333333 881 456.5 c 0
 883.666666667 452.166666667 880.666666667 448.666666667 872 446 c 1
 850.666666667 442.666666667 829.5 441.333333333 808.5 442 c 0
 787.5 442.666666667 767.666666667 444 749 446 c 1
 731 452.666666667 717 472.833333333 707 506.5 c 0
 697 540.166666667 682.666666667 579.666666667 664 625 c 1
 658 635.666666667 648.333333333 642.333333333 635 645 c 0
 625 646.333333333 619.833333333 650.333333333 619.5 657 c 0
 619.166666667 663.666666667 626 667 640 667 c 0
85 384 m 0
 88.3333333333 389.333333333 92.1666666667 392.166666667 96.5 392.5 c 0
 100.833333333 392.833333333 105.333333333 391.666666667 110 389 c 0
 114.666666667 386.333333333 120.666666667 383.166666667 128 379.5 c 0
 135.333333333 375.833333333 144.666666667 372.833333333 156 370.5 c 0
 167.333333333 368.166666667 183.333333333 367 204 367 c 2
 1228 367 l 2
 1246.66666667 367 1263.66666667 365.5 1279 362.5 c 0
 1294.33333333 359.5 1308.33333333 354.666666667 1321 348 c 0
 1333.66666667 341.333333333 1343.5 335.333333333 1350.5 330 c 0
 1357.5 324.666666667 1367 315.5 1379 302.5 c 0
 1391 289.5 1401.5 277 1410.5 265 c 0
 1419.5 253 1421.33333333 241.333333333 1416 230 c 1
 1410.66666667 222 1404.5 220.333333333 1397.5 225 c 0
 1390.5 229.666666667 1382.33333333 233.666666667 1373 237 c 0
 1363.66666667 240.333333333 1353.5 242.666666667 1342.5 244 c 0
 1331.5 245.333333333 1314.33333333 246 1291 246 c 2
 282 246 l 2
 266.666666667 246 252.666666667 247 240 249 c 0
 227.333333333 251 217.5 253.166666667 210.5 255.5 c 0
 203.5 257.833333333 196 261 188 265 c 0
 180 269 171.5 273.833333333 162.5 279.5 c 0
 153.5 285.166666667 144 293.166666667 134 303.5 c 0
 124 313.833333333 113.833333333 325.833333333 103.5 339.5 c 0
 93.1666666667 353.166666667 86.6666666667 362.666666667 84 368 c 0
 81.3333333333 373.333333333 81.6666666667 378.666666667 85 384 c 0
1078 1270 m 1
 1088 1268.66666667 1092.33333333 1264 1091 1256 c 0
 1089.66666667 1248 1083.33333333 1243.66666667 1072 1243 c 1
 1059.33333333 1239 1049 1224.16666667 1041 1198.5 c 0
 1033 1172.83333333 1024.66666667 1145.66666667 1016 1117 c 0
 995.333333333 1049.66666667 976.333333333 995.166666667 959 953.5 c 0
 941.666666667 911.833333333 925.166666667 882.833333333 909.5 866.5 c 0
 893.833333333 850.166666667 875.333333333 837.666666667 854 829 c 0
 820.666666667 815.666666667 787.833333333 805.833333333 755.5 799.5 c 0
 723.166666667 793.166666667 695 790 671 790 c 1
 683 764 702.666666667 746.166666667 730 736.5 c 0
 757.333333333 726.833333333 765.333333333 716.333333333 754 705 c 0
 747.333333333 699 726 707.333333333 690 730 c 0
 654 752.666666667 629.333333333 775 616 797 c 1
 616 811 622.333333333 816.833333333 635 814.5 c 0
 647.666666667 812.166666667 661 810.333333333 675 809 c 0
 689.666666667 808.333333333 704.5 809.166666667 719.5 811.5 c 0
 734.5 813.833333333 754.666666667 820.666666667 780 832 c 0
 792.666666667 838 804.5 851 815.5 871 c 0
 826.5 891 836.333333333 913.166666667 845 937.5 c 0
 853.666666667 961.833333333 861.166666667 985.833333333 867.5 1009.5 c 0
 873.833333333 1033.16666667 882 1067.5 892 1112.5 c 0
 902 1157.5 910.666666667 1187.66666667 918 1203 c 0
 925.333333333 1218.33333333 935.5 1230.66666667 948.5 1240 c 0
 961.5 1249.33333333 974 1255.33333333 986 1258 c 0
 998 1260.66666667 1011.5 1262.83333333 1026.5 1264.5 c 0
 1041.5 1266.16666667 1058.66666667 1268 1078 1270 c 1
EndSplineSet
Validated: 1572897
EndChar

StartChar: uniE009
Encoding: 57353 57353 41
Width: 1515
VWidth: 345
Flags: W
HStem: 246 121<182.719 1326.04> 595 22<220.709 300.106 987.535 1066.59> 1132 31<636.32 674.933 1403.3 1440.93>
AnchorPoint: "diesis" 400 133 basechar 0
AnchorPoint: "yfesis" 1316 619 basechar 0
AnchorPoint: "klasma-bottom" 785 160 basechar 0
AnchorPoint: "gorgon-top" 757 459 basechar 0
AnchorPoint: "psifiston" 840 113 basechar 0
LayerCount: 2
Fore
SplineSet
85 384 m 0
 88.3333333333 389.333333333 92.1666666667 392.166666667 96.5 392.5 c 0
 100.833333333 392.833333333 105.333333333 391.666666667 110 389 c 0
 114.666666667 386.333333333 120.666666667 383.166666667 128 379.5 c 0
 135.333333333 375.833333333 144.666666667 372.833333333 156 370.5 c 0
 167.333333333 368.166666667 183.333333333 367 204 367 c 2
 1228 367 l 2
 1246.66666667 367 1263.66666667 365.5 1279 362.5 c 0
 1294.33333333 359.5 1308.33333333 354.666666667 1321 348 c 0
 1333.66666667 341.333333333 1343.5 335.333333333 1350.5 330 c 0
 1357.5 324.666666667 1367 315.5 1379 302.5 c 0
 1391 289.5 1401.5 277 1410.5 265 c 0
 1419.5 253 1421.33333333 241.333333333 1416 230 c 1
 1410.66666667 222 1404.5 220.333333333 1397.5 225 c 0
 1390.5 229.666666667 1382.33333333 233.666666667 1373 237 c 0
 1363.66666667 240.333333333 1353.5 242.666666667 1342.5 244 c 0
 1331.5 245.333333333 1314.33333333 246 1291 246 c 2
 282 246 l 2
 266.666666667 246 252.666666667 247 240 249 c 0
 227.333333333 251 217.5 253.166666667 210.5 255.5 c 0
 203.5 257.833333333 196 261 188 265 c 0
 180 269 171.5 273.833333333 162.5 279.5 c 0
 153.5 285.166666667 144 293.166666667 134 303.5 c 0
 124 313.833333333 113.833333333 325.833333333 103.5 339.5 c 0
 93.1666666667 353.166666667 86.6666666667 362.666666667 84 368 c 0
 81.3333333333 373.333333333 81.6666666667 378.666666667 85 384 c 0
1427 1163 m 1
 1437.66666667 1161 1442.33333333 1155.5 1441 1146.5 c 0
 1439.66666667 1137.5 1433 1132.66666667 1421 1132 c 1
 1407 1127.33333333 1395.83333333 1109.66666667 1387.5 1079 c 0
 1379.16666667 1048.33333333 1370 1016 1360 982 c 0
 1337.33333333 902.666666667 1316.66666667 838.333333333 1298 789 c 0
 1279.33333333 739.666666667 1261.66666667 705.166666667 1245 685.5 c 0
 1228.33333333 665.833333333 1208.33333333 650.666666667 1185 640 c 0
 1149 624.666666667 1113.33333333 613.333333333 1078 606 c 0
 1042.66666667 598.666666667 1012.33333333 595 987 595 c 1
 999.666666667 565 1021 544 1051 532 c 0
 1081 520 1089.66666667 507.333333333 1077 494 c 0
 1069.66666667 486.666666667 1046.5 496.333333333 1007.5 523 c 0
 968.5 549.666666667 942 576 928 602 c 1
 928 618.666666667 934.666666667 625.666666667 948 623 c 0
 961.333333333 620.333333333 976 618.333333333 992 617 c 256
 1007.33333333 616.333333333 1023.16666667 617.333333333 1039.5 620 c 0
 1055.83333333 622.666666667 1077.66666667 631 1105 645 c 0
 1118.33333333 651.666666667 1131 666.833333333 1143 690.5 c 0
 1155 714.166666667 1165.66666667 740.333333333 1175 769 c 0
 1184.33333333 797.666666667 1192.33333333 826.166666667 1199 854.5 c 0
 1205.66666667 882.833333333 1214.5 923.666666667 1225.5 977 c 0
 1236.5 1030.33333333 1246 1066 1254 1084 c 0
 1262 1102 1273.16666667 1116.66666667 1287.5 1128 c 0
 1301.83333333 1139.33333333 1315.5 1146.66666667 1328.5 1150 c 0
 1341.5 1153.33333333 1355.83333333 1155.66666667 1371.5 1157 c 0
 1387.16666667 1158.33333333 1405.66666667 1160.33333333 1427 1163 c 1
661 1163 m 1
 671.666666667 1161 676.333333333 1155.5 675 1146.5 c 0
 673.666666667 1137.5 666.666666667 1132.66666667 654 1132 c 1
 640 1127.33333333 628.833333333 1109.66666667 620.5 1079 c 0
 612.166666667 1048.33333333 603 1016 593 982 c 0
 570.333333333 902.666666667 549.666666667 838.333333333 531 789 c 0
 512.333333333 739.666666667 494.666666667 705.166666667 478 685.5 c 0
 461.333333333 665.833333333 441.333333333 650.666666667 418 640 c 0
 382 624.666666667 346.5 613.333333333 311.5 606 c 0
 276.5 598.666666667 246 595 220 595 c 1
 232.666666667 565 254 544 284 532 c 0
 314 520 322.666666667 507.333333333 310 494 c 0
 302.666666667 486.666666667 279.666666667 496.333333333 241 523 c 0
 202.333333333 549.666666667 175.666666667 576 161 602 c 1
 161 618.666666667 167.833333333 625.666666667 181.5 623 c 0
 195.166666667 620.333333333 209.666666667 618.333333333 225 617 c 256
 240.333333333 616.333333333 256.166666667 617.333333333 272.5 620 c 0
 288.833333333 622.666666667 310.666666667 631 338 645 c 0
 351.333333333 651.666666667 364 666.833333333 376 690.5 c 0
 388 714.166666667 398.833333333 740.333333333 408.5 769 c 0
 418.166666667 797.666666667 426.333333333 826.166666667 433 854.5 c 0
 439.666666667 882.833333333 448.5 923.666666667 459.5 977 c 0
 470.5 1030.33333333 479.833333333 1066 487.5 1084 c 0
 495.166666667 1102 506.166666667 1116.66666667 520.5 1128 c 0
 534.833333333 1139.33333333 548.5 1146.66666667 561.5 1150 c 0
 574.5 1153.33333333 589 1155.66666667 605 1157 c 0
 621 1158.33333333 639.666666667 1160.33333333 661 1163 c 1
EndSplineSet
Validated: 1572897
EndChar

StartChar: uniE00A
Encoding: 57354 57354 42
Width: 1596
VWidth: 345
Flags: W
HStem: 246 121<182.719 1326.04> 595 22<1041.42 1120.19> 671 26<352.137 386.764 622.606 656.764> 848 17<486.093 557.48> 1132 31<1457.22 1494.93> 1248 24<852.553 886.449>
AnchorPoint: "diesis" 400 133 basechar 0
AnchorPoint: "yfesis" 1368 619 basechar 0
AnchorPoint: "klasma-bottom" 785 160 basechar 0
AnchorPoint: "psifiston" 840 113 basechar 0
LayerCount: 2
Fore
SplineSet
371 697 m 0
 391 697 412 696.666666667 434 696 c 0
 456 695.333333333 475.666666667 693.333333333 493 690 c 1
 505.666666667 690 519 668.666666667 533 626 c 0
 547 583.333333333 563.666666667 541.666666667 583 501 c 0
 589 487 595.333333333 479 602 477 c 0
 607.333333333 475 611.333333333 471.5 614 466.5 c 0
 616.666666667 461.5 613.666666667 457 605 453 c 1
 585 449 564.5 447.333333333 543.5 448 c 0
 522.5 448.666666667 502.666666667 450.333333333 484 453 c 1
 466.666666667 461 453 480.166666667 443 510.5 c 0
 433 540.833333333 417.666666667 585 397 643 c 0
 395.666666667 646.333333333 392.166666667 651.5 386.5 658.5 c 0
 380.833333333 665.5 374.666666667 669.666666667 368 671 c 0
 358.666666667 672.333333333 353.333333333 676.833333333 352 684.5 c 0
 350.666666667 692.166666667 357 696.333333333 371 697 c 0
642 697 m 0
 662 697 682.833333333 696.666666667 704.5 696 c 0
 726.166666667 695.333333333 746 693.333333333 764 690 c 1
 776.666666667 690 789.833333333 668.666666667 803.5 626 c 0
 817.166666667 583.333333333 833.666666667 541.666666667 853 501 c 0
 859 487 865.333333333 479 872 477 c 0
 877.333333333 475 881.333333333 471.5 884 466.5 c 0
 886.666666667 461.5 883.666666667 457 875 453 c 1
 855 449 834.666666667 447.333333333 814 448 c 0
 793.333333333 448.666666667 773.666666667 450.333333333 755 453 c 1
 737.666666667 461 724 480.166666667 714 510.5 c 0
 704 540.833333333 688.666666667 585 668 643 c 0
 666 646.333333333 662.166666667 651.5 656.5 658.5 c 0
 650.833333333 665.5 644.666666667 669.666666667 638 671 c 0
 628.666666667 672.333333333 623.5 676.833333333 622.5 684.5 c 0
 621.5 692.166666667 628 696.333333333 642 697 c 0
85 384 m 0
 88.3333333333 389.333333333 92.1666666667 392.166666667 96.5 392.5 c 0
 100.833333333 392.833333333 105.333333333 391.666666667 110 389 c 0
 114.666666667 386.333333333 120.666666667 383.166666667 128 379.5 c 0
 135.333333333 375.833333333 144.666666667 372.833333333 156 370.5 c 0
 167.333333333 368.166666667 183.333333333 367 204 367 c 2
 1228 367 l 2
 1246.66666667 367 1263.66666667 365.5 1279 362.5 c 0
 1294.33333333 359.5 1308.33333333 354.666666667 1321 348 c 0
 1333.66666667 341.333333333 1343.5 335.333333333 1350.5 330 c 0
 1357.5 324.666666667 1367 315.5 1379 302.5 c 0
 1391 289.5 1401.5 277 1410.5 265 c 0
 1419.5 253 1421.33333333 241.333333333 1416 230 c 1
 1410.66666667 222 1404.5 220.333333333 1397.5 225 c 0
 1390.5 229.666666667 1382.33333333 233.666666667 1373 237 c 0
 1363.66666667 240.333333333 1353.5 242.666666667 1342.5 244 c 0
 1331.5 245.333333333 1314.33333333 246 1291 246 c 2
 282 246 l 2
 266.666666667 246 252.666666667 247 240 249 c 0
 227.333333333 251 217.5 253.166666667 210.5 255.5 c 0
 203.5 257.833333333 196 261 188 265 c 0
 180 269 171.5 273.833333333 162.5 279.5 c 0
 153.5 285.166666667 144 293.166666667 134 303.5 c 0
 124 313.833333333 113.833333333 325.833333333 103.5 339.5 c 0
 93.1666666667 353.166666667 86.6666666667 362.666666667 84 368 c 0
 81.3333333333 373.333333333 81.6666666667 378.666666667 85 384 c 0
1481 1163 m 1
 1491.66666667 1161 1496.33333333 1155.5 1495 1146.5 c 0
 1493.66666667 1137.5 1487 1132.66666667 1475 1132 c 1
 1461 1127.33333333 1449.66666667 1109.66666667 1441 1079 c 0
 1432.33333333 1048.33333333 1423.33333333 1016 1414 982 c 0
 1391.33333333 902.666666667 1370.66666667 838.333333333 1352 789 c 0
 1333.33333333 739.666666667 1315.5 705.166666667 1298.5 685.5 c 0
 1281.5 665.833333333 1261.33333333 650.666666667 1238 640 c 0
 1202 624.666666667 1166.5 613.333333333 1131.5 606 c 0
 1096.5 598.666666667 1066.33333333 595 1041 595 c 1
 1053.66666667 565 1074.83333333 544 1104.5 532 c 0
 1134.16666667 520 1142.66666667 507.333333333 1130 494 c 0
 1122.66666667 486.666666667 1099.66666667 496.333333333 1061 523 c 0
 1022.33333333 549.666666667 995.666666667 576 981 602 c 1
 981 618.666666667 987.833333333 625.666666667 1001.5 623 c 0
 1015.16666667 620.333333333 1029.66666667 618.333333333 1045 617 c 256
 1060.33333333 616.333333333 1076.33333333 617.333333333 1093 620 c 0
 1109.66666667 622.666666667 1131.66666667 631 1159 645 c 0
 1172.33333333 651.666666667 1184.83333333 666.833333333 1196.5 690.5 c 0
 1208.16666667 714.166666667 1218.83333333 740.333333333 1228.5 769 c 0
 1238.16666667 797.666666667 1246.33333333 826.166666667 1253 854.5 c 0
 1259.66666667 882.833333333 1268.5 923.666666667 1279.5 977 c 0
 1290.5 1030.33333333 1299.83333333 1066 1307.5 1084 c 0
 1315.16666667 1102 1326.16666667 1116.66666667 1340.5 1128 c 0
 1354.83333333 1139.33333333 1368.5 1146.66666667 1381.5 1150 c 0
 1394.5 1153.33333333 1409 1155.66666667 1425 1157 c 0
 1441 1158.33333333 1459.66666667 1160.33333333 1481 1163 c 1
874 1272 m 1
 883.333333333 1270.66666667 887.5 1266.5 886.5 1259.5 c 0
 885.5 1252.5 879.333333333 1248.66666667 868 1248 c 1
 856 1244 846.166666667 1230.83333333 838.5 1208.5 c 0
 830.833333333 1186.16666667 822.666666667 1162.33333333 814 1137 c 0
 794 1077.66666667 775.833333333 1029.66666667 759.5 993 c 0
 743.166666667 956.333333333 727.666666667 930.666666667 713 916 c 0
 698.333333333 901.333333333 680.666666667 890 660 882 c 0
 628 870.666666667 596.666666667 862.166666667 566 856.5 c 0
 535.333333333 850.833333333 508.666666667 848 486 848 c 1
 497.333333333 825.333333333 516.166666667 809.666666667 542.5 801 c 0
 568.833333333 792.333333333 576.333333333 783 565 773 c 0
 558.333333333 767.666666667 538 775 504 795 c 0
 470 815 446.666666667 834.666666667 434 854 c 1
 434 866.666666667 439.833333333 871.833333333 451.5 869.5 c 0
 463.166666667 867.166666667 476 865.666666667 490 865 c 0
 504 864.333333333 518.166666667 865 532.5 867 c 0
 546.833333333 869 566 875.333333333 590 886 c 0
 602 891.333333333 613.166666667 902.666666667 623.5 920 c 0
 633.833333333 937.333333333 643.166666667 956.833333333 651.5 978.5 c 0
 659.833333333 1000.16666667 667 1021.5 673 1042.5 c 0
 679 1063.5 686.666666667 1093.83333333 696 1133.5 c 0
 705.333333333 1173.16666667 713.5 1199.66666667 720.5 1213 c 0
 727.5 1226.33333333 737.333333333 1237.16666667 750 1245.5 c 0
 762.666666667 1253.83333333 774.833333333 1259.16666667 786.5 1261.5 c 0
 798.166666667 1263.83333333 811 1265.66666667 825 1267 c 0
 839 1268.33333333 855.333333333 1270 874 1272 c 1
EndSplineSet
Validated: 1572897
EndChar

StartChar: ison_apostrofos
Encoding: 57376 57376 43
Width: 1277
VWidth: 345
Flags: W
HStem: -226 32<1144.99 1197.78> 95 31<814.096 998.326> 252 117<773.316 1038.61>
AnchorPoint: "diesis" 400 133 basechar 0
LayerCount: 2
Fore
SplineSet
1144 -218 m 1
 1136.66666667 -212 1136.16666667 -206.5 1142.5 -201.5 c 0
 1148.83333333 -196.5 1157 -194 1167 -194 c 0
 1177.66666667 -194 1192.83333333 -184.166666667 1212.5 -164.5 c 0
 1232.16666667 -144.833333333 1245 -121 1251 -93 c 0
 1261 -44.3333333333 1235.66666667 -4.33333333333 1175 27 c 0
 1109 59.6666666667 1024 81.3333333333 920 92 c 0
 902.666666667 93.3333333333 883.166666667 94 861.5 94 c 0
 839.833333333 94 827.666666667 94.3333333333 825 95 c 0
 815.666666667 98.3333333333 812 104 814 112 c 0
 816 120 821 124.666666667 829 126 c 0
 836.333333333 126 854.333333333 125.166666667 883 123.5 c 0
 911.666666667 121.833333333 943.333333333 118.666666667 978 114 c 0
 1017.33333333 108 1057.16666667 100 1097.5 90 c 0
 1137.83333333 80 1175.33333333 68.3333333333 1210 55 c 0
 1249.33333333 39.6666666667 1280.66666667 24.1666666667 1304 8.5 c 0
 1327.33333333 -7.16666666667 1349 -27.6666666667 1369 -53 c 0
 1388.33333333 -79.6666666667 1396.33333333 -106 1393 -132 c 0
 1389.66666667 -158 1378.33333333 -178 1359 -192 c 0
 1341.66666667 -205.333333333 1321.33333333 -214.333333333 1298 -219 c 0
 1274.66666667 -223.666666667 1252.33333333 -226 1231 -226 c 256
 1199 -226 1199 -226 1187.5 -226 c 0
 1179.83333333 -226 1165.33333333 -223.333333333 1144 -218 c 1
103 443 m 1
 77.6666666667 489 70.8333333333 528.5 82.5 561.5 c 0
 94.1666666667 594.5 115 612 145 614 c 0
 164.333333333 615.333333333 179.166666667 613.833333333 189.5 609.5 c 0
 199.833333333 605.166666667 209 600.833333333 217 596.5 c 0
 225 592.166666667 232.5 587.5 239.5 582.5 c 0
 246.5 577.5 253 572.333333333 259 567 c 0
 265 561.666666667 269.166666667 556.833333333 271.5 552.5 c 0
 273.833333333 548.166666667 274.833333333 544.166666667 274.5 540.5 c 0
 274.166666667 536.833333333 272.833333333 534.333333333 270.5 533 c 0
 268.166666667 531.666666667 261.166666667 528.666666667 249.5 524 c 0
 237.833333333 519.333333333 222.666666667 511.833333333 204 501.5 c 0
 185.333333333 491.166666667 176.333333333 473.666666667 177 449 c 0
 177 423.666666667 203.333333333 399.833333333 256 377.5 c 0
 308.666666667 355.166666667 387 346 491 350 c 2
 938 369 l 2
 960 369 977.5 367.5 990.5 364.5 c 0
 1003.5 361.5 1015.33333333 357.666666667 1026 353 c 0
 1036.66666667 348.333333333 1045.66666667 343.833333333 1053 339.5 c 0
 1060.33333333 335.166666667 1069 328.5 1079 319.5 c 0
 1089 310.5 1100.5 299 1113.5 285 c 0
 1126.5 271 1135.16666667 260.666666667 1139.5 254 c 0
 1143.83333333 247.333333333 1146 240.833333333 1146 234.5 c 0
 1146 228.166666667 1143.83333333 224 1139.5 222 c 0
 1135.16666667 220 1130.66666667 219 1126 219 c 0
 1121.33333333 219 1116.33333333 220 1111 222 c 0
 1105.66666667 224 1099.16666667 226.333333333 1091.5 229 c 0
 1083.83333333 231.666666667 1075.33333333 234.333333333 1066 237 c 0
 1056.66666667 239.666666667 1048 241.666666667 1040 243 c 0
 1032 244.333333333 1021 245.333333333 1007 246 c 2
 900 252 l 1
 838.666666667 252 774.166666667 254.5 706.5 259.5 c 0
 638.833333333 264.5 575 271 515 279 c 0
 455 287 402.333333333 295.666666667 357 305 c 0
 311.666666667 314.333333333 280.666666667 322 264 328 c 0
 235.333333333 340 209.833333333 351.833333333 187.5 363.5 c 0
 165.166666667 375.166666667 137 401.666666667 103 443 c 1
EndSplineSet
Validated: 1572897
EndChar

StartChar: apostrofosSyndesmos
Encoding: 57378 57378 44
Width: 1177
VWidth: 345
Flags: W
HStem: -225 31<868.995 921.974> 95 29.5<538.611 732.096> 200 32<409.995 463.781> 519.5 30<79.6112 273.513>
AnchorPoint: "gorgon-top" 457 635 basechar 0
AnchorPoint: "diesis" 333 127 basechar 0
LayerCount: 2
Fore
SplineSet
868 -217 m 1
 860.666666667 -211 860.333333333 -205.666666667 867 -201 c 0
 873.666666667 -196.333333333 882 -194 892 -194 c 0
 902.666666667 -194 917.833333333 -184 937.5 -164 c 0
 957.166666667 -144 970 -120 976 -92 c 0
 986 -43.3333333333 960.333333333 -3.33333333333 899 28 c 0
 833 60.6666666667 748.333333333 82.3333333333 645 93 c 0
 627.666666667 94.3333333333 608 95 586 95 c 0
 564 95 551.666666667 95.3333333333 549 96 c 0
 539.666666667 99.3333333333 536.166666667 105 538.5 113 c 0
 540.833333333 121 545.666666667 125.333333333 553 126 c 0
 560.333333333 126.666666667 578.5 126.166666667 607.5 124.5 c 0
 636.5 122.833333333 668 119.666666667 702 115 c 0
 741.333333333 109 781.166666667 101 821.5 91 c 0
 861.833333333 81 899.666666667 69.3333333333 935 56 c 0
 974.333333333 40.6666666667 1005.66666667 25.1666666667 1029 9.5 c 0
 1052.33333333 -6.16666666667 1073.66666667 -26.6666666667 1093 -52 c 0
 1112.33333333 -78.6666666667 1120.5 -105 1117.5 -131 c 0
 1114.5 -157 1103 -177.333333333 1083 -192 c 0
 1065.66666667 -205.333333333 1045.5 -214.166666667 1022.5 -218.5 c 0
 999.5 -222.833333333 977.333333333 -225 956 -225 c 256
 934.666666667 -225 920 -224.833333333 912 -224.5 c 0
 904 -224.166666667 889.333333333 -221.666666667 868 -217 c 1
409 208 m 1
 401.666666667 214 401.333333333 219.5 408 224.5 c 0
 414.666666667 229.5 423 232 433 232 c 0
 443.666666667 232 458.833333333 241.666666667 478.5 261 c 0
 498.166666667 280.333333333 511 304.333333333 517 333 c 0
 527 381.666666667 501.333333333 421.666666667 440 453 c 0
 374.666666667 485.666666667 290 507 186 517 c 0
 168 519 148.333333333 519.833333333 127 519.5 c 0
 105.666666667 519.166666667 93.3333333333 519.666666667 90 521 c 0
 80.6666666667 524.333333333 77.1666666667 530 79.5 538 c 0
 81.8333333333 546 86.6666666667 550.333333333 94 551 c 256
 101.333333333 551.666666667 119.333333333 551.166666667 148 549.5 c 0
 176.666666667 547.833333333 208.333333333 544.666666667 243 540 c 0
 282.333333333 534 322.166666667 526 362.5 516 c 0
 402.833333333 506 440.666666667 494.333333333 476 481 c 0
 515.333333333 465.666666667 546.666666667 450.166666667 570 434.5 c 0
 593.333333333 418.833333333 614.666666667 398 634 372 c 0
 653.333333333 345.333333333 661.5 319.166666667 658.5 293.5 c 0
 655.5 267.833333333 644.333333333 248 625 234 c 0
 607.666666667 220.666666667 587.333333333 211.666666667 564 207 c 0
 540.666666667 202.333333333 518.333333333 200 497 200 c 0
 466 200 466 200 453.5 200 c 0
 445.166666667 200 430.333333333 202.666666667 409 208 c 1
EndSplineSet
EndChar

StartChar: uniE025
Encoding: 57381 57381 46
Width: 1752
VWidth: 345
Flags: W
HStem: 131 30<330.933 381.941> 138 23<328.798 377.492 826.006 895.904> 445 23<48.0957 118.16> 466.5 38.5<853.132 1082.08>
VStem: 593 148<230.031 374.932>
AnchorPoint: "gorgon-top" 1147 553 basechar 0
AnchorPoint: "diesis" 937 20 basechar 0
AnchorPoint: "yfesis" 1490 536 basechar 0
AnchorPoint: "klasma-top" 1060 547 basechar 0
LayerCount: 2
Fore
SplineSet
330 138 m 1x48
 322.666666667 143.333333333 322.166666667 148.5 328.5 153.5 c 0
 334.833333333 158.5 343 161 353 161 c 0
 363.666666667 161 378.166666667 170.5 396.5 189.5 c 0
 414.833333333 208.5 427 231.666666667 433 259 c 0
 442.333333333 305 418 343 360 373 c 0
 338 383.666666667 310.666666667 393.166666667 278 401.5 c 0
 245.333333333 409.833333333 213.333333333 416.833333333 182 422.5 c 0
 150.666666667 428.166666667 123.166666667 433 99.5 437 c 0
 75.8333333333 441 62 443.666666667 58 445 c 0
 49.3333333333 448.333333333 46 453 48 459 c 0
 50 465 54.6666666667 468 62 468 c 256
 69.3333333333 468 110.833333333 462.5 186.5 451.5 c 0
 262.166666667 440.5 331.333333333 423 394 399 c 0
 431.333333333 384.333333333 461.166666667 369.666666667 483.5 355 c 0
 505.833333333 340.333333333 526.333333333 320.666666667 545 296 c 256
 563.666666667 271.333333333 571.5 246.5 568.5 221.5 c 0
 565.5 196.5 554.666666667 177 536 163 c 0
 518.666666667 150.333333333 499 141.833333333 477 137.5 c 0
 455 133.166666667 434 131 414 131 c 256
 384 131 384 131 372 131 c 0xa8
 364 131 350 133.333333333 330 138 c 1x48
887 140 m 1
 861.666666667 130.666666667 819 131.333333333 759 142 c 1
 723.666666667 150.666666667 692.5 162.333333333 665.5 177 c 0
 638.5 191.666666667 617.666666667 217.333333333 603 254 c 1
 593 289.333333333 589.666666667 317.5 593 338.5 c 0
 596.333333333 359.5 608 384 628 412 c 1
 647.333333333 435.333333333 669.833333333 453 695.5 465 c 0
 721.166666667 477 752.666666667 486.666666667 790 494 c 0
 827.333333333 501.333333333 857.666666667 505 881 505 c 0
 904.333333333 505 929.666666667 504.333333333 957 503 c 0
 983.666666667 501.666666667 1008.33333333 499.5 1031 496.5 c 0
 1053.66666667 493.5 1081.33333333 487 1114 477 c 0
 1168 462.333333333 1221.33333333 442 1274 416 c 0
 1303.33333333 401.333333333 1334.66666667 385.5 1368 368.5 c 0
 1401.33333333 351.5 1438.33333333 331.333333333 1479 308 c 0
 1497.66666667 296.666666667 1518 284.666666667 1540 272 c 0
 1562 259.333333333 1586 246.333333333 1612 233 c 1
 1631.33333333 221 1650.33333333 208.833333333 1669 196.5 c 0
 1687.66666667 184.166666667 1695.5 171.833333333 1692.5 159.5 c 0
 1689.5 147.166666667 1682.33333333 141.333333333 1671 142 c 0
 1659.66666667 142.666666667 1624 142.333333333 1564 141 c 0
 1504 139.666666667 1451.66666667 139.333333333 1407 140 c 1
 1389 153.333333333 1389.16666667 163 1407.5 169 c 0
 1425.83333333 175 1439.33333333 182.333333333 1448 191 c 0
 1464.66666667 208.333333333 1472.16666667 222 1470.5 232 c 0
 1468.83333333 242 1466.16666667 249.833333333 1462.5 255.5 c 0
 1458.83333333 261.166666667 1453.33333333 267.166666667 1446 273.5 c 0
 1438.66666667 279.833333333 1420.5 293 1391.5 313 c 0
 1362.5 333 1326.66666667 354 1284 376 c 1
 1245.33333333 392.666666667 1215 406.333333333 1193 417 c 0
 1171 427.666666667 1135 439.666666667 1085 453 c 1
 1048.33333333 460.333333333 1011.16666667 464.833333333 973.5 466.5 c 0x18
 935.833333333 468.166666667 897.333333333 462.666666667 858 450 c 1
 830.666666667 438 811.333333333 427.833333333 800 419.5 c 0
 788.666666667 411.166666667 776.333333333 396.333333333 763 375 c 0
 751 355 744 338 742 324 c 0
 740 310 739.666666667 294 741 276 c 0
 741.666666667 257.333333333 743.833333333 243.833333333 747.5 235.5 c 0
 751.166666667 227.166666667 756 218.833333333 762 210.5 c 0
 768 202.166666667 775.5 194.5 784.5 187.5 c 0
 793.5 180.5 807.333333333 175.5 826 172.5 c 0
 844.666666667 169.5 863 167 881 165 c 0
 889 163.666666667 894 160.333333333 896 155 c 0
 898 149.666666667 895 144.666666667 887 140 c 1
EndSplineSet
Validated: 1572897
EndChar

StartChar: elafron
Encoding: 57380 57380 47
Width: 1243
VWidth: 345
Flags: W
HStem: 140 25<292.995 383.389> 466.5 38.5<340.132 569.561>
VStem: 80 149<230.031 375.995>
AnchorPoint: "gorgon-top" 627 553 basechar 0
AnchorPoint: "diesis" 427 20 basechar 0
AnchorPoint: "yfesis" 980 536 basechar 0
AnchorPoint: "klasma-top" 560 527 basechar 0
LayerCount: 2
Fore
SplineSet
375 140 m 1
 349.666666667 130.666666667 306.666666667 131.333333333 246 142 c 1
 210.666666667 150.666666667 179.5 162.333333333 152.5 177 c 0
 125.5 191.666666667 104.666666667 217.333333333 90 254 c 1
 80 289.333333333 76.6666666667 317.5 80 338.5 c 0
 83.3333333333 359.5 95 384 115 412 c 1
 134.333333333 435.333333333 156.833333333 453 182.5 465 c 0
 208.166666667 477 239.666666667 486.666666667 277 494 c 0
 314.333333333 501.333333333 344.666666667 505 368 505 c 0
 391.333333333 505 416.666666667 504.333333333 444 503 c 0
 470.666666667 501.666666667 495.5 499.5 518.5 496.5 c 0
 541.5 493.5 569.333333333 487 602 477 c 0
 656 462.333333333 709.333333333 442 762 416 c 0
 791.333333333 401.333333333 822.5 385.5 855.5 368.5 c 0
 888.5 351.5 925.333333333 331.333333333 966 308 c 0
 984.666666667 296.666666667 1005.16666667 284.666666667 1027.5 272 c 0
 1049.83333333 259.333333333 1073.66666667 246.333333333 1099 233 c 1
 1118.33333333 221 1137.5 208.833333333 1156.5 196.5 c 0
 1175.5 184.166666667 1183.5 171.833333333 1180.5 159.5 c 0
 1177.5 147.166666667 1170.33333333 141.333333333 1159 142 c 0
 1147.66666667 142.666666667 1111.83333333 142.333333333 1051.5 141 c 0
 991.166666667 139.666666667 938.666666667 139.333333333 894 140 c 1
 876 153.333333333 876.166666667 163 894.5 169 c 0
 912.833333333 175 926.666666667 182.333333333 936 191 c 0
 952.666666667 208.333333333 960 222 958 232 c 0
 956 242 953.166666667 249.833333333 949.5 255.5 c 0
 945.833333333 261.166666667 940.333333333 267.166666667 933 273.5 c 0
 925.666666667 279.833333333 907.5 293 878.5 313 c 0
 849.5 333 813.666666667 354 771 376 c 1
 732.333333333 392.666666667 702 406.333333333 680 417 c 0
 658 427.666666667 622.333333333 439.666666667 573 453 c 1
 536.333333333 460.333333333 499 464.833333333 461 466.5 c 0
 423 468.166666667 384.333333333 462.666666667 345 450 c 1
 317.666666667 438 298.5 427.833333333 287.5 419.5 c 0
 276.5 411.166666667 264 396.333333333 250 375 c 0
 238 355 231.166666667 338 229.5 324 c 0
 227.833333333 310 227.666666667 294 229 276 c 0
 229.666666667 257.333333333 231.833333333 243.833333333 235.5 235.5 c 0
 239.166666667 227.166666667 243.833333333 218.833333333 249.5 210.5 c 0
 255.166666667 202.166666667 262.5 194.5 271.5 187.5 c 0
 280.5 180.5 294.333333333 175.5 313 172.5 c 0
 331.666666667 169.5 350 167 368 165 c 0
 376 163.666666667 381.166666667 160.333333333 383.5 155 c 0
 385.833333333 149.666666667 383 144.666666667 375 140 c 1
EndSplineSet
Validated: 1572897
EndChar

StartChar: uniE026
Encoding: 57382 57382 48
Width: 1243
VWidth: 345
Flags: W
HStem: 35 22<579.767 625.733> 140 25<292.995 383.389> 329 21<299.095 362.761> 466.5 38.5<340.132 569.561>
VStem: 80 149<230.031 375.995>
AnchorPoint: "gorgon-top" 627 553 basechar 0
AnchorPoint: "diesis" 427 20 basechar 0
AnchorPoint: "yfesis" 980 536 basechar 0
AnchorPoint: "klasma-top" 560 527 basechar 0
LayerCount: 2
Fore
SplineSet
375 140 m 1
 349.666666667 130.666666667 306.666666667 131.333333333 246 142 c 1
 210.666666667 150.666666667 179.5 162.333333333 152.5 177 c 0
 125.5 191.666666667 104.666666667 217.333333333 90 254 c 1
 80 289.333333333 76.6666666667 317.5 80 338.5 c 0
 83.3333333333 359.5 95 384 115 412 c 1
 134.333333333 435.333333333 156.833333333 453 182.5 465 c 0
 208.166666667 477 239.666666667 486.666666667 277 494 c 0
 314.333333333 501.333333333 344.666666667 505 368 505 c 0
 391.333333333 505 416.666666667 504.333333333 444 503 c 0
 470.666666667 501.666666667 495.5 499.5 518.5 496.5 c 0
 541.5 493.5 569.333333333 487 602 477 c 0
 656 462.333333333 709.333333333 442 762 416 c 0
 791.333333333 401.333333333 822.5 385.5 855.5 368.5 c 0
 888.5 351.5 925.333333333 331.333333333 966 308 c 0
 984.666666667 296.666666667 1005.16666667 284.666666667 1027.5 272 c 0
 1049.83333333 259.333333333 1073.66666667 246.333333333 1099 233 c 1
 1118.33333333 221 1137.5 208.833333333 1156.5 196.5 c 0
 1175.5 184.166666667 1183.5 171.833333333 1180.5 159.5 c 0
 1177.5 147.166666667 1170.33333333 141.333333333 1159 142 c 0
 1147.66666667 142.666666667 1111.83333333 142.333333333 1051.5 141 c 0
 991.166666667 139.666666667 938.666666667 139.333333333 894 140 c 1
 876 153.333333333 876.166666667 163 894.5 169 c 0
 912.833333333 175 926.666666667 182.333333333 936 191 c 0
 952.666666667 208.333333333 960 222 958 232 c 0
 956 242 953.166666667 249.833333333 949.5 255.5 c 0
 945.833333333 261.166666667 940.333333333 267.166666667 933 273.5 c 0
 925.666666667 279.833333333 907.5 293 878.5 313 c 0
 849.5 333 813.666666667 354 771 376 c 1
 732.333333333 392.666666667 702 406.333333333 680 417 c 0
 658 427.666666667 622.333333333 439.666666667 573 453 c 1
 536.333333333 460.333333333 499 464.833333333 461 466.5 c 0
 423 468.166666667 384.333333333 462.666666667 345 450 c 1
 317.666666667 438 298.5 427.833333333 287.5 419.5 c 0
 276.5 411.166666667 264 396.333333333 250 375 c 0
 238 355 231.166666667 338 229.5 324 c 0
 227.833333333 310 227.666666667 294 229 276 c 0
 229.666666667 257.333333333 231.833333333 243.833333333 235.5 235.5 c 0
 239.166666667 227.166666667 243.833333333 218.833333333 249.5 210.5 c 0
 255.166666667 202.166666667 262.5 194.5 271.5 187.5 c 0
 280.5 180.5 294.333333333 175.5 313 172.5 c 0
 331.666666667 169.5 350 167 368 165 c 0
 376 163.666666667 381.166666667 160.333333333 383.5 155 c 0
 385.833333333 149.666666667 383 144.666666667 375 140 c 1
581 35 m 1
 574.333333333 40.3333333333 573.833333333 45.3333333333 579.5 50 c 0
 585.166666667 54.6666666667 592.666666667 57 602 57 c 0
 612 57 625.666666667 65.8333333333 643 83.5 c 0
 660.333333333 101.166666667 672 123 678 149 c 0
 687.333333333 193 664.333333333 229.333333333 609 258 c 0
 587.666666667 268 561 277 529 285 c 0
 497 293 465.333333333 300 434 306 c 0
 402.666666667 312 375 316.833333333 351 320.5 c 0
 327 324.166666667 313 327 309 329 c 0
 300.333333333 332.333333333 297 336.666666667 299 342 c 0
 301 347.333333333 305.333333333 350 312 350 c 0
 315.333333333 350 328.833333333 348.666666667 352.5 346 c 0
 376.166666667 343.333333333 404.5 339.166666667 437.5 333.5 c 0
 470.5 327.833333333 505.166666667 320.833333333 541.5 312.5 c 0
 577.833333333 304.833333333 611 295 641 283 c 0
 676.333333333 269 704.666666667 255 726 241 c 0
 747.333333333 227 766.666666667 208 784 184 c 0
 801.333333333 160 808.666666667 136.333333333 806 113 c 0
 803.333333333 89.6666666667 793.333333333 71.3333333333 776 58 c 0
 760 46 741.333333333 38 720 34 c 0
 698.666666667 30 678.666666667 28 660 28 c 256
 641.333333333 28 628.166666667 28.1666666667 620.5 28.5 c 0
 612.833333333 28.8333333333 599.666666667 31 581 35 c 1
EndSplineSet
Validated: 1572897
EndChar

StartChar: uniE028
Encoding: 57384 57384 49
Width: 1113
VWidth: 345
Flags: W
HStem: -93 29<592.871 640.233> 207 21<312.095 375.807> 290 30<594.953 788 905 1044.16>
AnchorPoint: "gorgon-top" 819 680 basechar 0
AnchorPoint: "diesis" 328 16 basechar 0
AnchorPoint: "yfesis" 953 747 basechar 0
AnchorPoint: "klasma-top" 747 513 basechar 0
LayerCount: 2
Fore
SplineSet
905 290 m 1
 914 252 l 2
 914.666666667 249.333333333 918.333333333 242.833333333 925 232.5 c 0
 931.666666667 222.166666667 935 215.666666667 935 213 c 256
 935 210.333333333 929.5 208 918.5 206 c 0
 907.5 204 900 203 896 203 c 2
 835 203 l 2
 827 203 819.5 208.666666667 812.5 220 c 0
 805.5 231.333333333 801 242 799 252 c 2
 791 290 l 1
 713 290 641.5 293.166666667 576.5 299.5 c 0
 512.166666667 305.833333333 466 311.333333333 438 316 c 0
 335.333333333 332 271.333333333 368.666666667 246 426 c 0
 240 438.666666667 230 464 216 502 c 0
 202 540 187.166666667 579.333333333 171.5 620 c 0
 155.833333333 660.666666667 141 697.5 127 730.5 c 0
 113 763.5 103.333333333 781.333333333 98 784 c 0
 70.6666666667 793.333333333 64.6666666667 803.666666667 80 815 c 1
 114 817.666666667 146.166666667 819.333333333 176.5 820 c 0
 206.833333333 820.666666667 238.333333333 819.666666667 271 817 c 0
 287 816.333333333 300.5 804.666666667 311.5 782 c 0
 322.5 759.333333333 332.166666667 732 340.5 700 c 0
 348.833333333 668 356.333333333 634 363 598 c 0
 369.666666667 562 376.333333333 530 383 502 c 0
 397 446 414.333333333 407.833333333 435 387.5 c 0
 455.666666667 367.166666667 491 350.333333333 541 337 c 0
 591.666666667 323.666666667 674 318 788 320 c 1
 775 389 l 2
 774.333333333 392.333333333 771 396.666666667 765 402 c 0
 759 407.333333333 756 411.666666667 756 415 c 0
 756 419 761.5 421.666666667 772.5 423 c 0
 783.5 424.333333333 791 425 795 425 c 2
 856 425 l 2
 863.333333333 425 870.5 419.833333333 877.5 409.5 c 0
 884.5 399.166666667 889.333333333 388 892 376 c 2
 902 321 l 1
 946.666666667 321.666666667 977.166666667 323.166666667 993.5 325.5 c 0
 1009.83333333 327.833333333 1027 330.333333333 1045 333 c 1
 1052.33333333 332.333333333 1056.83333333 329 1058.5 323 c 0
 1060.16666667 317 1058.66666667 311.333333333 1054 306 c 0
 1047.33333333 300.666666667 1033.66666667 296.666666667 1013 294 c 0
 992.333333333 291.333333333 956.333333333 290 905 290 c 1
592 -85 m 1
 585.333333333 -80.3333333333 584.833333333 -75.6666666667 590.5 -71 c 0
 596.166666667 -66.3333333333 603.333333333 -64 612 -64 c 0
 622 -64 635.833333333 -55.1666666667 653.5 -37.5 c 0
 671.166666667 -19.8333333333 682.666666667 2 688 28 c 0
 697.333333333 72 674.666666667 108 620 136 c 0
 599.333333333 146 572.833333333 155 540.5 163 c 0
 508.166666667 171 476.5 178 445.5 184 c 0
 414.5 190 387.166666667 194.833333333 363.5 198.5 c 0
 339.833333333 202.166666667 326 205 322 207 c 0
 313.333333333 209.666666667 310 213.833333333 312 219.5 c 0
 314 225.166666667 318.333333333 228 325 228 c 0
 331.666666667 228 373 222.5 449 211.5 c 0
 525 200.5 592.333333333 183.333333333 651 160 c 0
 686.333333333 146 714.666666667 132.166666667 736 118.5 c 0
 757.333333333 104.833333333 776.666666667 86.3333333333 794 63 c 0
 811.333333333 39.6666666667 818.666666667 16.1666666667 816 -7.5 c 0
 813.333333333 -31.1666666667 803.333333333 -49.3333333333 786 -62 c 0
 770 -74 751.5 -82.1666666667 730.5 -86.5 c 0
 709.5 -90.8333333333 689.666666667 -93 671 -93 c 256
 652.333333333 -93 639.166666667 -92.8333333333 631.5 -92.5 c 0
 623.833333333 -92.1666666667 610.666666667 -89.6666666667 592 -85 c 1
EndSplineSet
EndChar

StartChar: uniE027
Encoding: 57383 57383 50
Width: 1113
VWidth: 345
Flags: W
HStem: 290 30<594.953 788 905 1044.16>
AnchorPoint: "gorgon-top" 819 680 basechar 0
AnchorPoint: "diesis" 393 201 basechar 0
AnchorPoint: "yfesis" 953 747 basechar 0
AnchorPoint: "klasma-top" 747 513 basechar 0
LayerCount: 2
Fore
SplineSet
905 290 m 1
 914 252 l 2
 914.666666667 249.333333333 918.333333333 242.833333333 925 232.5 c 0
 931.666666667 222.166666667 935 215.666666667 935 213 c 256
 935 210.333333333 929.5 208 918.5 206 c 0
 907.5 204 900 203 896 203 c 2
 835 203 l 2
 827 203 819.5 208.666666667 812.5 220 c 0
 805.5 231.333333333 801 242 799 252 c 2
 791 290 l 1
 713 290 641.5 293.166666667 576.5 299.5 c 0
 512.166666667 305.833333333 466 311.333333333 438 316 c 0
 335.333333333 332 271.333333333 368.666666667 246 426 c 0
 240 438.666666667 230 464 216 502 c 0
 202 540 187.166666667 579.333333333 171.5 620 c 0
 155.833333333 660.666666667 141 697.5 127 730.5 c 0
 113 763.5 103.333333333 781.333333333 98 784 c 0
 70.6666666667 793.333333333 64.6666666667 803.666666667 80 815 c 1
 114 817.666666667 146.166666667 819.333333333 176.5 820 c 0
 206.833333333 820.666666667 238.333333333 819.666666667 271 817 c 0
 287 816.333333333 300.5 804.666666667 311.5 782 c 0
 322.5 759.333333333 332.166666667 732 340.5 700 c 0
 348.833333333 668 356.333333333 634 363 598 c 0
 369.666666667 562 376.333333333 530 383 502 c 0
 397 446 414.333333333 407.833333333 435 387.5 c 0
 455.666666667 367.166666667 491 350.333333333 541 337 c 0
 591.666666667 323.666666667 674 318 788 320 c 1
 775 389 l 2
 774.333333333 392.333333333 771 396.666666667 765 402 c 0
 759 407.333333333 756 411.666666667 756 415 c 0
 756 419 761.5 421.666666667 772.5 423 c 0
 783.5 424.333333333 791 425 795 425 c 2
 856 425 l 2
 863.333333333 425 870.5 419.833333333 877.5 409.5 c 0
 884.5 399.166666667 889.333333333 388 892 376 c 2
 902 321 l 1
 946.666666667 321.666666667 977.166666667 323.166666667 993.5 325.5 c 0
 1009.83333333 327.833333333 1027 330.333333333 1045 333 c 1
 1052.33333333 332.333333333 1056.83333333 329 1058.5 323 c 0
 1060.16666667 317 1058.66666667 311.333333333 1054 306 c 0
 1047.33333333 300.666666667 1033.66666667 296.666666667 1013 294 c 0
 992.333333333 291.333333333 956.333333333 290 905 290 c 1
EndSplineSet
Validated: 1572897
EndChar

StartChar: uniE029
Encoding: 57385 57385 51
Width: 1240
VWidth: 345
Flags: W
HStem: 140 25<292.995 383.389> 466.5 38.5<340.132 569.561> 591 30<623.953 817 936 1075.09>
VStem: 80 149<230.031 375.995>
AnchorPoint: "gorgon-top" 819 1010 basechar 0
AnchorPoint: "diesis" 458 16 basechar 0
AnchorPoint: "yfesis" 1005 1051 basechar 0
AnchorPoint: "klasma-top" 807 820 basechar 0
LayerCount: 2
Fore
SplineSet
936 591 m 1
 944 553 l 2
 944 550.333333333 947.5 543.833333333 954.5 533.5 c 0
 961.5 523.166666667 965 516.666666667 965 514 c 256
 965 511.333333333 959.5 509 948.5 507 c 0
 937.5 505 930 504 926 504 c 2
 865 504 l 2
 857 504 849.5 509.5 842.5 520.5 c 0
 835.5 531.5 831 542.333333333 829 553 c 2
 820 591 l 1
 742 591 670.5 594.166666667 605.5 600.5 c 0
 540.5 606.833333333 494.333333333 612 467 616 c 0
 416.333333333 624 374.5 638 341.5 658 c 0
 308.5 678 286.666666667 700.666666667 276 726 c 0
 270 738.666666667 260 764 246 802 c 0
 232 840 217.166666667 879.5 201.5 920.5 c 0
 185.833333333 961.5 171 998.5 157 1031.5 c 0
 143 1064.5 133.333333333 1082.33333333 128 1085 c 0
 100.666666667 1094.33333333 94.6666666667 1104.33333333 110 1115 c 1
 178.666666667 1121 242 1122 300 1118 c 0
 316 1117.33333333 329.5 1105.66666667 340.5 1083 c 0
 351.5 1060.33333333 361.333333333 1033 370 1001 c 0
 378.666666667 969 386.333333333 935 393 899 c 0
 399.666666667 863 406.666666667 831 414 803 c 0
 428 746.333333333 445.166666667 707.833333333 465.5 687.5 c 0
 485.833333333 667.166666667 520.666666667 650.333333333 570 637 c 0
 619.333333333 623.666666667 701.666666667 618.333333333 817 621 c 1
 805 689 l 2
 804.333333333 692.333333333 801 696.833333333 795 702.5 c 0
 789 708.166666667 786 712.666666667 786 716 c 0
 786 720 791.333333333 722.666666667 802 724 c 0
 812.666666667 725.333333333 820.333333333 726 825 726 c 2
 886 726 l 2
 893.333333333 726 900.5 720.833333333 907.5 710.5 c 0
 914.5 700.166666667 919.333333333 689 922 677 c 2
 932 621 l 1
 976.666666667 621.666666667 1007 623.333333333 1023 626 c 0
 1039 628.666666667 1056.66666667 631 1076 633 c 1
 1083.33333333 632.333333333 1087.66666667 629.166666667 1089 623.5 c 0
 1090.33333333 617.833333333 1088.66666667 612.333333333 1084 607 c 0
 1077.33333333 601 1063.83333333 596.833333333 1043.5 594.5 c 0
 1023.16666667 592.166666667 987.333333333 591 936 591 c 1
375 140 m 1
 349.666666667 130.666666667 306.666666667 131.333333333 246 142 c 1
 210.666666667 150.666666667 179.5 162.333333333 152.5 177 c 0
 125.5 191.666666667 104.666666667 217.333333333 90 254 c 1
 80 289.333333333 76.6666666667 317.5 80 338.5 c 0
 83.3333333333 359.5 95 384 115 412 c 1
 134.333333333 435.333333333 156.833333333 453 182.5 465 c 0
 208.166666667 477 239.666666667 486.666666667 277 494 c 0
 314.333333333 501.333333333 344.666666667 505 368 505 c 0
 391.333333333 505 416.666666667 504.333333333 444 503 c 0
 470.666666667 501.666666667 495.5 499.5 518.5 496.5 c 0
 541.5 493.5 569.333333333 487 602 477 c 0
 656 462.333333333 709.333333333 442 762 416 c 0
 791.333333333 401.333333333 822.5 385.5 855.5 368.5 c 0
 888.5 351.5 925.333333333 331.333333333 966 308 c 0
 984.666666667 296.666666667 1005.16666667 284.666666667 1027.5 272 c 0
 1049.83333333 259.333333333 1073.66666667 246.333333333 1099 233 c 1
 1118.33333333 221 1137.5 208.833333333 1156.5 196.5 c 0
 1175.5 184.166666667 1183.5 171.833333333 1180.5 159.5 c 0
 1177.5 147.166666667 1170.33333333 141.333333333 1159 142 c 0
 1147.66666667 142.666666667 1111.83333333 142.333333333 1051.5 141 c 0
 991.166666667 139.666666667 938.666666667 139.333333333 894 140 c 1
 876 153.333333333 876.166666667 163 894.5 169 c 0
 912.833333333 175 926.666666667 182.333333333 936 191 c 0
 952.666666667 208.333333333 960 222 958 232 c 0
 956 242 953.166666667 249.833333333 949.5 255.5 c 0
 945.833333333 261.166666667 940.333333333 267.166666667 933 273.5 c 0
 925.666666667 279.833333333 907.5 293 878.5 313 c 0
 849.5 333 813.666666667 354 771 376 c 1
 732.333333333 392.666666667 702 406.333333333 680 417 c 0
 658 427.666666667 622.333333333 439.666666667 573 453 c 1
 536.333333333 460.333333333 499 464.833333333 461 466.5 c 0
 423 468.166666667 384.333333333 462.666666667 345 450 c 1
 317.666666667 438 298.5 427.833333333 287.5 419.5 c 0
 276.5 411.166666667 264 396.333333333 250 375 c 0
 238 355 231.166666667 338 229.5 324 c 0
 227.833333333 310 227.666666667 294 229 276 c 0
 229.666666667 257.333333333 231.833333333 243.833333333 235.5 235.5 c 0
 239.166666667 227.166666667 243.833333333 218.833333333 249.5 210.5 c 0
 255.166666667 202.166666667 262.5 194.5 271.5 187.5 c 0
 280.5 180.5 294.333333333 175.5 313 172.5 c 0
 331.666666667 169.5 350 167 368 165 c 0
 376 163.666666667 381.166666667 160.333333333 383.5 155 c 0
 385.833333333 149.666666667 383 144.666666667 375 140 c 1
EndSplineSet
EndChar

StartChar: uniE02A
Encoding: 57386 57386 52
Width: 1243
VWidth: 345
Flags: W
HStem: 35 22<579.767 625.733> 140 25<292.995 383.389> 329 21<299.095 362.761> 466.5 38.5<340.132 569.561> 591 30<623.953 817 936 1075.09>
VStem: 80 149<230.031 375.995>
AnchorPoint: "gorgon-top" 819 1010 basechar 0
AnchorPoint: "diesis" 458 16 basechar 0
AnchorPoint: "yfesis" 1005 1051 basechar 0
AnchorPoint: "klasma-top" 807 820 basechar 0
LayerCount: 2
Fore
SplineSet
936 591 m 1
 944 553 l 2
 944 550.333333333 947.5 543.833333333 954.5 533.5 c 0
 961.5 523.166666667 965 516.666666667 965 514 c 256
 965 511.333333333 959.5 509 948.5 507 c 0
 937.5 505 930 504 926 504 c 2
 865 504 l 2
 857 504 849.5 509.5 842.5 520.5 c 0
 835.5 531.5 831 542.333333333 829 553 c 2
 820 591 l 1
 742 591 670.5 594.166666667 605.5 600.5 c 0
 540.5 606.833333333 494.333333333 612 467 616 c 0
 416.333333333 624 374.5 638 341.5 658 c 0
 308.5 678 286.666666667 700.666666667 276 726 c 0
 270 738.666666667 260 764 246 802 c 0
 232 840 217.166666667 879.5 201.5 920.5 c 0
 185.833333333 961.5 171 998.5 157 1031.5 c 0
 143 1064.5 133.333333333 1082.33333333 128 1085 c 0
 100.666666667 1094.33333333 94.6666666667 1104.33333333 110 1115 c 1
 178.666666667 1121 242 1122 300 1118 c 0
 316 1117.33333333 329.5 1105.66666667 340.5 1083 c 0
 351.5 1060.33333333 361.333333333 1033 370 1001 c 0
 378.666666667 969 386.333333333 935 393 899 c 0
 399.666666667 863 406.666666667 831 414 803 c 0
 428 746.333333333 445.166666667 707.833333333 465.5 687.5 c 0
 485.833333333 667.166666667 520.666666667 650.333333333 570 637 c 0
 619.333333333 623.666666667 701.666666667 618.333333333 817 621 c 1
 805 689 l 2
 804.333333333 692.333333333 801 696.833333333 795 702.5 c 0
 789 708.166666667 786 712.666666667 786 716 c 0
 786 720 791.333333333 722.666666667 802 724 c 0
 812.666666667 725.333333333 820.333333333 726 825 726 c 2
 886 726 l 2
 893.333333333 726 900.5 720.833333333 907.5 710.5 c 0
 914.5 700.166666667 919.333333333 689 922 677 c 2
 932 621 l 1
 976.666666667 621.666666667 1007 623.333333333 1023 626 c 0
 1039 628.666666667 1056.66666667 631 1076 633 c 1
 1083.33333333 632.333333333 1087.66666667 629.166666667 1089 623.5 c 0
 1090.33333333 617.833333333 1088.66666667 612.333333333 1084 607 c 0
 1077.33333333 601 1063.83333333 596.833333333 1043.5 594.5 c 0
 1023.16666667 592.166666667 987.333333333 591 936 591 c 1
375 140 m 1
 349.666666667 130.666666667 306.666666667 131.333333333 246 142 c 1
 210.666666667 150.666666667 179.5 162.333333333 152.5 177 c 0
 125.5 191.666666667 104.666666667 217.333333333 90 254 c 1
 80 289.333333333 76.6666666667 317.5 80 338.5 c 0
 83.3333333333 359.5 95 384 115 412 c 1
 134.333333333 435.333333333 156.833333333 453 182.5 465 c 0
 208.166666667 477 239.666666667 486.666666667 277 494 c 0
 314.333333333 501.333333333 344.666666667 505 368 505 c 0
 391.333333333 505 416.666666667 504.333333333 444 503 c 0
 470.666666667 501.666666667 495.5 499.5 518.5 496.5 c 0
 541.5 493.5 569.333333333 487 602 477 c 0
 656 462.333333333 709.333333333 442 762 416 c 0
 791.333333333 401.333333333 822.5 385.5 855.5 368.5 c 0
 888.5 351.5 925.333333333 331.333333333 966 308 c 0
 984.666666667 296.666666667 1005.16666667 284.666666667 1027.5 272 c 0
 1049.83333333 259.333333333 1073.66666667 246.333333333 1099 233 c 1
 1118.33333333 221 1137.5 208.833333333 1156.5 196.5 c 0
 1175.5 184.166666667 1183.5 171.833333333 1180.5 159.5 c 0
 1177.5 147.166666667 1170.33333333 141.333333333 1159 142 c 0
 1147.66666667 142.666666667 1111.83333333 142.333333333 1051.5 141 c 0
 991.166666667 139.666666667 938.666666667 139.333333333 894 140 c 1
 876 153.333333333 876.166666667 163 894.5 169 c 0
 912.833333333 175 926.666666667 182.333333333 936 191 c 0
 952.666666667 208.333333333 960 222 958 232 c 0
 956 242 953.166666667 249.833333333 949.5 255.5 c 0
 945.833333333 261.166666667 940.333333333 267.166666667 933 273.5 c 0
 925.666666667 279.833333333 907.5 293 878.5 313 c 0
 849.5 333 813.666666667 354 771 376 c 1
 732.333333333 392.666666667 702 406.333333333 680 417 c 0
 658 427.666666667 622.333333333 439.666666667 573 453 c 1
 536.333333333 460.333333333 499 464.833333333 461 466.5 c 0
 423 468.166666667 384.333333333 462.666666667 345 450 c 1
 317.666666667 438 298.5 427.833333333 287.5 419.5 c 0
 276.5 411.166666667 264 396.333333333 250 375 c 0
 238 355 231.166666667 338 229.5 324 c 0
 227.833333333 310 227.666666667 294 229 276 c 0
 229.666666667 257.333333333 231.833333333 243.833333333 235.5 235.5 c 0
 239.166666667 227.166666667 243.833333333 218.833333333 249.5 210.5 c 0
 255.166666667 202.166666667 262.5 194.5 271.5 187.5 c 0
 280.5 180.5 294.333333333 175.5 313 172.5 c 0
 331.666666667 169.5 350 167 368 165 c 0
 376 163.666666667 381.166666667 160.333333333 383.5 155 c 0
 385.833333333 149.666666667 383 144.666666667 375 140 c 1
581 35 m 1
 574.333333333 40.3333333333 573.833333333 45.3333333333 579.5 50 c 0
 585.166666667 54.6666666667 592.666666667 57 602 57 c 0
 612 57 625.666666667 65.8333333333 643 83.5 c 0
 660.333333333 101.166666667 672 123 678 149 c 0
 687.333333333 193 664.333333333 229.333333333 609 258 c 0
 587.666666667 268 561 277 529 285 c 0
 497 293 465.333333333 300 434 306 c 0
 402.666666667 312 375 316.833333333 351 320.5 c 0
 327 324.166666667 313 327 309 329 c 0
 300.333333333 332.333333333 297 336.666666667 299 342 c 0
 301 347.333333333 305.333333333 350 312 350 c 0
 315.333333333 350 328.833333333 348.666666667 352.5 346 c 0
 376.166666667 343.333333333 404.5 339.166666667 437.5 333.5 c 0
 470.5 327.833333333 505.166666667 320.833333333 541.5 312.5 c 0
 577.833333333 304.833333333 611 295 641 283 c 0
 676.333333333 269 704.666666667 255 726 241 c 0
 747.333333333 227 766.666666667 208 784 184 c 0
 801.333333333 160 808.666666667 136.333333333 806 113 c 0
 803.333333333 89.6666666667 793.333333333 71.3333333333 776 58 c 0
 760 46 741.333333333 38 720 34 c 0
 698.666666667 30 678.666666667 28 660 28 c 256
 641.333333333 28 628.166666667 28.1666666667 620.5 28.5 c 0
 612.833333333 28.8333333333 599.666666667 31 581 35 c 1
EndSplineSet
EndChar

StartChar: uniE02B
Encoding: 57387 57387 53
Width: 1107
VWidth: 345
Flags: W
HStem: 290 30<588.542 781 899 1039.09> 711 30<588.542 781 899 1039.09>
AnchorPoint: "gorgon-top" 819 1047 basechar 0
AnchorPoint: "diesis" 464 161 basechar 0
AnchorPoint: "yfesis" 965 1097 basechar 0
AnchorPoint: "klasma-top" 707 933 basechar 0
LayerCount: 2
Fore
SplineSet
899 290 m 1
 908 252 l 2
 908 249.333333333 911.5 242.833333333 918.5 232.5 c 0
 925.5 222.166666667 929 215.666666667 929 213 c 256
 929 210.333333333 923.5 208 912.5 206 c 0
 901.5 204 894 203 890 203 c 2
 829 203 l 2
 821 203 813.5 208.666666667 806.5 220 c 0
 799.5 231.333333333 795 242 793 252 c 2
 785 290 l 1
 707 290 635.333333333 293.166666667 570 299.5 c 0
 504.666666667 305.833333333 458.333333333 311.333333333 431 316 c 0
 380.333333333 324 338.5 338 305.5 358 c 0
 272.5 378 250.666666667 400.666666667 240 426 c 0
 234.666666667 438.666666667 225 457.5 211 482.5 c 0
 197 507.5 182.333333333 532.666666667 167 558 c 0
 151.666666667 583.333333333 137.166666667 606 123.5 626 c 0
 109.833333333 646 100.333333333 657 95 659 c 0
 67.6666666667 668.333333333 61.6666666667 678.666666667 77 690 c 1
 110.333333333 692.666666667 142.333333333 694.5 173 695.5 c 0
 203.666666667 696.5 235 695.666666667 267 693 c 0
 299 691 321.833333333 672.666666667 335.5 638 c 0
 349.166666667 603.333333333 363 558 377 502 c 0
 391 446 408.166666667 407.833333333 428.5 387.5 c 0
 448.833333333 367.166666667 484 350.333333333 534 337 c 0
 584.666666667 323 667 317.333333333 781 320 c 1
 769 389 l 2
 768.333333333 392.333333333 765 396.666666667 759 402 c 0
 753 407.333333333 750 411.666666667 750 415 c 0
 750 419 755.333333333 421.666666667 766 423 c 0
 776.666666667 424.333333333 784.333333333 425 789 425 c 2
 850 425 l 2
 857.333333333 425 864.5 419.833333333 871.5 409.5 c 0
 878.5 399.166666667 883.333333333 388 886 376 c 2
 896 321 l 1
 940.666666667 321.666666667 971 323.166666667 987 325.5 c 0
 1003 327.833333333 1020.66666667 330.333333333 1040 333 c 1
 1047.33333333 332.333333333 1051.66666667 329 1053 323 c 0
 1054.33333333 317 1052.66666667 311.333333333 1048 306 c 0
 1041.33333333 300.666666667 1027.66666667 296.666666667 1007 294 c 0
 986.333333333 291.333333333 950.333333333 290 899 290 c 1
899 711 m 1
 908 673 l 2
 908 670.333333333 911.5 663.833333333 918.5 653.5 c 0
 925.5 643.166666667 929 636.666666667 929 634 c 0
 929 631.333333333 923.5 628.833333333 912.5 626.5 c 0
 901.5 624.166666667 894 623 890 623 c 2
 829 623 l 2
 821 623 813.5 628.666666667 806.5 640 c 0
 799.5 651.333333333 795 662.333333333 793 673 c 2
 785 711 l 1
 707 711 635.333333333 714 570 720 c 0
 504.666666667 726 458.333333333 731.333333333 431 736 c 0
 380.333333333 744 338.5 758 305.5 778 c 0
 272.5 798 250.666666667 820.666666667 240 846 c 0
 234.666666667 858.666666667 225 877.5 211 902.5 c 0
 197 927.5 182.333333333 952.666666667 167 978 c 0
 151.666666667 1003.33333333 137.166666667 1026 123.5 1046 c 0
 109.833333333 1066 100.333333333 1077.33333333 95 1080 c 0
 67 1089.33333333 61 1099.66666667 77 1111 c 1
 110.333333333 1113.66666667 142.333333333 1115.33333333 173 1116 c 0
 203.666666667 1116.66666667 235 1115.66666667 267 1113 c 0
 299 1111 321.833333333 1092.83333333 335.5 1058.5 c 0
 349.166666667 1024.16666667 363 979 377 923 c 0
 391 866.333333333 408.166666667 827.833333333 428.5 807.5 c 0
 448.833333333 787.166666667 484 770.666666667 534 758 c 0
 584.666666667 744 667 738.333333333 781 741 c 1
 769 809 l 2
 768.333333333 812.333333333 765 816.833333333 759 822.5 c 0
 753 828.166666667 750 832.666666667 750 836 c 0
 750 840 755.333333333 842.666666667 766 844 c 0
 776.666666667 845.333333333 784.333333333 846 789 846 c 2
 850 846 l 2
 857.333333333 846 864.5 840.833333333 871.5 830.5 c 0
 878.5 820.166666667 883.333333333 809 886 797 c 2
 896 741 l 1
 940.666666667 741.666666667 971 743.166666667 987 745.5 c 0
 1003 747.833333333 1020.66666667 750.333333333 1040 753 c 1
 1047.33333333 752.333333333 1051.66666667 749 1053 743 c 0
 1054.33333333 737 1052.66666667 731.666666667 1048 727 c 0
 1041.33333333 721.666666667 1027.66666667 717.666666667 1007 715 c 0
 986.333333333 712.333333333 950.333333333 711 899 711 c 1
EndSplineSet
EndChar

StartChar: petasti_ison
Encoding: 57408 57408 54
Width: 1318
VWidth: 345
Flags: W
HStem: 133.5 38<761.719 993.029> 469.5 28.5<406.041 446.656 949.611 1054.74> 607 123<970 1142.44>
VStem: 1103.5 149.5<261.308 407.941>
AnchorPoint: "diesis" 464 147 basechar 0
AnchorPoint: "klasma-bottom" 800 53 basechar 0
AnchorPoint: "psifiston" 711 49 basechar 0
LayerCount: 2
Fore
SplineSet
103 804 m 1
 77.6666666667 850 70.8333333333 889.5 82.5 922.5 c 0
 94.1666666667 955.5 115 973 145 975 c 0
 164.333333333 976.333333333 179.166666667 975 189.5 971 c 0
 199.833333333 967 209 962.666666667 217 958 c 0
 225 953.333333333 232.5 948.5 239.5 943.5 c 0
 246.5 938.5 253 933.333333333 259 928 c 0
 265 922.666666667 269.166666667 917.833333333 271.5 913.5 c 0
 273.833333333 909.166666667 274.833333333 905.333333333 274.5 902 c 0
 274.166666667 898.666666667 272.833333333 896.166666667 270.5 894.5 c 0
 268.166666667 892.833333333 261.166666667 889.666666667 249.5 885 c 0
 237.833333333 880.333333333 222.666666667 872.833333333 204 862.5 c 0
 185.333333333 852.166666667 176.333333333 834.666666667 177 810 c 0
 177 784.666666667 203.333333333 760.833333333 256 738.5 c 0
 308.666666667 716.166666667 387 707.333333333 491 712 c 2
 1040 730 l 2
 1062 730 1079.5 728.5 1092.5 725.5 c 0
 1105.5 722.5 1117.33333333 718.833333333 1128 714.5 c 0
 1138.66666667 710.166666667 1147.83333333 705.666666667 1155.5 701 c 0
 1163.16666667 696.333333333 1171.83333333 689.5 1181.5 680.5 c 0
 1191.16666667 671.5 1202.66666667 660 1216 646 c 0
 1229.33333333 632 1238 621.666666667 1242 615 c 0
 1246 608.333333333 1248 602 1248 596 c 0
 1248 590 1246 585.833333333 1242 583.5 c 0
 1238 581.166666667 1233.5 580 1228.5 580 c 0
 1223.5 580 1218.33333333 581.166666667 1213 583.5 c 0
 1207.66666667 585.833333333 1201.33333333 588.166666667 1194 590.5 c 0
 1186.66666667 592.833333333 1178.16666667 595.333333333 1168.5 598 c 0
 1158.83333333 600.666666667 1150.16666667 602.666666667 1142.5 604 c 0
 1134.83333333 605.333333333 1124 606.333333333 1110 607 c 2
 900 613 l 1
 838.666666667 613 774.166666667 615.5 706.5 620.5 c 0
 638.833333333 625.5 575 632 515 640 c 0
 455 648 402.333333333 656.666666667 357 666 c 0
 311.666666667 675.333333333 280.666666667 683.333333333 264 690 c 0
 235.333333333 702 209.833333333 713.666666667 187.5 725 c 0
 165.166666667 736.333333333 137 762.666666667 103 804 c 1
EndSplineSet
Refer: 2 118857 N 1 0 0 1 73 0 2
Validated: 1572897
EndChar

StartChar: petasti
Encoding: 57409 57409 55
Width: 1243
VWidth: 345
Flags: W
HStem: 133.5 38<688.719 920.029> 469.5 28.5<333.041 373.656 876.611 981.738>
VStem: 1030.5 149.5<261.308 407.941>
AnchorPoint: "diesis" 464 147 basechar 0
AnchorPoint: "psifiston" 711 49 basechar 0
AnchorPoint: "klasma-bottom" 800 53 basechar 0
LayerCount: 2
Fore
SplineSet
885 498 m 5
 910.333333333 507.333333333 953.333333333 506.666666667 1014 496 c 5
 1049.33333333 486.666666667 1080.5 474.833333333 1107.5 460.5 c 4
 1134.5 446.166666667 1155.33333333 420.666666667 1170 384 c 5
 1180 348.666666667 1183.33333333 320.333333333 1180 299 c 4
 1176.66666667 277.666666667 1165 253.333333333 1145 226 c 5
 1125.66666667 202.666666667 1103.16666667 185.166666667 1077.5 173.5 c 4
 1051.83333333 161.833333333 1020 152 982 144 c 4
 944.666666667 136.666666667 914.333333333 133.166666667 891 133.5 c 4
 867.666666667 133.833333333 842.666666667 134.333333333 816 135 c 4
 789.333333333 136.333333333 764.5 138.5 741.5 141.5 c 4
 718.5 144.5 690.666666667 151 658 161 c 4
 604 175.666666667 550.666666667 196 498 222 c 4
 468.666666667 236.666666667 437.333333333 252.5 404 269.5 c 4
 370.666666667 286.5 333.666666667 306.666666667 293 330 c 4
 274.333333333 341.333333333 254 353.5 232 366.5 c 4
 210 379.5 186.333333333 392.666666667 161 406 c 5
 141.666666667 418 122.5 430.166666667 103.5 442.5 c 4
 84.5 454.833333333 76.5 467.166666667 79.5 479.5 c 4
 82.5 491.833333333 89.6666666667 497.666666667 101 497 c 4
 112.333333333 496.333333333 148 496.5 208 497.5 c 4
 268 498.5 320.666666667 498.666666667 366 498 c 5
 384 484.666666667 383.666666667 475.166666667 365 469.5 c 4
 346.333333333 463.833333333 332.666666667 456.666666667 324 448 c 4
 307.333333333 430.666666667 300 416.833333333 302 406.5 c 4
 304 396.166666667 306.666666667 388.166666667 310 382.5 c 4
 313.333333333 376.833333333 318.666666667 370.833333333 326 364.5 c 4
 333.333333333 358.166666667 351.5 345 380.5 325 c 4
 409.5 305 445.666666667 284 489 262 c 5
 527.666666667 245.333333333 558 231.666666667 580 221 c 4
 602 210.333333333 637.666666667 198.333333333 687 185 c 5
 723.666666667 177.666666667 761 173.166666667 799 171.5 c 4
 837 169.833333333 875.666666667 175.333333333 915 188 c 5
 942.333333333 200 961.5 210.333333333 972.5 219 c 4
 983.5 227.666666667 996 242.333333333 1010 263 c 4
 1022 283 1028.83333333 300 1030.5 314 c 4
 1032.16666667 328 1032.33333333 344 1031 362 c 4
 1030.33333333 380.666666667 1028.16666667 394.166666667 1024.5 402.5 c 4
 1020.83333333 410.833333333 1016 419.333333333 1010 428 c 4
 1004 436.666666667 996.666666667 444.5 988 451.5 c 4
 979.333333333 458.5 965.666666667 463.333333333 947 466 c 4
 928.333333333 468.666666667 910 471 892 473 c 4
 884 474.333333333 878.833333333 477.666666667 876.5 483 c 4
 874.166666667 488.333333333 877 493.333333333 885 498 c 5
EndSplineSet
Validated: 1572897
EndChar

StartChar: petasti_kentima
Encoding: 57410 57410 56
Width: 1367
VWidth: 345
Flags: W
HStem: 133.5 38<761.719 992.868> 469.5 28.5<406.502 446.671 949.611 1054.74> 636 114<164.26 1218.87>
VStem: 1103.5 149.5<261.308 407.941>
AnchorPoint: "klasma-bottom" 800 53 basechar 0
AnchorPoint: "psifiston" 711 49 basechar 0
AnchorPoint: "diesis" 464 147 basechar 0
LayerCount: 2
Fore
SplineSet
75 766.5 m 0
 78.3333333333 771.5 81.8333333333 774.166666667 85.5 774.5 c 0
 89.1666666667 774.833333333 93.3333333333 773.666666667 98 771 c 0
 102.666666667 768.333333333 108.333333333 765.333333333 115 762 c 0
 121.666666667 758.666666667 130.5 755.833333333 141.5 753.5 c 0
 152.5 751.166666667 167.666666667 750 187 750 c 2
 1125 750 l 2
 1143 750 1159.16666667 748.5 1173.5 745.5 c 0
 1187.83333333 742.5 1201 737.833333333 1213 731.5 c 0
 1225 725.166666667 1234.33333333 719.5 1241 714.5 c 0
 1247.66666667 709.5 1256.83333333 701.166666667 1268.5 689.5 c 0
 1280.16666667 677.833333333 1290 666.166666667 1298 654.5 c 0
 1306 642.833333333 1307.66666667 631.666666667 1303 621 c 0
 1298.33333333 613 1292.66666667 611.333333333 1286 616 c 0
 1279.33333333 620.666666667 1271.5 624.666666667 1262.5 628 c 0
 1253.5 631.333333333 1243.83333333 633.5 1233.5 634.5 c 0
 1223.16666667 635.5 1207.33333333 636 1186 636 c 2
 260 636 l 2
 245.333333333 636 232.166666667 637 220.5 639 c 0
 208.833333333 641 199.666666667 643.166666667 193 645.5 c 0
 186.333333333 647.833333333 179.333333333 650.666666667 172 654 c 0
 164.666666667 657.333333333 156.833333333 661.833333333 148.5 667.5 c 0
 140.166666667 673.166666667 131.166666667 680.833333333 121.5 690.5 c 0
 111.833333333 700.166666667 102.166666667 711.333333333 92.5 724 c 0
 82.8333333333 736.666666667 76.6666666667 745.666666667 74 751 c 0
 71.3333333333 756.333333333 71.6666666667 761.5 75 766.5 c 0
958 498 m 5
 983.333333333 507.333333333 1026.33333333 506.666666667 1087 496 c 5
 1122.33333333 486.666666667 1153.5 474.833333333 1180.5 460.5 c 4
 1207.5 446.166666667 1228.33333333 420.666666667 1243 384 c 5
 1253 348.666666667 1256.33333333 320.333333333 1253 299 c 4
 1249.66666667 277.666666667 1238 253.333333333 1218 226 c 1
 1198.66666667 202.666666667 1176.16666667 185.166666667 1150.5 173.5 c 0
 1124.83333333 161.833333333 1093.33333333 152 1056 144 c 0
 1018.66666667 136.666666667 988.333333333 133.166666667 965 133.5 c 0
 941.666666667 133.833333333 916.333333333 134.333333333 889 135 c 0
 862.333333333 136.333333333 837.5 138.5 814.5 141.5 c 0
 791.5 144.5 763.666666667 151 731 161 c 0
 677 175.666666667 623.666666667 196 571 222 c 0
 541.666666667 236.666666667 510.5 252.5 477.5 269.5 c 4
 444.5 286.5 407.666666667 306.666666667 367 330 c 4
 348.333333333 341.333333333 327.833333333 353.5 305.5 366.5 c 4
 283.166666667 379.5 259.333333333 392.666666667 234 406 c 5
 214.666666667 418 195.5 430.166666667 176.5 442.5 c 4
 157.5 454.833333333 149.5 467.166666667 152.5 479.5 c 4
 155.5 491.833333333 162.666666667 497.666666667 174 497 c 4
 185.333333333 496.333333333 221.166666667 496.5 281.5 497.5 c 4
 341.833333333 498.5 394.333333333 498.666666667 439 498 c 5
 457 484.666666667 456.833333333 475.166666667 438.5 469.5 c 4
 420.166666667 463.833333333 406.333333333 456.666666667 397 448 c 4
 380.333333333 430.666666667 373 416.833333333 375 406.5 c 4
 377 396.166666667 379.833333333 388.166666667 383.5 382.5 c 4
 387.166666667 376.833333333 392.666666667 370.833333333 400 364.5 c 4
 407.333333333 358.166666667 425.5 345 454.5 325 c 4
 483.5 305 519.333333333 284 562 262 c 1
 600.666666667 245.333333333 631 231.666666667 653 221 c 0
 675 210.333333333 710.666666667 198.333333333 760 185 c 1
 796.666666667 177.666666667 834 173.166666667 872 171.5 c 0
 910 169.833333333 948.666666667 175.333333333 988 188 c 1
 1015.33333333 200 1034.5 210.333333333 1045.5 219 c 0
 1056.5 227.666666667 1069 242.333333333 1083 263 c 0
 1095 283 1101.83333333 300 1103.5 314 c 4
 1105.16666667 328 1105.33333333 344 1104 362 c 4
 1103.33333333 380.666666667 1101.16666667 394.166666667 1097.5 402.5 c 4
 1093.83333333 410.833333333 1089.16666667 419.333333333 1083.5 428 c 4
 1077.83333333 436.666666667 1070.5 444.5 1061.5 451.5 c 4
 1052.5 458.5 1038.66666667 463.333333333 1020 466 c 4
 1001.33333333 468.666666667 983 471 965 473 c 4
 957 474.333333333 951.833333333 477.666666667 949.5 483 c 4
 947.166666667 488.333333333 950 493.333333333 958 498 c 5
EndSplineSet
Validated: 1572897
EndChar

StartChar: uniE043
Encoding: 57411 57411 57
Width: 1236
VWidth: 345
Flags: W
HStem: 133.5 38<688.719 920.029> 469.5 28.5<333.041 373.656 876.611 981.738> 800 29<431.784 473.917>
VStem: 1030.5 149.5<261.308 407.941>
AnchorPoint: "diesis" 464 147 basechar 0
AnchorPoint: "klasma-bottom" 800 53 basechar 0
AnchorPoint: "psifiston" 711 49 basechar 0
LayerCount: 2
Fore
SplineSet
453 829 m 0
 475.666666667 829 499.5 828.666666667 524.5 828 c 0
 549.5 827.333333333 572.333333333 825.333333333 593 822 c 1
 607 822 622.5 794.5 639.5 739.5 c 0
 656.5 684.5 676.666666667 636.333333333 700 595 c 0
 707.333333333 581 714.666666667 573 722 571 c 0
 728 569 732.666666667 565.5 736 560.5 c 0
 739.333333333 555.5 736 551 726 547 c 1
 702.666666667 543 679.166666667 541.333333333 655.5 542 c 0
 631.833333333 542.666666667 609.333333333 544.333333333 588 547 c 1
 568 555 551.5 580.666666667 538.5 624 c 0
 525.5 667.333333333 507 717.666666667 483 775 c 0
 481 778.333333333 477 782.833333333 471 788.5 c 0
 465 794.166666667 458 798 450 800 c 0
 439.333333333 802 433.166666667 807.166666667 431.5 815.5 c 0
 429.833333333 823.833333333 437 828.333333333 453 829 c 0
EndSplineSet
Refer: 2 118857 N 1 0 0 1 0 0 2
Validated: 1572897
EndChar

StartChar: uniE044
Encoding: 57412 57412 58
Width: 1236
VWidth: 345
Flags: W
HStem: 133.5 38<683.719 914.868> 469.5 28.5<328.502 368.671 871.611 976.738> 682 22<828.011 904.218> 1195 30<1225.01 1261.93>
VStem: 1025.5 149.5<261.308 407.941>
AnchorPoint: "diesis" 464 147 basechar 0
AnchorPoint: "klasma-bottom" 800 53 basechar 0
AnchorPoint: "psifiston" 711 49 basechar 0
LayerCount: 2
Fore
SplineSet
880 498 m 1
 905.333333333 507.333333333 948.333333333 506.666666667 1009 496 c 1
 1044.33333333 486.666666667 1075.5 474.833333333 1102.5 460.5 c 0
 1129.5 446.166666667 1150.33333333 420.666666667 1165 384 c 1
 1175 348.666666667 1178.33333333 320.333333333 1175 299 c 0
 1171.66666667 277.666666667 1160 253.333333333 1140 226 c 1
 1120.66666667 202.666666667 1098.16666667 185.166666667 1072.5 173.5 c 0
 1046.83333333 161.833333333 1015.33333333 152 978 144 c 0
 940.666666667 136.666666667 910.333333333 133.166666667 887 133.5 c 0
 863.666666667 133.833333333 838.333333333 134.333333333 811 135 c 0
 784.333333333 136.333333333 759.5 138.5 736.5 141.5 c 0
 713.5 144.5 685.666666667 151 653 161 c 0
 599 175.666666667 545.666666667 196 493 222 c 0
 463.666666667 236.666666667 432.5 252.5 399.5 269.5 c 0
 366.5 286.5 329.666666667 306.666666667 289 330 c 0
 270.333333333 341.333333333 249.833333333 353.5 227.5 366.5 c 0
 205.166666667 379.5 181.333333333 392.666666667 156 406 c 1
 136.666666667 418 117.5 430.166666667 98.5 442.5 c 0
 79.5 454.833333333 71.5 467.166666667 74.5 479.5 c 0
 77.5 491.833333333 84.6666666667 497.666666667 96 497 c 0
 107.333333333 496.333333333 143 496.5 203 497.5 c 0
 263 498.5 315.666666667 498.666666667 361 498 c 1
 379 484.666666667 378.833333333 475.166666667 360.5 469.5 c 0
 342.166666667 463.833333333 328.333333333 456.666666667 319 448 c 0
 302.333333333 430.666666667 295 416.833333333 297 406.5 c 0
 299 396.166666667 301.833333333 388.166666667 305.5 382.5 c 0
 309.166666667 376.833333333 314.666666667 370.833333333 322 364.5 c 0
 329.333333333 358.166666667 347.333333333 345 376 325 c 0
 404.666666667 305 440.666666667 284 484 262 c 1
 522.666666667 245.333333333 553 231.666666667 575 221 c 0
 597 210.333333333 632.666666667 198.333333333 682 185 c 1
 718.666666667 177.666666667 756 173.166666667 794 171.5 c 0
 832 169.833333333 870.666666667 175.333333333 910 188 c 1
 937.333333333 200 956.5 210.333333333 967.5 219 c 0
 978.5 227.666666667 991 242.333333333 1005 263 c 0
 1017 283 1023.83333333 300 1025.5 314 c 0
 1027.16666667 328 1027.33333333 344 1026 362 c 0
 1025.33333333 380.666666667 1023.16666667 394.166666667 1019.5 402.5 c 0
 1015.83333333 410.833333333 1011.16666667 419.333333333 1005.5 428 c 0
 999.833333333 436.666666667 992.5 444.5 983.5 451.5 c 0
 974.5 458.5 960.666666667 463.333333333 942 466 c 0
 923.333333333 468.666666667 905 471 887 473 c 0
 879 474.333333333 873.833333333 477.666666667 871.5 483 c 0
 869.166666667 488.333333333 872 493.333333333 880 498 c 1
1248 1225 m 1
 1258.66666667 1223 1263.33333333 1217.83333333 1262 1209.5 c 0
 1260.66666667 1201.16666667 1254 1196.33333333 1242 1195 c 1
 1228.66666667 1190.33333333 1218 1173.5 1210 1144.5 c 0
 1202 1115.5 1193.33333333 1085 1184 1053 c 0
 1162.66666667 977 1143 915.333333333 1125 868 c 0
 1107 820.666666667 1090 787.666666667 1074 769 c 0
 1058 750.333333333 1039 736 1017 726 c 0
 982.333333333 711.333333333 948.333333333 700.333333333 915 693 c 0
 881.666666667 685.666666667 852.666666667 682 828 682 c 1
 840.666666667 653.333333333 861.166666667 633.5 889.5 622.5 c 0
 917.833333333 611.5 926 599.666666667 914 587 c 0
 906.666666667 579.666666667 884.5 588.833333333 847.5 614.5 c 0
 810.5 640.166666667 785 665.333333333 771 690 c 1
 771 705.333333333 777.5 711.833333333 790.5 709.5 c 0
 803.5 707.166666667 817.666666667 705.333333333 833 704 c 256
 847.666666667 703.333333333 862.666666667 704.333333333 878 707 c 0
 893.333333333 709.666666667 914 717.666666667 940 731 c 0
 953.333333333 737.666666667 965.666666667 752.166666667 977 774.5 c 0
 988.333333333 796.833333333 998.5 821.666666667 1007.5 849 c 0
 1016.5 876.333333333 1024.33333333 903.5 1031 930.5 c 0
 1037.66666667 957.5 1046 996.5 1056 1047.5 c 0
 1066 1098.5 1074.83333333 1132.66666667 1082.5 1150 c 0
 1090.16666667 1167.33333333 1100.83333333 1181.33333333 1114.5 1192 c 0
 1128.16666667 1202.66666667 1141.16666667 1209.5 1153.5 1212.5 c 0
 1165.83333333 1215.5 1179.66666667 1217.66666667 1195 1219 c 0
 1210.33333333 1220.33333333 1228 1222.33333333 1248 1225 c 1
EndSplineSet
Validated: 1572897
EndChar

StartChar: uniE045
Encoding: 57413 57413 59
Width: 1236
VWidth: 345
Flags: W
HStem: 133.5 38<683.719 914.868> 469.5 28.5<328.502 368.671 871.611 976.738> 653 23<225.709 308.188> 1190 32<641.32 679.933>
VStem: 1025.5 149.5<261.308 407.941>
AnchorPoint: "diesis" 464 147 basechar 0
AnchorPoint: "klasma-bottom" 800 53 basechar 0
AnchorPoint: "psifiston" 711 49 basechar 0
LayerCount: 2
Fore
SplineSet
880 498 m 1
 905.333333333 507.333333333 948.333333333 506.666666667 1009 496 c 1
 1044.33333333 486.666666667 1075.5 474.833333333 1102.5 460.5 c 0
 1129.5 446.166666667 1150.33333333 420.666666667 1165 384 c 1
 1175 348.666666667 1178.33333333 320.333333333 1175 299 c 0
 1171.66666667 277.666666667 1160 253.333333333 1140 226 c 1
 1120.66666667 202.666666667 1098.16666667 185.166666667 1072.5 173.5 c 0
 1046.83333333 161.833333333 1015.33333333 152 978 144 c 0
 940.666666667 136.666666667 910.333333333 133.166666667 887 133.5 c 0
 863.666666667 133.833333333 838.333333333 134.333333333 811 135 c 0
 784.333333333 136.333333333 759.5 138.5 736.5 141.5 c 0
 713.5 144.5 685.666666667 151 653 161 c 0
 599 175.666666667 545.666666667 196 493 222 c 0
 463.666666667 236.666666667 432.5 252.5 399.5 269.5 c 0
 366.5 286.5 329.666666667 306.666666667 289 330 c 0
 270.333333333 341.333333333 249.833333333 353.5 227.5 366.5 c 0
 205.166666667 379.5 181.333333333 392.666666667 156 406 c 1
 136.666666667 418 117.5 430.166666667 98.5 442.5 c 0
 79.5 454.833333333 71.5 467.166666667 74.5 479.5 c 0
 77.5 491.833333333 84.6666666667 497.666666667 96 497 c 0
 107.333333333 496.333333333 143 496.5 203 497.5 c 0
 263 498.5 315.666666667 498.666666667 361 498 c 1
 379 484.666666667 378.833333333 475.166666667 360.5 469.5 c 0
 342.166666667 463.833333333 328.333333333 456.666666667 319 448 c 0
 302.333333333 430.666666667 295 416.833333333 297 406.5 c 0
 299 396.166666667 301.833333333 388.166666667 305.5 382.5 c 0
 309.166666667 376.833333333 314.666666667 370.833333333 322 364.5 c 0
 329.333333333 358.166666667 347.333333333 345 376 325 c 0
 404.666666667 305 440.666666667 284 484 262 c 1
 522.666666667 245.333333333 553 231.666666667 575 221 c 0
 597 210.333333333 632.666666667 198.333333333 682 185 c 1
 718.666666667 177.666666667 756 173.166666667 794 171.5 c 0
 832 169.833333333 870.666666667 175.333333333 910 188 c 1
 937.333333333 200 956.5 210.333333333 967.5 219 c 0
 978.5 227.666666667 991 242.333333333 1005 263 c 0
 1017 283 1023.83333333 300 1025.5 314 c 0
 1027.16666667 328 1027.33333333 344 1026 362 c 0
 1025.33333333 380.666666667 1023.16666667 394.166666667 1019.5 402.5 c 0
 1015.83333333 410.833333333 1011.16666667 419.333333333 1005.5 428 c 0
 999.833333333 436.666666667 992.5 444.5 983.5 451.5 c 0
 974.5 458.5 960.666666667 463.333333333 942 466 c 0
 923.333333333 468.666666667 905 471 887 473 c 0
 879 474.333333333 873.833333333 477.666666667 871.5 483 c 0
 869.166666667 488.333333333 872 493.333333333 880 498 c 1
666 1222 m 1
 676.666666667 1220 681.333333333 1214.5 680 1205.5 c 0
 678.666666667 1196.5 671.666666667 1191.33333333 659 1190 c 1
 645 1185.33333333 633.833333333 1167.83333333 625.5 1137.5 c 0
 617.166666667 1107.16666667 608 1075 598 1041 c 0
 575.333333333 961.666666667 554.666666667 897.333333333 536 848 c 0
 517.333333333 798.666666667 499.666666667 764 483 744 c 0
 466.333333333 724 446.333333333 709 423 699 c 0
 387 683.666666667 351.5 672.166666667 316.5 664.5 c 0
 281.5 656.833333333 251 653 225 653 c 1
 237.666666667 623 259 602.166666667 289 590.5 c 0
 319 578.833333333 327.666666667 566.333333333 315 553 c 0
 307.666666667 545.666666667 284.666666667 555.333333333 246 582 c 0
 207.333333333 608.666666667 180.666666667 635 166 661 c 1
 166 677.666666667 172.833333333 684.666666667 186.5 682 c 0
 200.166666667 679.333333333 214.666666667 677.333333333 230 676 c 256
 245.333333333 675.333333333 261.166666667 676.166666667 277.5 678.5 c 0
 293.833333333 680.833333333 315.666666667 689 343 703 c 0
 356.333333333 709.666666667 369 724.833333333 381 748.5 c 0
 393 772.166666667 403.833333333 798.5 413.5 827.5 c 0
 423.166666667 856.5 431.333333333 885.166666667 438 913.5 c 0
 444.666666667 941.833333333 453.333333333 982.666666667 464 1036 c 0
 474.666666667 1089.33333333 484 1125 492 1143 c 0
 500 1161 511.166666667 1175.5 525.5 1186.5 c 0
 539.833333333 1197.5 553.5 1204.66666667 566.5 1208 c 0
 579.5 1211.33333333 594 1213.83333333 610 1215.5 c 0
 626 1217.16666667 644.666666667 1219.33333333 666 1222 c 1
EndSplineSet
Validated: 1572897
EndChar

StartChar: uniE046
Encoding: 57414 57414 60
Width: 1234
VWidth: 345
Flags: W
HStem: 133.5 38<683.719 914.868> 469.5 28.5<328.502 368.671 871.611 976.738> 682 22<828.011 904.218> 800 29<431.784 473.917> 1195 30<1225.01 1261.93>
VStem: 1025.5 149.5<261.308 407.941>
AnchorPoint: "diesis" 464 147 basechar 0
AnchorPoint: "klasma-bottom" 800 53 basechar 0
AnchorPoint: "psifiston" 711 49 basechar 0
LayerCount: 2
Fore
SplineSet
453 829 m 0
 475.666666667 829 499.5 828.666666667 524.5 828 c 0
 549.5 827.333333333 572.333333333 825.333333333 593 822 c 1
 607 822 622.5 794.5 639.5 739.5 c 0
 656.5 684.5 676.666666667 636.333333333 700 595 c 0
 707.333333333 581 714.666666667 573 722 571 c 0
 728 569 732.666666667 565.5 736 560.5 c 0
 739.333333333 555.5 736 551 726 547 c 1
 702.666666667 543 679.166666667 541.333333333 655.5 542 c 0
 631.833333333 542.666666667 609.333333333 544.333333333 588 547 c 1
 568 555 551.5 580.666666667 538.5 624 c 0
 525.5 667.333333333 507 717.666666667 483 775 c 0
 481 778.333333333 477 782.833333333 471 788.5 c 0
 465 794.166666667 458 798 450 800 c 0
 439.333333333 802 433.166666667 807.166666667 431.5 815.5 c 0
 429.833333333 823.833333333 437 828.333333333 453 829 c 0
880 498 m 1
 905.333333333 507.333333333 948.333333333 506.666666667 1009 496 c 1
 1044.33333333 486.666666667 1075.5 474.833333333 1102.5 460.5 c 0
 1129.5 446.166666667 1150.33333333 420.666666667 1165 384 c 1
 1175 348.666666667 1178.33333333 320.333333333 1175 299 c 0
 1171.66666667 277.666666667 1160 253.333333333 1140 226 c 1
 1120.66666667 202.666666667 1098.16666667 185.166666667 1072.5 173.5 c 0
 1046.83333333 161.833333333 1015.33333333 152 978 144 c 0
 940.666666667 136.666666667 910.333333333 133.166666667 887 133.5 c 0
 863.666666667 133.833333333 838.333333333 134.333333333 811 135 c 0
 784.333333333 136.333333333 759.5 138.5 736.5 141.5 c 0
 713.5 144.5 685.666666667 151 653 161 c 0
 599 175.666666667 545.666666667 196 493 222 c 0
 463.666666667 236.666666667 432.5 252.5 399.5 269.5 c 0
 366.5 286.5 329.666666667 306.666666667 289 330 c 0
 270.333333333 341.333333333 249.833333333 353.5 227.5 366.5 c 0
 205.166666667 379.5 181.333333333 392.666666667 156 406 c 1
 136.666666667 418 117.5 430.166666667 98.5 442.5 c 0
 79.5 454.833333333 71.5 467.166666667 74.5 479.5 c 0
 77.5 491.833333333 84.6666666667 497.666666667 96 497 c 0
 107.333333333 496.333333333 143 496.5 203 497.5 c 0
 263 498.5 315.666666667 498.666666667 361 498 c 1
 379 484.666666667 378.833333333 475.166666667 360.5 469.5 c 0
 342.166666667 463.833333333 328.333333333 456.666666667 319 448 c 0
 302.333333333 430.666666667 295 416.833333333 297 406.5 c 0
 299 396.166666667 301.833333333 388.166666667 305.5 382.5 c 0
 309.166666667 376.833333333 314.666666667 370.833333333 322 364.5 c 0
 329.333333333 358.166666667 347.333333333 345 376 325 c 0
 404.666666667 305 440.666666667 284 484 262 c 1
 522.666666667 245.333333333 553 231.666666667 575 221 c 0
 597 210.333333333 632.666666667 198.333333333 682 185 c 1
 718.666666667 177.666666667 756 173.166666667 794 171.5 c 0
 832 169.833333333 870.666666667 175.333333333 910 188 c 1
 937.333333333 200 956.5 210.333333333 967.5 219 c 0
 978.5 227.666666667 991 242.333333333 1005 263 c 0
 1017 283 1023.83333333 300 1025.5 314 c 0
 1027.16666667 328 1027.33333333 344 1026 362 c 0
 1025.33333333 380.666666667 1023.16666667 394.166666667 1019.5 402.5 c 0
 1015.83333333 410.833333333 1011.16666667 419.333333333 1005.5 428 c 0
 999.833333333 436.666666667 992.5 444.5 983.5 451.5 c 0
 974.5 458.5 960.666666667 463.333333333 942 466 c 0
 923.333333333 468.666666667 905 471 887 473 c 0
 879 474.333333333 873.833333333 477.666666667 871.5 483 c 0
 869.166666667 488.333333333 872 493.333333333 880 498 c 1
1248 1225 m 1
 1258.66666667 1223 1263.33333333 1217.83333333 1262 1209.5 c 0
 1260.66666667 1201.16666667 1254 1196.33333333 1242 1195 c 1
 1228.66666667 1190.33333333 1218 1173.5 1210 1144.5 c 0
 1202 1115.5 1193.33333333 1085 1184 1053 c 0
 1162.66666667 977 1143 915.333333333 1125 868 c 0
 1107 820.666666667 1090 787.666666667 1074 769 c 0
 1058 750.333333333 1039 736 1017 726 c 0
 982.333333333 711.333333333 948.333333333 700.333333333 915 693 c 0
 881.666666667 685.666666667 852.666666667 682 828 682 c 1
 840.666666667 653.333333333 861.166666667 633.5 889.5 622.5 c 0
 917.833333333 611.5 926 599.666666667 914 587 c 0
 906.666666667 579.666666667 884.5 588.833333333 847.5 614.5 c 0
 810.5 640.166666667 785 665.333333333 771 690 c 1
 771 705.333333333 777.5 711.833333333 790.5 709.5 c 0
 803.5 707.166666667 817.666666667 705.333333333 833 704 c 256
 847.666666667 703.333333333 862.666666667 704.333333333 878 707 c 0
 893.333333333 709.666666667 914 717.666666667 940 731 c 0
 953.333333333 737.666666667 965.666666667 752.166666667 977 774.5 c 0
 988.333333333 796.833333333 998.5 821.666666667 1007.5 849 c 0
 1016.5 876.333333333 1024.33333333 903.5 1031 930.5 c 0
 1037.66666667 957.5 1046 996.5 1056 1047.5 c 0
 1066 1098.5 1074.83333333 1132.66666667 1082.5 1150 c 0
 1090.16666667 1167.33333333 1100.83333333 1181.33333333 1114.5 1192 c 0
 1128.16666667 1202.66666667 1141.16666667 1209.5 1153.5 1212.5 c 0
 1165.83333333 1215.5 1179.66666667 1217.66666667 1195 1219 c 0
 1210.33333333 1220.33333333 1228 1222.33333333 1248 1225 c 1
EndSplineSet
Validated: 1572897
EndChar

StartChar: uniE047
Encoding: 57415 57415 61
Width: 1236
VWidth: 345
Flags: W
HStem: 133.5 38<683.719 914.868> 469.5 28.5<328.502 368.671 871.611 976.738> 641 26<477.26 518.917> 790 19<559.08 633.875> 1243 27<943.51 978.934>
VStem: 1025.5 149.5<261.308 407.941>
AnchorPoint: "diesis" 464 147 basechar 0
AnchorPoint: "klasma-bottom" 800 53 basechar 0
AnchorPoint: "psifiston" 711 49 basechar 0
LayerCount: 2
Fore
SplineSet
499 667 m 0
 521.666666667 667 545.333333333 666.666666667 570 666 c 0
 594.666666667 665.333333333 617.333333333 663.666666667 638 661 c 1
 652 661 667.5 636 684.5 586 c 0
 701.5 536 721.666666667 492 745 454 c 0
 753 441.333333333 760.333333333 434 767 432 c 0
 773 430 777.666666667 426.833333333 781 422.5 c 0
 784.333333333 418.166666667 781 414.333333333 771 411 c 1
 747.666666667 407 724.333333333 405.333333333 701 406 c 0
 677.666666667 406.666666667 655 408.333333333 633 411 c 1
 612.333333333 418.333333333 595.666666667 441.666666667 583 481 c 0
 570.333333333 520.333333333 552 566.333333333 528 619 c 0
 526 621.666666667 522 625.5 516 630.5 c 0
 510 635.5 503 639 495 641 c 0
 484.333333333 642.333333333 478.333333333 647 477 655 c 0
 475.666666667 663 483 667 499 667 c 0
880 498 m 1
 905.333333333 507.333333333 948.333333333 506.666666667 1009 496 c 1
 1044.33333333 486.666666667 1075.5 474.833333333 1102.5 460.5 c 0
 1129.5 446.166666667 1150.33333333 420.666666667 1165 384 c 1
 1175 348.666666667 1178.33333333 320.333333333 1175 299 c 0
 1171.66666667 277.666666667 1160 253.333333333 1140 226 c 1
 1120.66666667 202.666666667 1098.16666667 185.166666667 1072.5 173.5 c 0
 1046.83333333 161.833333333 1015.33333333 152 978 144 c 0
 940.666666667 136.666666667 910.333333333 133.166666667 887 133.5 c 0
 863.666666667 133.833333333 838.333333333 134.333333333 811 135 c 0
 784.333333333 136.333333333 759.5 138.5 736.5 141.5 c 0
 713.5 144.5 685.666666667 151 653 161 c 0
 599 175.666666667 545.666666667 196 493 222 c 0
 463.666666667 236.666666667 432.5 252.5 399.5 269.5 c 0
 366.5 286.5 329.666666667 306.666666667 289 330 c 0
 270.333333333 341.333333333 249.833333333 353.5 227.5 366.5 c 0
 205.166666667 379.5 181.333333333 392.666666667 156 406 c 1
 136.666666667 418 117.5 430.166666667 98.5 442.5 c 0
 79.5 454.833333333 71.5 467.166666667 74.5 479.5 c 0
 77.5 491.833333333 84.6666666667 497.666666667 96 497 c 0
 107.333333333 496.333333333 143 496.5 203 497.5 c 0
 263 498.5 315.666666667 498.666666667 361 498 c 1
 379 484.666666667 378.833333333 475.166666667 360.5 469.5 c 0
 342.166666667 463.833333333 328.333333333 456.666666667 319 448 c 0
 302.333333333 430.666666667 295 416.833333333 297 406.5 c 0
 299 396.166666667 301.833333333 388.166666667 305.5 382.5 c 0
 309.166666667 376.833333333 314.666666667 370.833333333 322 364.5 c 0
 329.333333333 358.166666667 347.333333333 345 376 325 c 0
 404.666666667 305 440.666666667 284 484 262 c 1
 522.666666667 245.333333333 553 231.666666667 575 221 c 0
 597 210.333333333 632.666666667 198.333333333 682 185 c 1
 718.666666667 177.666666667 756 173.166666667 794 171.5 c 0
 832 169.833333333 870.666666667 175.333333333 910 188 c 1
 937.333333333 200 956.5 210.333333333 967.5 219 c 0
 978.5 227.666666667 991 242.333333333 1005 263 c 0
 1017 283 1023.83333333 300 1025.5 314 c 0
 1027.16666667 328 1027.33333333 344 1026 362 c 0
 1025.33333333 380.666666667 1023.16666667 394.166666667 1019.5 402.5 c 0
 1015.83333333 410.833333333 1011.16666667 419.333333333 1005.5 428 c 0
 999.833333333 436.666666667 992.5 444.5 983.5 451.5 c 0
 974.5 458.5 960.666666667 463.333333333 942 466 c 0
 923.333333333 468.666666667 905 471 887 473 c 0
 879 474.333333333 873.833333333 477.666666667 871.5 483 c 0
 869.166666667 488.333333333 872 493.333333333 880 498 c 1
966 1270 m 1
 976 1268.66666667 980.333333333 1264 979 1256 c 0
 977.666666667 1248 971.333333333 1243.66666667 960 1243 c 1
 947.333333333 1239 937 1224.16666667 929 1198.5 c 0
 921 1172.83333333 912.666666667 1145.66666667 904 1117 c 0
 883.333333333 1049.66666667 864.166666667 995.166666667 846.5 953.5 c 0
 828.833333333 911.833333333 812.333333333 882.833333333 797 866.5 c 0
 781.666666667 850.166666667 763.333333333 837.666666667 742 829 c 0
 708.666666667 815.666666667 675.666666667 805.833333333 643 799.5 c 0
 610.333333333 793.166666667 582.333333333 790 559 790 c 1
 571 764 590.666666667 746.166666667 618 736.5 c 0
 645.333333333 726.833333333 653.333333333 716.333333333 642 705 c 0
 635.333333333 699 614 707.333333333 578 730 c 0
 542 752.666666667 517.333333333 775 504 797 c 1
 504 811 510.333333333 816.833333333 523 814.5 c 0
 535.666666667 812.166666667 549 810.333333333 563 809 c 0
 577.666666667 808.333333333 592.5 809.166666667 607.5 811.5 c 0
 622.5 813.833333333 642.666666667 820.666666667 668 832 c 0
 680.666666667 838 692.333333333 851 703 871 c 0
 713.666666667 891 723.5 913.166666667 732.5 937.5 c 0
 741.5 961.833333333 749.166666667 985.833333333 755.5 1009.5 c 0
 761.833333333 1033.16666667 769.833333333 1067.5 779.5 1112.5 c 0
 789.166666667 1157.5 797.666666667 1187.66666667 805 1203 c 0
 812.333333333 1218.33333333 822.666666667 1230.66666667 836 1240 c 0
 849.333333333 1249.33333333 862 1255.33333333 874 1258 c 0
 886 1260.66666667 899.5 1262.83333333 914.5 1264.5 c 0
 929.5 1266.16666667 946.666666667 1268 966 1270 c 1
EndSplineSet
Validated: 1572897
EndChar

StartChar: uniE060
Encoding: 57440 57440 62
Width: 1236
VWidth: 345
Flags: W
HStem: 133.5 38<683.719 914.868> 455 32<533.995 587.781> 469.5 28.5<328.502 368.671 871.611 976.738> 787 24<222.611 297.379>
VStem: 1025.5 149.5<261.308 407.941>
AnchorPoint: "diesis" 464 147 basechar 0
AnchorPoint: "yfesis" 802 879 basechar 0
AnchorPoint: "psifiston" 711 49 basechar 0
AnchorPoint: "klasma-bottom" 800 53 basechar 0
LayerCount: 2
Fore
SplineSet
533 463 m 1xd8
 525.666666667 469 525.333333333 474.5 532 479.5 c 0
 538.666666667 484.5 547 487 557 487 c 0
 567.666666667 487 582.833333333 496.666666667 602.5 516 c 0
 622.166666667 535.333333333 635 559.666666667 641 589 c 0
 651 638.333333333 625.333333333 678 564 708 c 0
 540.666666667 719.333333333 511.333333333 729.5 476 738.5 c 0
 440.666666667 747.5 405.666666667 755.333333333 371 762 c 0
 336.333333333 768.666666667 305.833333333 774 279.5 778 c 0
 253.166666667 782 237.666666667 785 233 787 c 0
 223.666666667 790.333333333 220.166666667 795.166666667 222.5 801.5 c 0
 224.833333333 807.833333333 230 811 238 811 c 0
 241.333333333 811 256 809.5 282 806.5 c 0
 308 803.5 339 798.833333333 375 792.5 c 0
 411 786.166666667 449.333333333 778.333333333 490 769 c 0
 530.666666667 759.666666667 567.333333333 748.666666667 600 736 c 0
 639.333333333 720.666666667 670.666666667 705.166666667 694 689.5 c 0
 717.333333333 673.833333333 738.666666667 653.333333333 758 628 c 0
 777.333333333 601.333333333 785.5 575 782.5 549 c 0
 779.5 523 768.333333333 503 749 489 c 0
 731.666666667 475.666666667 711.333333333 466.666666667 688 462 c 0
 664.666666667 457.333333333 642.666666667 455 622 455 c 0
 600.666666667 455 585.833333333 455.166666667 577.5 455.5 c 0
 569.166666667 455.833333333 554.333333333 458.333333333 533 463 c 1xd8
880 498 m 1xb8
 905.333333333 507.333333333 948.333333333 506.666666667 1009 496 c 1
 1044.33333333 486.666666667 1075.5 474.833333333 1102.5 460.5 c 0
 1129.5 446.166666667 1150.33333333 420.666666667 1165 384 c 1
 1175 348.666666667 1178.33333333 320.333333333 1175 299 c 0
 1171.66666667 277.666666667 1160 253.333333333 1140 226 c 1
 1120.66666667 202.666666667 1098.16666667 185.166666667 1072.5 173.5 c 0
 1046.83333333 161.833333333 1015.33333333 152 978 144 c 0
 940.666666667 136.666666667 910.333333333 133.166666667 887 133.5 c 0
 863.666666667 133.833333333 838.333333333 134.333333333 811 135 c 0
 784.333333333 136.333333333 759.5 138.5 736.5 141.5 c 0
 713.5 144.5 685.666666667 151 653 161 c 0
 599 175.666666667 545.666666667 196 493 222 c 0
 463.666666667 236.666666667 432.5 252.5 399.5 269.5 c 0
 366.5 286.5 329.666666667 306.666666667 289 330 c 0
 270.333333333 341.333333333 249.833333333 353.5 227.5 366.5 c 0
 205.166666667 379.5 181.333333333 392.666666667 156 406 c 1
 136.666666667 418 117.5 430.166666667 98.5 442.5 c 0
 79.5 454.833333333 71.5 467.166666667 74.5 479.5 c 0
 77.5 491.833333333 84.6666666667 497.666666667 96 497 c 0
 107.333333333 496.333333333 143 496.5 203 497.5 c 0
 263 498.5 315.666666667 498.666666667 361 498 c 1
 379 484.666666667 378.833333333 475.166666667 360.5 469.5 c 0
 342.166666667 463.833333333 328.333333333 456.666666667 319 448 c 0
 302.333333333 430.666666667 295 416.833333333 297 406.5 c 0
 299 396.166666667 301.833333333 388.166666667 305.5 382.5 c 0
 309.166666667 376.833333333 314.666666667 370.833333333 322 364.5 c 0
 329.333333333 358.166666667 347.333333333 345 376 325 c 0
 404.666666667 305 440.666666667 284 484 262 c 1
 522.666666667 245.333333333 553 231.666666667 575 221 c 0
 597 210.333333333 632.666666667 198.333333333 682 185 c 1
 718.666666667 177.666666667 756 173.166666667 794 171.5 c 0
 832 169.833333333 870.666666667 175.333333333 910 188 c 1
 937.333333333 200 956.5 210.333333333 967.5 219 c 0
 978.5 227.666666667 991 242.333333333 1005 263 c 0
 1017 283 1023.83333333 300 1025.5 314 c 0
 1027.16666667 328 1027.33333333 344 1026 362 c 0
 1025.33333333 380.666666667 1023.16666667 394.166666667 1019.5 402.5 c 0
 1015.83333333 410.833333333 1011.16666667 419.333333333 1005.5 428 c 0
 999.833333333 436.666666667 992.5 444.5 983.5 451.5 c 0
 974.5 458.5 960.666666667 463.333333333 942 466 c 0
 923.333333333 468.666666667 905 471 887 473 c 0
 879 474.333333333 873.833333333 477.666666667 871.5 483 c 0
 869.166666667 488.333333333 872 493.333333333 880 498 c 1xb8
EndSplineSet
Validated: 1572897
EndChar

StartChar: uniE062
Encoding: 57442 57442 63
Width: 1242
VWidth: 345
Flags: W
HStem: 133.5 38<688.719 920.029> 469.5 28.5<333.041 373.656 876.611 981.738> 595 28.5<278.262 383.389 886.329 926.498> 920.5 39<338.797 569.561>
VStem: 80 149<684.031 829.995> 1031 149<262.036 407.969>
AnchorPoint: "diesis" 464 147 basechar 0
AnchorPoint: "yfesis" 1028 1025 basechar 0
AnchorPoint: "psifiston" 711 49 basechar 0
AnchorPoint: "klasma-bottom" 800 53 basechar 0
LayerCount: 2
Fore
SplineSet
375 595 m 1
 349.666666667 585.666666667 306.666666667 586 246 596 c 1
 210.666666667 604.666666667 179.5 616.333333333 152.5 631 c 0
 125.5 645.666666667 104.666666667 671.333333333 90 708 c 1
 80 743.333333333 76.6666666667 771.5 80 792.5 c 0
 83.3333333333 813.5 95 838 115 866 c 1
 134.333333333 889.333333333 156.833333333 907 182.5 919 c 0
 208.166666667 931 239.666666667 941 277 949 c 0
 314.333333333 956.333333333 344.666666667 959.833333333 368 959.5 c 0
 391.333333333 959.166666667 416.666666667 958.333333333 444 957 c 0
 470.666666667 955.666666667 495.5 953.5 518.5 950.5 c 0
 541.5 947.5 569.333333333 941 602 931 c 0
 656 916.333333333 709.333333333 896 762 870 c 0
 791.333333333 855.333333333 822.5 839.5 855.5 822.5 c 0
 888.5 805.5 925.333333333 785.333333333 966 762 c 0
 984.666666667 750.666666667 1005.16666667 738.666666667 1027.5 726 c 0
 1049.83333333 713.333333333 1073.66666667 700.333333333 1099 687 c 1
 1118.33333333 675 1137.5 662.833333333 1156.5 650.5 c 0
 1175.5 638.166666667 1183.5 625.833333333 1180.5 613.5 c 0
 1177.5 601.166666667 1170.33333333 595.333333333 1159 596 c 0
 1147.66666667 596.666666667 1111.83333333 596.333333333 1051.5 595 c 0
 991.166666667 593.666666667 938.666666667 593.666666667 894 595 c 1
 876 608.333333333 876.166666667 617.833333333 894.5 623.5 c 0
 912.833333333 629.166666667 926.666666667 636.333333333 936 645 c 0
 952.666666667 662.333333333 960 676 958 686 c 0
 956 696 953.166666667 703.833333333 949.5 709.5 c 0
 945.833333333 715.166666667 940.333333333 721.333333333 933 728 c 0
 925.666666667 734.666666667 907.5 747.833333333 878.5 767.5 c 0
 849.5 787.166666667 813.666666667 808 771 830 c 1
 732.333333333 846.666666667 702 860.333333333 680 871 c 0
 658 881.666666667 622.333333333 893.666666667 573 907 c 1
 536.333333333 914.333333333 499 918.833333333 461 920.5 c 0
 423 922.166666667 384.333333333 916.666666667 345 904 c 1
 317.666666667 892 298.5 881.833333333 287.5 873.5 c 0
 276.5 865.166666667 264 850.333333333 250 829 c 0
 238 809 231.166666667 792.166666667 229.5 778.5 c 0
 227.833333333 764.833333333 227.666666667 748.666666667 229 730 c 0
 229.666666667 711.333333333 231.833333333 698 235.5 690 c 0
 239.166666667 682 243.833333333 673.666666667 249.5 665 c 0
 255.166666667 656.333333333 262.5 648.5 271.5 641.5 c 0
 280.5 634.5 294.333333333 629.5 313 626.5 c 0
 331.666666667 623.5 350 621 368 619 c 0
 376 617.666666667 381.166666667 614.5 383.5 609.5 c 0
 385.833333333 604.5 383 599.666666667 375 595 c 1
885 498 m 1
 910.333333333 507.333333333 953.333333333 506.666666667 1014 496 c 1
 1049.33333333 487.333333333 1080.5 475.666666667 1107.5 461 c 0
 1134.5 446.333333333 1155.33333333 420.666666667 1170 384 c 1
 1180 348 1183.33333333 319.666666667 1180 299 c 0
 1176.66666667 278.333333333 1165 254 1145 226 c 1
 1125.66666667 202.666666667 1103.16666667 185.166666667 1077.5 173.5 c 0
 1051.83333333 161.833333333 1020 152 982 144 c 0
 944.666666667 136.666666667 914.333333333 133.166666667 891 133.5 c 0
 867.666666667 133.833333333 842.666666667 134.333333333 816 135 c 0
 789.333333333 136.333333333 764.5 138.5 741.5 141.5 c 0
 718.5 144.5 690.666666667 151 658 161 c 0
 604 175.666666667 550.666666667 196 498 222 c 0
 468.666666667 236.666666667 437.333333333 252.5 404 269.5 c 0
 370.666666667 286.5 333.666666667 306.666666667 293 330 c 0
 274.333333333 341.333333333 254 353.5 232 366.5 c 0
 210 379.5 186.333333333 392.666666667 161 406 c 1
 141.666666667 418 122.5 430.166666667 103.5 442.5 c 0
 84.5 454.833333333 76.5 467 79.5 479 c 0
 82.5 491 89.6666666667 496.666666667 101 496 c 0
 112.333333333 495.333333333 148 495.666666667 208 497 c 0
 268 498.333333333 320.666666667 498.666666667 366 498 c 1
 384 484.666666667 383.666666667 475.166666667 365 469.5 c 0
 346.333333333 463.833333333 332.666666667 456.666666667 324 448 c 0
 307.333333333 430.666666667 300 416.833333333 302 406.5 c 0
 304 396.166666667 306.666666667 388.166666667 310 382.5 c 0
 313.333333333 376.833333333 318.666666667 370.833333333 326 364.5 c 0
 333.333333333 358.166666667 351.5 345 380.5 325 c 0
 409.5 305 445.666666667 284 489 262 c 1
 527.666666667 245.333333333 558 231.666666667 580 221 c 0
 602 210.333333333 637.666666667 198.333333333 687 185 c 1
 723.666666667 177.666666667 761 173.166666667 799 171.5 c 0
 837 169.833333333 875.666666667 175.333333333 915 188 c 1
 942.333333333 200 961.5 210.333333333 972.5 219 c 0
 983.5 227.666666667 996 242.333333333 1010 263 c 0
 1022 283 1028.83333333 300 1030.5 314 c 0
 1032.16666667 328 1032.33333333 344 1031 362 c 0
 1030.33333333 380.666666667 1028.16666667 394.166666667 1024.5 402.5 c 0
 1020.83333333 410.833333333 1016 419.333333333 1010 428 c 0
 1004 436.666666667 996.666666667 444.5 988 451.5 c 0
 979.333333333 458.5 965.666666667 463.333333333 947 466 c 0
 928.333333333 468.666666667 910 471 892 473 c 0
 884 474.333333333 878.833333333 477.666666667 876.5 483 c 0
 874.166666667 488.333333333 877 493.333333333 885 498 c 1
EndSplineSet
Validated: 1572897
EndChar

StartChar: uniE064
Encoding: 57444 57444 64
Width: 1243
VWidth: 345
Flags: W
HStem: 133.5 38<688.719 920.029> 469.5 28.5<333.041 373.656 876.611 981.738> 489 22<579.767 625.733> 590 28.5<278.262 383.389 886.329 926.498> 783 21<299.095 362.761> 916 38.5<340.132 567.839>
VStem: 80 149<679.031 824.54> 1030.5 149.5<261.308 407.941>
AnchorPoint: "diesis" 464 147 basechar 0
AnchorPoint: "yfesis" 1028 1025 basechar 0
AnchorPoint: "psifiston" 711 49 basechar 0
AnchorPoint: "klasma-bottom" 800 53 basechar 0
LayerCount: 2
Fore
SplineSet
375 590 m 1x9f
 349.666666667 580.666666667 306.666666667 581 246 591 c 1
 210.666666667 599.666666667 179.5 611.333333333 152.5 626 c 0
 125.5 640.666666667 104.666666667 666.333333333 90 703 c 1
 80 738.333333333 76.6666666667 766.666666667 80 788 c 0
 83.3333333333 809.333333333 95 833.666666667 115 861 c 1
 134.333333333 884.333333333 156.833333333 902 182.5 914 c 0
 208.166666667 926 239.666666667 936 277 944 c 0
 314.333333333 951.333333333 344.666666667 954.833333333 368 954.5 c 0
 391.333333333 954.166666667 416.666666667 953.333333333 444 952 c 0
 470.666666667 950.666666667 495.5 948.5 518.5 945.5 c 0
 541.5 942.5 569.333333333 936 602 926 c 0
 656 911.333333333 709.333333333 891 762 865 c 0
 791.333333333 850.333333333 822.5 834.5 855.5 817.5 c 0
 888.5 800.5 925.333333333 780.666666667 966 758 c 0
 984.666666667 746.666666667 1005.16666667 734.5 1027.5 721.5 c 0
 1049.83333333 708.5 1073.66666667 695.333333333 1099 682 c 1
 1118.33333333 670 1137.5 657.833333333 1156.5 645.5 c 0
 1175.5 633.166666667 1183.5 620.833333333 1180.5 608.5 c 0
 1177.5 596.166666667 1170.33333333 590.333333333 1159 591 c 0
 1147.66666667 591.666666667 1111.83333333 591.333333333 1051.5 590 c 0
 991.166666667 588.666666667 938.666666667 588.666666667 894 590 c 1
 876 603.333333333 876.166666667 612.833333333 894.5 618.5 c 0
 912.833333333 624.166666667 926.666666667 631.333333333 936 640 c 0
 952.666666667 657.333333333 960 671 958 681 c 0
 956 691 953.166666667 698.833333333 949.5 704.5 c 0
 945.833333333 710.166666667 940.333333333 716.333333333 933 723 c 0
 925.666666667 729.666666667 907.5 742.833333333 878.5 762.5 c 0
 849.5 782.166666667 813.666666667 803 771 825 c 1
 732.333333333 841.666666667 702 855.5 680 866.5 c 0
 658 877.5 622.333333333 889.666666667 573 903 c 1
 536.333333333 910.333333333 499 914.666666667 461 916 c 0
 423 917.333333333 384.333333333 911.666666667 345 899 c 1
 317.666666667 887 298.5 876.833333333 287.5 868.5 c 0
 276.5 860.166666667 264 845.333333333 250 824 c 0
 238 804 231.166666667 787.166666667 229.5 773.5 c 0
 227.833333333 759.833333333 227.666666667 743.666666667 229 725 c 0
 229.666666667 706.333333333 231.833333333 693 235.5 685 c 0
 239.166666667 677 243.833333333 668.666666667 249.5 660 c 0
 255.166666667 651.333333333 262.5 643.5 271.5 636.5 c 0
 280.5 629.5 294.333333333 624.5 313 621.5 c 0
 331.666666667 618.5 350 616 368 614 c 0
 376 612.666666667 381.166666667 609.5 383.5 604.5 c 0
 385.833333333 599.5 383 594.666666667 375 590 c 1x9f
885 498 m 1xdf
 910.333333333 507.333333333 953.333333333 506.666666667 1014 496 c 1
 1049.33333333 486.666666667 1080.5 474.833333333 1107.5 460.5 c 0
 1134.5 446.166666667 1155.33333333 420.666666667 1170 384 c 1
 1180 348.666666667 1183.33333333 320.333333333 1180 299 c 0
 1176.66666667 277.666666667 1165 253.333333333 1145 226 c 1
 1125.66666667 202.666666667 1103.16666667 185.166666667 1077.5 173.5 c 0
 1051.83333333 161.833333333 1020 152 982 144 c 0
 944.666666667 136.666666667 914.333333333 133.166666667 891 133.5 c 0
 867.666666667 133.833333333 842.666666667 134.333333333 816 135 c 0
 789.333333333 136.333333333 764.5 138.5 741.5 141.5 c 0
 718.5 144.5 690.666666667 151 658 161 c 0
 604 175.666666667 550.666666667 196 498 222 c 0
 468.666666667 236.666666667 437.333333333 252.5 404 269.5 c 0
 370.666666667 286.5 333.666666667 306.666666667 293 330 c 0
 274.333333333 341.333333333 254 353.5 232 366.5 c 0
 210 379.5 186.333333333 392.666666667 161 406 c 1
 141.666666667 418 122.5 430.166666667 103.5 442.5 c 0
 84.5 454.833333333 76.5 467.166666667 79.5 479.5 c 0
 82.5 491.833333333 89.6666666667 497.666666667 101 497 c 0
 112.333333333 496.333333333 148 496.5 208 497.5 c 0
 268 498.5 320.666666667 498.666666667 366 498 c 1
 384 484.666666667 383.666666667 475.166666667 365 469.5 c 0
 346.333333333 463.833333333 332.666666667 456.666666667 324 448 c 0
 307.333333333 430.666666667 300 416.833333333 302 406.5 c 0
 304 396.166666667 306.666666667 388.166666667 310 382.5 c 0
 313.333333333 376.833333333 318.666666667 370.833333333 326 364.5 c 0
 333.333333333 358.166666667 351.5 345 380.5 325 c 0
 409.5 305 445.666666667 284 489 262 c 1
 527.666666667 245.333333333 558 231.666666667 580 221 c 0
 602 210.333333333 637.666666667 198.333333333 687 185 c 1
 723.666666667 177.666666667 761 173.166666667 799 171.5 c 0
 837 169.833333333 875.666666667 175.333333333 915 188 c 1
 942.333333333 200 961.5 210.333333333 972.5 219 c 0
 983.5 227.666666667 996 242.333333333 1010 263 c 0
 1022 283 1028.83333333 300 1030.5 314 c 0
 1032.16666667 328 1032.33333333 344 1031 362 c 0
 1030.33333333 380.666666667 1028.16666667 394.166666667 1024.5 402.5 c 0
 1020.83333333 410.833333333 1016 419.333333333 1010 428 c 0
 1004 436.666666667 996.666666667 444.5 988 451.5 c 0
 979.333333333 458.5 965.666666667 463.333333333 947 466 c 0
 928.333333333 468.666666667 910 471 892 473 c 0
 884 474.333333333 878.833333333 477.666666667 876.5 483 c 0
 874.166666667 488.333333333 877 493.333333333 885 498 c 1xdf
581 489 m 1xbf
 574.333333333 494.333333333 573.833333333 499.333333333 579.5 504 c 0
 585.166666667 508.666666667 592.666666667 511 602 511 c 0
 612 511 625.666666667 519.833333333 643 537.5 c 0
 660.333333333 555.166666667 672 577 678 603 c 0
 687.333333333 647 664.333333333 683.333333333 609 712 c 0
 587.666666667 722 561 731 529 739 c 0
 497 747 465.333333333 754 434 760 c 0
 402.666666667 766 375 770.833333333 351 774.5 c 0
 327 778.166666667 313 781 309 783 c 0
 300.333333333 786.333333333 297 790.666666667 299 796 c 0
 301 801.333333333 305.333333333 804 312 804 c 0
 315.333333333 804 328.833333333 802.666666667 352.5 800 c 0
 376.166666667 797.333333333 404.5 793.333333333 437.5 788 c 0
 470.5 782.666666667 505.166666667 775.666666667 541.5 767 c 0
 577.833333333 758.333333333 611 748.333333333 641 737 c 0
 676.333333333 723 704.666666667 709 726 695 c 0
 747.333333333 681 766.666666667 662 784 638 c 0
 801.333333333 614 808.666666667 590.333333333 806 567 c 0
 803.333333333 543.666666667 793.333333333 525.333333333 776 512 c 0
 760 500 741.333333333 492 720 488 c 0
 698.666666667 484 678.666666667 482 660 482 c 256
 641.333333333 482 628.166666667 482.166666667 620.5 482.5 c 0
 612.833333333 482.833333333 599.666666667 485 581 489 c 1xbf
EndSplineSet
Validated: 1572897
EndChar

StartChar: uniE065
Encoding: 57445 57445 65
Width: 1236
VWidth: 345
Flags: W
HStem: 133.5 38<683.719 914.868> 469.5 28.5<328.502 368.671 871.611 976.738> 696 29<591.665 781 899 1039.09>
VStem: 1025.5 149.5<261.907 407.969>
AnchorPoint: "diesis" 464 147 basechar 0
AnchorPoint: "yfesis" 1028 1025 basechar 0
AnchorPoint: "psifiston" 711 49 basechar 0
AnchorPoint: "klasma-bottom" 800 53 basechar 0
LayerCount: 2
Fore
SplineSet
899 696 m 1
 908 657 l 2
 908 654.333333333 911.5 648 918.5 638 c 0
 925.5 628 929 621.666666667 929 619 c 0
 929 616.333333333 923.5 613.833333333 912.5 611.5 c 0
 901.5 609.166666667 894 608 890 608 c 2
 829 608 l 2
 821 608 813.5 613.666666667 806.5 625 c 0
 799.5 635.666666667 795 646.333333333 793 657 c 2
 785 696 l 1
 707 696 635.333333333 699 570 705 c 0
 504.666666667 711 458.333333333 716.333333333 431 721 c 0
 380.333333333 729 338.5 743 305.5 763 c 0
 272.5 783 250.666666667 805.666666667 240 831 c 0
 234.666666667 843.666666667 225 862.5 211 887.5 c 0
 197 912.5 182.333333333 937.666666667 167 963 c 0
 151.666666667 988.333333333 137.166666667 1011 123.5 1031 c 0
 109.833333333 1051 100.333333333 1062.33333333 95 1065 c 0
 67 1074.33333333 61 1084.33333333 77 1095 c 1
 110.333333333 1097.66666667 142.333333333 1099.5 173 1100.5 c 0
 203.666666667 1101.5 235 1100.66666667 267 1098 c 0
 299 1096 321.833333333 1077.66666667 335.5 1043 c 0
 349.166666667 1008.33333333 363 963 377 907 c 0
 391 850.333333333 408.166666667 812 428.5 792 c 0
 448.833333333 772 484 755.333333333 534 742 c 0
 584.666666667 728 667 722.333333333 781 725 c 1
 769 794 l 2
 768.333333333 797.333333333 765 801.833333333 759 807.5 c 0
 753 813.166666667 750 817.666666667 750 821 c 0
 750 825 755.333333333 827.666666667 766 829 c 0
 776.666666667 830.333333333 784.333333333 831 789 831 c 2
 850 831 l 2
 857.333333333 831 864.5 825.833333333 871.5 815.5 c 0
 878.5 805.166666667 883.333333333 794 886 782 c 2
 896 726 l 1
 940.666666667 726.666666667 971 728.166666667 987 730.5 c 0
 1003 732.833333333 1020.66666667 735.333333333 1040 738 c 1
 1047.33333333 737.333333333 1051.66666667 734 1053 728 c 0
 1054.33333333 722 1052.66666667 716.666666667 1048 712 c 0
 1041.33333333 706.666666667 1027.66666667 702.666666667 1007 700 c 0
 986.333333333 697.333333333 950.333333333 696 899 696 c 1
880 498 m 1
 905.333333333 507.333333333 948.333333333 506.666666667 1009 496 c 1
 1044.33333333 487.333333333 1075.5 475.666666667 1102.5 461 c 0
 1129.5 446.333333333 1150.33333333 420.666666667 1165 384 c 1
 1175 348.666666667 1178.33333333 320.5 1175 299.5 c 0
 1171.66666667 278.5 1160 254 1140 226 c 1
 1120.66666667 202.666666667 1098.16666667 185.166666667 1072.5 173.5 c 0
 1046.83333333 161.833333333 1015.33333333 152 978 144 c 0
 940.666666667 136.666666667 910.333333333 133.166666667 887 133.5 c 0
 863.666666667 133.833333333 838.333333333 134.333333333 811 135 c 0
 784.333333333 136.333333333 759.5 138.5 736.5 141.5 c 0
 713.5 144.5 685.666666667 151 653 161 c 0
 599 175.666666667 545.666666667 196 493 222 c 0
 463.666666667 236.666666667 432.5 252.5 399.5 269.5 c 0
 366.5 286.5 329.666666667 306.666666667 289 330 c 0
 270.333333333 341.333333333 249.833333333 353.5 227.5 366.5 c 0
 205.166666667 379.5 181.333333333 392.666666667 156 406 c 1
 136.666666667 418 117.5 430 98.5 442 c 0
 79.5 454 71.5 466.166666667 74.5 478.5 c 0
 77.5 490.833333333 84.6666666667 496.666666667 96 496 c 0
 107.333333333 495.333333333 143 495.666666667 203 497 c 0
 263 498.333333333 315.666666667 498.666666667 361 498 c 1
 379 484.666666667 378.833333333 475.166666667 360.5 469.5 c 0
 342.166666667 463.833333333 328.333333333 456.666666667 319 448 c 0
 302.333333333 430.666666667 295 416.833333333 297 406.5 c 0
 299 396.166666667 301.833333333 388.166666667 305.5 382.5 c 0
 309.166666667 376.833333333 314.666666667 370.833333333 322 364.5 c 0
 329.333333333 358.166666667 347.333333333 345 376 325 c 0
 404.666666667 305 440.666666667 284 484 262 c 1
 522.666666667 245.333333333 553 231.666666667 575 221 c 0
 597 210.333333333 632.666666667 198.333333333 682 185 c 1
 718.666666667 177.666666667 756 173.166666667 794 171.5 c 0
 832 169.833333333 870.666666667 175.333333333 910 188 c 1
 937.333333333 200 956.5 210.333333333 967.5 219 c 0
 978.5 227.666666667 991 242.333333333 1005 263 c 0
 1017 283 1023.83333333 300 1025.5 314 c 0
 1027.16666667 328 1027.33333333 344 1026 362 c 0
 1025.33333333 380.666666667 1023.16666667 394.166666667 1019.5 402.5 c 0
 1015.83333333 410.833333333 1011.16666667 419.333333333 1005.5 428 c 0
 999.833333333 436.666666667 992.5 444.5 983.5 451.5 c 0
 974.5 458.5 960.666666667 463.333333333 942 466 c 0
 923.333333333 468.666666667 905 471 887 473 c 0
 879 474.333333333 873.833333333 477.666666667 871.5 483 c 0
 869.166666667 488.333333333 872 493.333333333 880 498 c 1
EndSplineSet
Validated: 1572897
EndChar

StartChar: kentima
Encoding: 57472 57472 66
Width: 279
VWidth: 345
Flags: W
HStem: 418 29<-41.6787 0.88916>
VStem: -42 303
AnchorPoint: "diesis" 200 107 basechar 0
AnchorPoint: "yfesis" 186 510 basechar 0
LayerCount: 2
Fore
SplineSet
-21 447 m 0
 1.66666666667 447 25.5 446.666666667 50.5 446 c 0
 75.5 445.333333333 98 443.666666667 118 441 c 1
 132 441 147.5 413.333333333 164.5 358 c 0
 181.5 302.666666667 201.666666667 254.333333333 225 213 c 0
 233 199 240.333333333 191 247 189 c 0
 253 187 257.666666667 183.666666667 261 179 c 0
 264.333333333 174.333333333 261 170 251 166 c 1
 227.666666667 162 204.333333333 160.166666667 181 160.5 c 0
 157.666666667 160.833333333 135 162.666666667 113 166 c 1
 93 174 76.5 199.5 63.5 242.5 c 0
 50.5 285.5 32.3333333333 336 9 394 c 0
 7 397.333333333 3 401.833333333 -3 407.5 c 0
 -9 413.166666667 -16 416.666666667 -24 418 c 0
 -34.6666666667 420 -40.6666666667 425.333333333 -42 434 c 0
 -43.3333333333 442.666666667 -36.3333333333 447 -21 447 c 0
EndSplineSet
Validated: 1572897
EndChar

StartChar: kentimata
Encoding: 57473 57473 67
Width: 738
VWidth: 345
Flags: W
HStem: 423 29<85.7838 128.574 394.26 436.917>
AnchorPoint: "diesis" 333 93 basechar 0
AnchorPoint: "yfesis" 624 551 basechar 0
AnchorPoint: "gorgon-top" 443 505 basechar 0
LayerCount: 2
Fore
SplineSet
107 452 m 0
 129.666666667 452 153.666666667 451.666666667 179 451 c 0
 204.333333333 450.333333333 227 448.333333333 247 445 c 1
 261 445 276.5 417.5 293.5 362.5 c 0
 310.5 307.5 330.666666667 259.333333333 354 218 c 0
 362 204 369.333333333 196 376 194 c 0
 382 192 386.666666667 188.5 390 183.5 c 0
 393.333333333 178.5 390 174 380 170 c 1
 356.666666667 166 333.166666667 164.333333333 309.5 165 c 0
 285.833333333 165.666666667 263.333333333 167.333333333 242 170 c 1
 222 178 205.5 203.666666667 192.5 247 c 0
 179.5 290.333333333 161.333333333 340.666666667 138 398 c 0
 136 401.333333333 131.833333333 405.833333333 125.5 411.5 c 0
 119.166666667 417.166666667 112 421 104 423 c 0
 93.3333333333 425 87.1666666667 430.166666667 85.5 438.5 c 0
 83.8333333333 446.833333333 91 451.333333333 107 452 c 0
416 452 m 0
 438.666666667 452 462.5 451.666666667 487.5 451 c 0
 512.5 450.333333333 535.333333333 448.333333333 556 445 c 1
 570 445 585.333333333 417.5 602 362.5 c 0
 618.666666667 307.5 639 259.333333333 663 218 c 0
 671 204 678.333333333 196 685 194 c 0
 691 192 695.5 188.5 698.5 183.5 c 0
 701.5 178.5 698 174 688 170 c 1
 664.666666667 166 641.333333333 164.333333333 618 165 c 0
 594.666666667 165.666666667 572.333333333 167.333333333 551 170 c 1
 531 178 514.333333333 203.666666667 501 247 c 0
 487.666666667 290.333333333 469.333333333 340.666666667 446 398 c 0
 444 401.333333333 440 405.833333333 434 411.5 c 0
 428 417.166666667 420.666666667 421 412 423 c 0
 401.333333333 425 395.333333333 430.166666667 394 438.5 c 0
 392.666666667 446.833333333 400 451.333333333 416 452 c 0
EndSplineSet
Validated: 1572897
EndChar

StartChar: uniE083
Encoding: 57475 57475 68
Width: 1465
VWidth: 345
Flags: W
HStem: 246 121<182.719 1306.04> 671 26<502.137 536.249 772.094 807.249>
AnchorPoint: "diesis" 400 133 basechar 0
AnchorPoint: "yfesis" 1316 619 basechar 0
AnchorPoint: "psifiston" 840 113 basechar 0
AnchorPoint: "gorgon-top" 842 767 basechar 0
LayerCount: 2
Fore
SplineSet
792 697 m 0
 812 697 832.833333333 696.666666667 854.5 696 c 0
 876.166666667 695.333333333 896 693.333333333 914 690 c 1
 926.666666667 690 939.833333333 668.666666667 953.5 626 c 0
 967.166666667 583.333333333 983.333333333 541.666666667 1002 501 c 0
 1008.66666667 487 1015 479 1021 477 c 0
 1026.33333333 475 1030.5 471.5 1033.5 466.5 c 0
 1036.5 461.5 1033.66666667 457 1025 453 c 1
 1004.33333333 449 983.833333333 447.333333333 963.5 448 c 0
 943.166666667 448.666666667 923.666666667 450.333333333 905 453 c 1
 887 461 873.166666667 480.166666667 863.5 510.5 c 0
 853.833333333 540.833333333 838.666666667 585 818 643 c 0
 816 646.333333333 812.333333333 651.5 807 658.5 c 0
 801.666666667 665.5 795.333333333 669.666666667 788 671 c 0
 778 672.333333333 772.666666667 676.833333333 772 684.5 c 0
 771.333333333 692.166666667 778 696.333333333 792 697 c 0
521 697 m 0
 541 697 562 696.666666667 584 696 c 0
 606 695.333333333 625.666666667 693.333333333 643 690 c 1
 655.666666667 690 669 668.666666667 683 626 c 0
 697 583.333333333 713.333333333 541.666666667 732 501 c 0
 738 487 744.333333333 479 751 477 c 0
 756.333333333 475 760.5 471.5 763.5 466.5 c 0
 766.5 461.5 763.666666667 457 755 453 c 1
 735 449 714.5 447.333333333 693.5 448 c 0
 672.5 448.666666667 652.666666667 450.333333333 634 453 c 1
 616.666666667 461 603 480.166666667 593 510.5 c 0
 583 540.833333333 567.666666667 585 547 643 c 0
 545 646.333333333 541.333333333 651.5 536 658.5 c 0
 530.666666667 665.5 524.666666667 669.666666667 518 671 c 0
 508.666666667 672.333333333 503.333333333 676.833333333 502 684.5 c 0
 500.666666667 692.166666667 507 696.333333333 521 697 c 0
85 384 m 0
 88.3333333333 389.333333333 92.1666666667 392.166666667 96.5 392.5 c 0
 100.833333333 392.833333333 105.333333333 391.666666667 110 389 c 0
 114.666666667 386.333333333 120.666666667 383.166666667 128 379.5 c 0
 135.333333333 375.833333333 144.666666667 372.833333333 156 370.5 c 0
 167.333333333 368.166666667 183.333333333 367 204 367 c 2
 1208 367 l 2
 1226.66666667 367 1243.66666667 365.5 1259 362.5 c 0
 1274.33333333 359.5 1288.33333333 354.666666667 1301 348 c 0
 1313.66666667 341.333333333 1323.5 335.333333333 1330.5 330 c 0
 1337.5 324.666666667 1347.16666667 315.5 1359.5 302.5 c 0
 1371.83333333 289.5 1382.33333333 277 1391 265 c 0
 1399.66666667 253 1401.33333333 241.333333333 1396 230 c 1
 1390.66666667 222 1384.66666667 220.333333333 1378 225 c 0
 1371.33333333 229.666666667 1363.16666667 233.666666667 1353.5 237 c 0
 1343.83333333 240.333333333 1333.5 242.666666667 1322.5 244 c 0
 1311.5 245.333333333 1294.33333333 246 1271 246 c 2
 282 246 l 2
 266.666666667 246 252.666666667 247 240 249 c 0
 227.333333333 251 217.5 253.166666667 210.5 255.5 c 0
 203.5 257.833333333 196 261 188 265 c 0
 180 269 171.5 273.833333333 162.5 279.5 c 0
 153.5 285.166666667 144 293.166666667 134 303.5 c 0
 124 313.833333333 113.833333333 325.833333333 103.5 339.5 c 0
 93.1666666667 353.166666667 86.6666666667 362.666666667 84 368 c 0
 81.3333333333 373.333333333 81.6666666667 378.666666667 85 384 c 0
EndSplineSet
Validated: 1572897
EndChar

StartChar: uniE084
Encoding: 57476 57476 69
Width: 1964
VWidth: 345
Flags: W
HStem: 246 121<270.719 1775.04> 475 118<813.917 1044.47> 645 26<1216.73 1251.25 1487.23 1521.76>
AnchorPoint: "diesis" 400 133 basechar 0
AnchorPoint: "yfesis" 1819 820 basechar 0
AnchorPoint: "psifiston" 1130 113 basechar 0
AnchorPoint: "gorgon-top" 1560 760 basechar 0
LayerCount: 2
Fore
SplineSet
1236 671 m 0
 1256 671 1277 670.666666667 1299 670 c 0
 1321 669.333333333 1340.66666667 667.333333333 1358 664 c 1
 1370.66666667 664 1385 647 1401 613 c 0
 1417 579 1434.66666667 541.666666667 1454 501 c 0
 1459.33333333 487 1465.66666667 479 1473 477 c 0
 1477.66666667 475 1481.5 471.5 1484.5 466.5 c 0
 1487.5 461.5 1484.66666667 457 1476 453 c 1
 1456 449 1435.5 447.333333333 1414.5 448 c 0
 1393.5 448.666666667 1373.66666667 450.333333333 1355 453 c 1
 1337.66666667 461 1323 476 1311 498 c 0
 1299 520 1282.66666667 559.666666667 1262 617 c 0
 1260 620.333333333 1256.33333333 625.5 1251 632.5 c 0
 1245.66666667 639.5 1239.33333333 643.666666667 1232 645 c 0
 1222.66666667 646.333333333 1217.5 651 1216.5 659 c 0
 1215.5 667 1222 671 1236 671 c 0
1506 671 m 0
 1526 671 1547 670.666666667 1569 670 c 0
 1591 669.333333333 1610.66666667 667.333333333 1628 664 c 1
 1640.66666667 664 1655 647 1671 613 c 0
 1687 579 1704.66666667 541.666666667 1724 501 c 0
 1730 487 1736.33333333 479 1743 477 c 0
 1748.33333333 475 1752.33333333 471.5 1755 466.5 c 0
 1757.66666667 461.5 1755 457 1747 453 c 1
 1726.33333333 449 1705.66666667 447.333333333 1685 448 c 0
 1664.33333333 448.666666667 1644.33333333 450.333333333 1625 453 c 1
 1607.66666667 461 1593 476 1581 498 c 0
 1569 520 1553 559.666666667 1533 617 c 0
 1531 620.333333333 1527.16666667 625.5 1521.5 632.5 c 0
 1515.83333333 639.5 1509.66666667 643.666666667 1503 645 c 0
 1493.66666667 646.333333333 1488.33333333 651 1487 659 c 0
 1485.66666667 667 1492 671 1506 671 c 0
172.5 384 m 0
 176.166666667 389.333333333 180 392.166666667 184 392.5 c 0
 188 392.833333333 192.5 391.666666667 197.5 389 c 0
 202.5 386.333333333 208.666666667 383.166666667 216 379.5 c 0
 223.333333333 375.833333333 232.666666667 372.833333333 244 370.5 c 0
 255.333333333 368.166666667 271.333333333 367 292 367 c 2
 1677 367 l 2
 1695.66666667 367 1712.66666667 365.5 1728 362.5 c 0
 1743.33333333 359.5 1757.33333333 354.666666667 1770 348 c 0
 1782.66666667 341.333333333 1792.5 335.333333333 1799.5 330 c 0
 1806.5 324.666666667 1816.16666667 315.5 1828.5 302.5 c 0
 1840.83333333 289.5 1851.33333333 277 1860 265 c 0
 1868.66666667 253 1870.33333333 241.333333333 1865 230 c 1
 1859.66666667 222 1853.5 220.333333333 1846.5 225 c 0
 1839.5 229.666666667 1831.33333333 233.666666667 1822 237 c 0
 1812.66666667 240.333333333 1802.5 242.666666667 1791.5 244 c 0
 1780.5 245.333333333 1763.33333333 246 1740 246 c 2
 370 246 l 2
 354.666666667 246 340.666666667 247 328 249 c 0
 315.333333333 251 305.5 253.166666667 298.5 255.5 c 0
 291.5 257.833333333 284 261 276 265 c 0
 268 269 259.5 273.833333333 250.5 279.5 c 0
 241.5 285.166666667 232 293.166666667 222 303.5 c 0
 212 313.833333333 201.833333333 325.833333333 191.5 339.5 c 0
 181.166666667 353.166666667 174.5 362.666666667 171.5 368 c 0
 168.5 373.333333333 168.833333333 378.666666667 172.5 384 c 0
109 662 m 1
 83.6666666667 708 76.8333333333 747.333333333 88.5 780 c 0
 100.166666667 812.666666667 121 830.333333333 151 833 c 0
 170.333333333 834.333333333 185.166666667 832.833333333 195.5 828.5 c 0
 205.833333333 824.166666667 215 819.833333333 223 815.5 c 0
 231 811.166666667 238.5 806.5 245.5 801.5 c 0
 252.5 796.5 259 791.333333333 265 786 c 0
 271 780.666666667 275.333333333 775.833333333 278 771.5 c 0
 280.666666667 767.166666667 281.833333333 763.166666667 281.5 759.5 c 0
 281.166666667 755.833333333 279.666666667 753.166666667 277 751.5 c 0
 274.333333333 749.833333333 267.166666667 746.833333333 255.5 742.5 c 0
 243.833333333 738.166666667 228.833333333 730.666666667 210.5 720 c 0
 192.166666667 709.333333333 183.333333333 692 184 668 c 0
 184 642.666666667 210.333333333 618.833333333 263 596.5 c 0
 315.666666667 574.166666667 394 565 498 569 c 2
 944 593 l 2
 966 593 983.5 591.5 996.5 588.5 c 0
 1009.5 585.5 1021.33333333 581.666666667 1032 577 c 0
 1042.66666667 572.333333333 1051.66666667 567.666666667 1059 563 c 0
 1066.33333333 558.333333333 1075.16666667 551.666666667 1085.5 543 c 0
 1095.83333333 534.333333333 1107.5 523 1120.5 509 c 0
 1133.5 495 1142 484.666666667 1146 478 c 0
 1150 471.333333333 1152 464.833333333 1152 458.5 c 0
 1152 452.166666667 1150 448 1146 446 c 0
 1142 444 1137.5 443 1132.5 443 c 0
 1127.5 443 1122.33333333 444 1117 446 c 0
 1111.66666667 448 1105.16666667 450.166666667 1097.5 452.5 c 0
 1089.83333333 454.833333333 1081.33333333 457.5 1072 460.5 c 0
 1062.66666667 463.5 1054 465.666666667 1046 467 c 0
 1038 468.333333333 1027.33333333 469.333333333 1014 470 c 2
 955 475 l 1
 861 471.666666667 780.166666667 472.666666667 712.5 478 c 0
 644.833333333 483.333333333 581.166666667 490 521.5 498 c 0
 461.833333333 506 409.166666667 514.666666667 363.5 524 c 0
 317.833333333 533.333333333 286.666666667 541 270 547 c 0
 241.333333333 559 215.833333333 570.833333333 193.5 582.5 c 0
 171.166666667 594.166666667 143 620.666666667 109 662 c 1
EndSplineSet
Validated: 1572897
EndChar

StartChar: uniE087
Encoding: 57479 57479 70
Width: 1627
VWidth: 345
Flags: W
HStem: 246 121<177.719 1453.04> 450 32<408.995 462.511> 645 26<859.729 894.249 1130.23 1164.25> 783 23<97.6112 165.711>
AnchorPoint: "diesis" 400 133 basechar 0
AnchorPoint: "yfesis" 1437 760 basechar 0
AnchorPoint: "psifiston" 895 113 basechar 0
AnchorPoint: "gorgon-top" 1213 740 basechar 0
LayerCount: 2
Fore
SplineSet
408 458 m 1
 400.666666667 464 400.333333333 469.5 407 474.5 c 0
 413.666666667 479.5 422 482 432 482 c 0
 442.666666667 482 457.666666667 491.833333333 477 511.5 c 0
 496.333333333 531.166666667 509.333333333 555.333333333 516 584 c 0
 526 632.666666667 500.333333333 672.333333333 439 703 c 0
 415.666666667 714.333333333 386.333333333 724.5 351 733.5 c 0
 315.666666667 742.5 280.666666667 750.333333333 246 757 c 0
 211.333333333 763.666666667 180.833333333 769.166666667 154.5 773.5 c 0
 128.166666667 778.5 112.666666667 781.666666667 108 783 c 0
 98.6666666667 786.333333333 95.1666666667 791 97.5 797 c 0
 99.8333333333 803 104.666666667 806 112 806 c 0
 116 806 131 804.5 157 801.5 c 0
 183 798.5 214 794 250 788 c 0
 286 782 324.166666667 774.166666667 364.5 764.5 c 0
 404.833333333 754.833333333 441.666666667 743.666666667 475 731 c 0
 514.333333333 715.666666667 545.666666667 700.333333333 569 685 c 0
 592.333333333 669.666666667 613.666666667 649 633 623 c 256
 652.333333333 597 660.5 571 657.5 545 c 0
 654.5 519 643.333333333 498.666666667 624 484 c 0
 606 470.666666667 585.5 461.666666667 562.5 457 c 0
 539.5 452.333333333 517.333333333 450 496 450 c 256
 464 450 464 450 452 450 c 0
 444 450 429.333333333 452.666666667 408 458 c 1
1149 671 m 0
 1169 671 1190 670.666666667 1212 670 c 0
 1234 669.333333333 1253.66666667 667.333333333 1271 664 c 1
 1283.66666667 664 1298 647 1314 613 c 0
 1330 579 1347.66666667 541.666666667 1367 501 c 0
 1372.33333333 487 1378.66666667 479 1386 477 c 0
 1390.66666667 475 1394.5 471.5 1397.5 466.5 c 0
 1400.5 461.5 1397.66666667 457 1389 453 c 1
 1369 449 1348.5 447.333333333 1327.5 448 c 0
 1306.5 448.666666667 1287 450.333333333 1269 453 c 1
 1251.66666667 461 1236.83333333 476 1224.5 498 c 0
 1212.16666667 520 1195.66666667 559.666666667 1175 617 c 0
 1173 620.333333333 1169.33333333 625.5 1164 632.5 c 0
 1158.66666667 639.5 1152.66666667 643.666666667 1146 645 c 0
 1136.66666667 646.333333333 1131.33333333 651 1130 659 c 0
 1128.66666667 667 1135 671 1149 671 c 0
879 671 m 0
 899 671 920 670.666666667 942 670 c 0
 964 669.333333333 983.666666667 667.333333333 1001 664 c 1
 1013.66666667 664 1028 647 1044 613 c 0
 1060 579 1077.33333333 541.666666667 1096 501 c 0
 1102 487 1108.33333333 479 1115 477 c 0
 1120.33333333 475 1124.5 471.5 1127.5 466.5 c 0
 1130.5 461.5 1127.66666667 457 1119 453 c 1
 1098.33333333 449 1077.66666667 447.333333333 1057 448 c 0
 1036.33333333 448.666666667 1016.66666667 450.333333333 998 453 c 1
 980.666666667 461 966 476 954 498 c 0
 942 520 925.666666667 559.666666667 905 617 c 0
 903 620.333333333 899.333333333 625.5 894 632.5 c 0
 888.666666667 639.5 882.333333333 643.666666667 875 645 c 0
 865.666666667 646.333333333 860.5 651 859.5 659 c 0
 858.5 667 865 671 879 671 c 0
80 384 m 0
 83.3333333333 389.333333333 87.1666666667 392.166666667 91.5 392.5 c 0
 95.8333333333 392.833333333 100.333333333 391.666666667 105 389 c 0
 109.666666667 386.333333333 115.666666667 383.166666667 123 379.5 c 0
 130.333333333 375.833333333 139.666666667 372.833333333 151 370.5 c 0
 162.333333333 368.166666667 178.333333333 367 199 367 c 2
 1354 367 l 2
 1372.66666667 367 1389.83333333 365.5 1405.5 362.5 c 0
 1421.16666667 359.5 1435.33333333 354.666666667 1448 348 c 0
 1460.66666667 341.333333333 1470.5 335.333333333 1477.5 330 c 0
 1484.5 324.666666667 1494 315.5 1506 302.5 c 0
 1518 289.5 1528.5 277 1537.5 265 c 0
 1546.5 253 1548.33333333 241.333333333 1543 230 c 1
 1537.66666667 222 1531.5 220.333333333 1524.5 225 c 0
 1517.5 229.666666667 1509.33333333 233.666666667 1500 237 c 0
 1490.66666667 240.333333333 1480.5 242.666666667 1469.5 244 c 0
 1458.5 245.333333333 1441.33333333 246 1418 246 c 2
 277 246 l 2
 261.666666667 246 247.666666667 247 235 249 c 0
 222.333333333 251 212.5 253.166666667 205.5 255.5 c 0
 198.5 257.833333333 191 261 183 265 c 0
 175 269 166.666666667 273.833333333 158 279.5 c 0
 149.333333333 285.166666667 139.833333333 293.166666667 129.5 303.5 c 0
 119.166666667 313.833333333 108.833333333 325.833333333 98.5 339.5 c 0
 88.1666666667 353.166666667 81.6666666667 362.666666667 79 368 c 0
 76.3333333333 373.333333333 76.6666666667 378.666666667 80 384 c 0
EndSplineSet
Validated: 1572897
EndChar

